
		<!--?xml version="1.0" standalone="no"?-->

<svg version="1.0" xmlns="http://www.w3.org/2000/svg" width="300" height="300" viewBox="0 0 300.000000 257.000000" preserveAspectRatio="xMidYMid " class="svg" style="width: 310px; height: 300px;">
<g transform="translate(0.000000,257.000000) scale(0.100000,-0.100000)" fill="#212121" stroke="none">
<path class="node" id="node1" d="M1656 2462 c-22 -79 -20 -166 4 -237 25 -71 26 -180 4 -255 -18 -59
-15 -87 17 -160 23 -52 40 -61 74 -37 17 13 16 17 -20 75 -33 54 -37 68 -37
124 1 95 31 158 77 158 27 0 45 -18 45 -47 0 -28 11 -29 33 -5 31 35 46 86 41
143 -6 56 18 132 53 172 9 9 11 17 6 17 -14 0 -56 -51 -103 -127 -62 -98 -111
-108 -152 -30 -19 36 -22 58 -23 155 0 61 -1 112 -1 112 -1 0 -9 -26 -18 -58z" style="fill: darkmagenta;"></path>
<path class="node" id="node2" d="M1359 2400 c-5 -116 -24 -174 -66 -193 -36 -16 -69 5 -112 75 -46 74
-89 128 -102 128 -4 0 2 -16 16 -35 42 -62 58 -117 47 -158 -13 -47 2 -97 40
-133 l28 -28 0 25 c0 33 17 49 53 49 24 0 31 -7 47 -42 41 -94 35 -162 -23
-252 -30 -47 -30 -49 -12 -62 34 -25 51 -17 73 34 33 77 35 98 17 171 -20 81
-17 167 9 261 19 68 18 188 -2 240 -7 19 -11 1 -13 -80z" style="fill: olive;"></path>
<path class="node" id="node3" d="M375 2440 c-39 -5 -38 -6 24 -13 113 -14 394 -126 408 -163 3 -9 -1
-23 -10 -32 -13 -13 -21 -13 -42 -4 -24 11 -25 10 -15 -7 14 -27 53 -53 130
-88 90 -42 166 -132 209 -249 25 -66 26 -78 6 -94 -13 -11 -24 -7 -69 24 -68
47 -151 76 -217 76 l-52 0 34 -23 c22 -14 35 -32 37 -49 5 -41 -27 -44 -97 -8
-92 46 -178 57 -294 38 -83 -13 -246 -73 -234 -85 2 -2 31 3 63 12 32 8 100
21 150 27 111 14 184 0 308 -62 81 -40 178 -70 226 -70 l25 0 -29 23 c-24 19
-28 28 -22 50 5 23 12 27 40 27 40 0 96 -36 114 -72 10 -23 10 -33 -2 -63 -25
-59 -86 -70 -184 -34 -138 51 -230 69 -351 69 -138 0 -273 -23 -353 -60 -30
-14 -39 -36 -10 -25 42 16 198 27 322 22 179 -6 272 -33 513 -147 47 -22 79
-23 38 -1 -55 30 -42 101 19 101 56 0 101 -55 151 -184 23 -61 130 -188 195
-233 48 -34 53 -28 12 14 -52 55 -71 99 -78 181 -6 62 -11 78 -34 100 l-27 27
6 -26 c10 -39 -17 -57 -43 -29 -41 45 -84 140 -89 201 -5 52 -3 63 16 83 69
73 212 6 197 -91 -6 -39 3 -41 32 -10 42 45 54 123 27 182 -11 25 -14 26 -14
9 -2 -54 -69 -69 -136 -31 -31 18 -56 49 -116 146 -71 115 -83 128 -163 187
-91 67 -106 86 -89 113 15 24 50 25 88 2 41 -24 44 -15 11 38 -52 81 -157 144
-291 174 -119 26 -264 38 -340 27z" style="fill: rgb(199, 74, 0);"></path>
<path class="node" id="node4" d="M2475 2439 c-236 -24 -399 -99 -456 -211 -25 -48 -21 -55 14 -27 45
34 111 10 94 -34 -3 -9 -44 -44 -90 -79 -47 -35 -94 -76 -104 -93 -11 -16 -36
-55 -55 -85 -19 -30 -46 -74 -61 -97 -32 -50 -94 -86 -140 -81 -25 2 -36 11
-48 36 l-17 33 -11 -32 c-22 -64 -10 -133 31 -176 29 -31 38 -29 32 10 -14 95
123 163 195 96 29 -27 35 -59 21 -110 -16 -59 -79 -178 -100 -189 -24 -13 -44
12 -34 42 6 21 5 21 -10 9 -30 -25 -46 -68 -46 -121 0 -64 -17 -103 -70 -162
-79 -90 2 -39 98 61 59 62 84 102 137 229 36 85 119 128 159 83 22 -24 14 -53
-21 -81 -41 -32 -12 -24 114 34 117 53 208 84 311 105 71 15 277 13 382 -3 47
-7 87 -12 89 -10 12 10 -116 55 -194 68 -191 33 -364 17 -537 -51 -119 -46
-198 -19 -198 68 0 34 5 43 42 69 43 31 85 39 106 18 20 -20 14 -45 -15 -67
-27 -19 -27 -20 -6 -21 50 0 133 24 219 66 125 60 200 78 294 70 88 -8 210
-34 228 -48 6 -6 12 -6 12 -1 0 5 -29 23 -65 41 -64 31 -199 62 -272 62 -51 0
-151 -28 -204 -57 -31 -16 -54 -23 -68 -18 -32 10 -27 49 12 80 l32 27 -65 -5
c-69 -5 -148 -36 -209 -81 -41 -31 -47 -32 -60 -8 -20 38 40 173 116 262 26
30 60 53 113 77 72 33 120 67 120 85 0 5 -10 6 -23 3 -27 -7 -52 16 -44 39 14
37 273 141 402 161 51 8 67 14 45 15 -19 0 -53 2 -75 4 -22 1 -76 -1 -120 -5z" style="fill: rgb(254, 0, 203);"></path>
<path class="node" id="node5" d="M1497 2311 c-9 -80 -46 -177 -89 -234 l-36 -47 16 -51 17 -52 56 62
57 61 33 -43 c18 -24 43 -51 55 -60 22 -17 23 -16 38 35 l15 51 -34 41 c-41
51 -80 152 -90 234 -9 81 -30 83 -38 3z" style="fill: darkmagenta;"></path>
<path class="node" id="node6" d="M480 2096 c72 -14 196 -63 280 -112 124 -73 282 -135 299 -118 9 9
-25 59 -38 56 -20 -4 -130 37 -230 87 -167 84 -220 101 -303 100 l-73 -1 65
-12z" style="fill: rgb(0, 254, 254);"></path>
<path class="node" id="node7" d="M2385 2076 c-44 -18 -117 -51 -161 -74 -86 -43 -196 -84 -215 -80
-13 3 -47 -47 -38 -56 18 -18 182 46 293 115 74 46 212 101 286 115 l65 12
-75 1 c-63 1 -88 -5 -155 -33z" style="fill: purple;"></path>
<path class="node" id="node8" d="M1255 1964 c-27 -13 -55 -24 -62 -24 -21 0 -24 -19 -7 -46 15 -21 23
-25 48 -20 47 10 73 32 79 68 3 18 2 36 -2 39 -3 4 -28 -4 -56 -17z" style="fill: purple;"></path>
<path class="node" id="node9" d="M1720 1952 c0 -49 7 -57 59 -73 41 -12 45 -12 63 11 10 12 17 27 16
32 -2 5 -34 22 -71 38 l-67 28 0 -36z" style="fill: cyan;"></path>
<path class="node" id="node10" d="M1510 1904 c0 -10 -5 -63 -10 -117 -11 -112 -38 -181 -97 -241 l-37
-38 30 -27 c16 -15 39 -33 50 -41 11 -8 30 -29 43 -46 l22 -30 76 73 76 74
-35 37 c-63 65 -87 128 -97 253 -5 61 -12 113 -15 116 -3 4 -6 -2 -6 -13z" style="fill: blueviolet;"></path>
<path class="node" id="node11" d="M1758 1699 c-14 -8 -18 -24 -18 -75 0 -39 -6 -78 -16 -97 -9 -18 -59
-73 -112 -123 l-97 -91 -97 90 c-110 102 -128 134 -128 232 l0 65 -31 0 -31 0
4 -53 c6 -74 35 -127 128 -236 45 -51 88 -107 96 -124 24 -46 54 -137 55 -166
0 -14 10 10 23 54 27 101 55 148 150 254 91 102 109 137 110 215 1 61 -7 73
-36 55z" style="fill: rgb(26, 0, 254);"></path>
<path class="node" id="node12" d="M655 1416 c-38 -8 -90 -24 -115 -35 -25 -12 -36 -19 -26 -16 73 21
126 28 236 28 100 0 139 -4 195 -21 101 -31 153 -67 166 -117 34 -128 44 -150
78 -172 19 -13 51 -28 73 -33 21 -6 56 -15 78 -20 23 -6 60 -30 92 -59 l53
-48 -25 -54 c-22 -46 -25 -66 -24 -158 0 -65 6 -120 15 -143 13 -36 14 -32 15
80 1 127 17 194 47 200 34 7 51 -59 51 -201 1 -124 1 -127 15 -85 8 25 14 90
15 153 1 95 -2 116 -21 154 -16 32 -19 49 -13 62 17 31 93 89 130 99 19 5 56
14 82 21 26 6 64 26 83 43 29 25 38 42 47 91 6 33 15 72 20 86 12 33 96 83
178 105 87 24 281 24 369 0 35 -9 66 -15 68 -13 2 2 -34 17 -79 32 -75 26 -96
29 -218 29 -114 0 -146 -3 -210 -23 -141 -44 -187 -79 -300 -225 -79 -103
-154 -172 -198 -183 -51 -13 -126 45 -228 178 -112 147 -164 187 -299 228 -90
28 -254 36 -350 17z m555 -212 c0 -35 21 -54 58 -54 27 0 59 -49 41 -61 -31
-20 -99 13 -129 64 -19 31 -27 97 -13 110 13 14 43 -27 43 -59z m660 14 c0
-50 -37 -104 -85 -124 -30 -12 -75 -10 -75 5 1 16 40 51 58 51 30 0 52 27 52
62 0 30 26 62 42 52 5 -3 8 -24 8 -46z" style="fill: rgb(26, 0, 254);"></path>
<path class="node" id="node13" d="M725 1327 c-43 -17 -136 -69 -131 -74 2 -2 30 4 62 13 116 34 235 13
278 -48 34 -48 3 -107 -49 -94 -17 4 -25 2 -25 -7 0 -20 58 -104 99 -144 59
-57 251 -138 251 -105 0 6 -9 13 -19 17 -28 9 -161 152 -177 191 -27 65 -7
108 41 86 37 -17 33 7 -12 65 -44 58 -56 68 -108 93 -46 22 -161 26 -210 7z" style="fill: red;"></path>
<path class="node" id="node14" d="M2095 1321 c-55 -26 -145 -124 -145 -159 0 -10 5 -10 20 -2 34 18 60
3 60 -34 0 -53 -64 -139 -170 -230 l-45 -38 40 6 c59 10 174 69 219 113 43 42
96 119 96 140 0 9 -8 11 -24 7 -17 -4 -31 1 -45 15 -54 54 5 122 125 141 43 7
70 5 131 -10 42 -11 79 -20 82 -20 13 1 -95 63 -132 76 -57 20 -163 18 -212
-5z" style="fill: darkmagenta;"></path>
<path class="node" id="node15" d="M1210 984 c0 -9 25 -40 55 -70 57 -57 71 -94 36 -94 -11 0 -27 7 -35
16 -48 47 15 -58 69 -116 40 -43 54 -69 65 -123 8 -35 9 -29 6 38 -2 56 -9 95
-25 130 -37 84 -26 151 19 110 20 -18 20 -18 20 8 0 30 -41 82 -82 103 -29 15
-29 15 -18 -6 25 -48 -36 -56 -81 -11 -19 20 -29 24 -29 15z" style="fill: black;"></path>
<path class="node" id="node16" d="M1669 973 c-46 -39 -81 -127 -40 -102 22 15 51 5 51 -16 0 -9 -12
-43 -26 -77 -28 -66 -43 -193 -27 -222 7 -12 9 -7 9 21 1 63 13 92 58 141 23
26 53 65 67 87 l24 40 -25 -16 c-14 -9 -31 -14 -37 -12 -24 8 -13 39 28 78 22
22 48 54 56 70 l15 30 -29 -27 c-46 -44 -108 -35 -83 12 15 28 -2 25 -41 -7z" style="fill: rgb(170, 0, 254);"></path>
<path class="node" id="node17" d="M1210 814 c0 -6 9 -19 19 -28 46 -42 83 -184 62 -238 -14 -36 -55
-47 -83 -22 -18 17 -20 27 -15 82 4 52 3 61 -9 51 -21 -18 -37 -89 -31 -141 7
-56 31 -105 110 -222 33 -49 75 -121 93 -160 32 -68 33 -69 34 -36 0 79 -47
197 -111 279 -20 25 -26 86 -9 96 18 11 40 -16 40 -49 0 -39 14 -21 34 45 27
89 -21 243 -100 320 -19 18 -34 28 -34 23z" style="fill: cyan;"></path>
<path class="node" id="node18" d="M1772 776 c-81 -92 -116 -255 -73 -341 l19 -40 1 31 c1 40 24 62 46
44 24 -20 18 -41 -35 -124 -56 -89 -90 -181 -90 -240 1 -41 1 -41 43 44 23 47
65 119 93 160 72 105 95 155 101 215 6 54 -8 115 -31 134 -11 9 -12 1 -8 -38
6 -64 -3 -98 -28 -106 -88 -28 -103 128 -24 246 38 56 30 65 -14 15z" style="fill: orange;"></path>
<path class="node" id="node19" d="M1374 440 c-11 -4 -27 -23 -34 -40 -11 -28 -11 -37 1 -58 22 -39 41
-41 26 -3 -9 26 -9 34 5 47 35 35 99 -14 81 -63 -10 -29 -45 -63 -65 -63 -10
0 -18 -4 -18 -9 0 -15 41 -58 79 -83 19 -13 39 -37 45 -55 15 -44 27 -45 41
-3 7 21 26 44 46 58 38 25 79 68 79 83 0 5 -9 9 -19 9 -44 0 -81 96 -49 128
15 15 51 15 66 0 15 -15 15 -51 0 -66 -9 -9 -9 -12 0 -12 22 0 44 47 37 80
-14 62 -88 80 -137 33 -38 -37 -39 -102 -3 -145 23 -27 24 -33 12 -52 -8 -11
-20 -31 -28 -43 -20 -33 -31 -29 -61 22 l-27 44 24 30 c28 32 34 103 12 132
-27 35 -71 46 -113 29z" style="fill: darkmagenta;"></path>
</g>
<g transform="translate(0.000000,257.000000) scale(0.100000,-0.100000)" fill="#80FB85" stroke="none">

<path class="node" id="node21" d="M1167 1263 c-14 -13 -6 -79 13 -110 30 -51 98 -84 129 -64 18 12 -14
61 -41 61 -37 0 -58 19 -58 54 0 32 -30 73 -43 59z" style="fill: rgb(254, 0, 203);"></path>
<path class="node" id="node22" d="M1837 1256 c-10 -8 -17 -26 -17 -44 0 -35 -22 -62 -52 -62 -18 0 -57
-35 -58 -51 0 -15 45 -17 75 -5 48 20 85 74 85 124 0 47 -8 56 -33 38z" style="fill: rgb(254, 0, 8);"></path>
</g>
</svg>	