<svg viewBox="0 0 1288.5555419921875 400" xmlns="http://www.w3.org/2000/svg"><g><g><g><g><g><line x1="34" y1="102.81533218123957" x2="29" y2="102.81533218123957" style="visibility: inherit;" fill="rgb(0, 0, 0)" stroke="rgb(204, 204, 204)" stroke-width="1px"></line></g><g transform="translate(24, 0)"><text x="0" y="102.81533218123957" dx="0em" dy="0.3em" style="text-anchor: end; visibility: inherit; font-family: &quot;Helvetica Neue&quot;, sans-serif; font-size: 12px; font-weight: 200;" fill="rgb(50, 49, 63)" stroke="none" stroke-width="1px">0.3</text></g><line x1="34" y1="0" x2="34" y2="377" fill="rgb(0, 0, 0)" stroke="rgb(204, 204, 204)" stroke-width="1px"></line></g></g><g transform="translate(34, 0)" clip-path="url(#clip_0)"><clipPath id="clip_0"><rect width="1254" height="377"></rect></clipPath><g><g><g><line x1="0" y1="0" x2="0" y2="377" fill="rgb(0, 0, 0)" stroke="rgb(60, 60, 60)" stroke-width="1px" opacity="0.25"></line><line x1="104.54666666666665" y1="0" x2="104.54666666666665" y2="377" fill="rgb(0, 0, 0)" stroke="rgb(60, 60, 60)" stroke-width="1px" opacity="0.25"></line><line x1="209.0933333333333" y1="0" x2="209.0933333333333" y2="377" fill="rgb(0, 0, 0)" stroke="rgb(60, 60, 60)" stroke-width="1px" opacity="0.25"></line><line x1="313.64" y1="0" x2="313.64" y2="377" fill="rgb(0, 0, 0)" stroke="rgb(60, 60, 60)" stroke-width="1px" opacity="0.25"></line><line x1="418.1866666666666" y1="0" x2="418.1866666666666" y2="377" fill="rgb(0, 0, 0)" stroke="rgb(60, 60, 60)" stroke-width="1px" opacity="0.25"></line><line x1="522.7333333333333" y1="0" x2="522.7333333333333" y2="377" fill="rgb(0, 0, 0)" stroke="rgb(60, 60, 60)" stroke-width="1px" opacity="0.25"></line><line x1="627.28" y1="0" x2="627.28" y2="377" fill="rgb(0, 0, 0)" stroke="rgb(60, 60, 60)" stroke-width="1px" opacity="0.25"></line><line x1="731.8266666666667" y1="0" x2="731.8266666666667" y2="377" fill="rgb(0, 0, 0)" stroke="rgb(60, 60, 60)" stroke-width="1px" opacity="0.25"></line><line x1="836.3733333333332" y1="0" x2="836.3733333333332" y2="377" fill="rgb(0, 0, 0)" stroke="rgb(60, 60, 60)" stroke-width="1px" opacity="0.25"></line><line x1="940.92" y1="0" x2="940.92" y2="377" fill="rgb(0, 0, 0)" stroke="rgb(60, 60, 60)" stroke-width="1px" opacity="0.25"></line><line x1="1045.4666666666667" y1="0" x2="1045.4666666666667" y2="377" fill="rgb(0, 0, 0)" stroke="rgb(60, 60, 60)" stroke-width="1px" opacity="0.25"></line><line x1="1150.0133333333333" y1="0" x2="1150.0133333333333" y2="377" fill="rgb(0, 0, 0)" stroke="rgb(60, 60, 60)" stroke-width="1px" opacity="0.25"></line><line x1="1254.56" y1="0" x2="1254.56" y2="377" fill="rgb(0, 0, 0)" stroke="rgb(60, 60, 60)" stroke-width="1px" opacity="0.25"></line></g><g><line x1="0" y1="102.81533218123957" x2="1254.56" y2="102.81533218123957" fill="rgb(0, 0, 0)" stroke="rgb(60, 60, 60)" stroke-width="1px" opacity="0.25"></line></g></g></g><g><g><line x1="104.54666666666665" y1="0" x2="104.54666666666665" y2="377" fill="rgb(0, 0, 0)" stroke="rgb(153, 153, 153)" stroke-width="1.5px"></line></g></g><g><g><g><g><g><path stroke="rgb(0, 119, 187)" stroke-width="2px" d="M107.67261199999999,318.360320086112L108.19534533333332,392.40092902586935L110.28627866666668,225.16728877156805L110.809012,185.1235264824488L111.85447866666667,258.8947682517329L112.377212,277.8097518253167L112.89994533333332,289.733015359667L113.945412,296.646655484348L114.46814533333333,299.8776218279993L114.99087866666666,346.7851743164924L115.513612,345.59591026137764L117.60454533333333,339.54281877959903L122.30914533333333,307.48398934129233L122.83187866666667,346.63252594700134L123.87734533333334,333.6065109018562L125.44554533333334,334.961665528969L125.96827866666666,382.6684158013384L129.627412,411.6880881879763L130.67287866666666,368.3701303897709L131.19561199999998,375.2428350691599L132.763812,368.4023647529328L133.28654533333332,388.41597886047384L133.80927866666664,375.90741912892685L134.332012,371.30351778961955L134.8547453333333,353.2149390571636L136.42294533333333,375.610615822288L136.94567866666665,405.81865117302846L137.99114533333332,394.19705546028734L139.036612,357.53317180883107L139.55934533333334,338.41504945700353L140.08207866666666,323.19676191921525L140.60481199999998,319.56307395714833L142.173012,329.30189749076175L142.69574533333332,323.1428571428572L143.21847866666667,348.71290091696164L143.741212,368.0417073120225L144.78667866666666,351.4704137569928L146.35487866666665,332.67309985927574L148.9685453333333,292.666831567211L149.49127866666666,302.55208142199433L150.014012,295.4254614662724L150.53674533333333,269.06664799312375L151.05947866666668,284.9409035713155L151.582212,262.72748040966815L154.19587866666666,266.2792971942644L158.37774533333334,279.250532789334L159.94594533333333,275.51081606067504L160.46867866666668,309.8432852475371L164.12781199999998,294.42079417566583L165.696012,302.4892482765457L166.74147866666664,305.8703690771532L167.264212,295.5442177316504L167.78694533333334,296.1225361369701L169.87787866666665,298.96952736662206L170.400612,301.59873902329826L170.92334533333334,299.72223376130194L172.49154533333333,278.56534692200023L173.01427866666666,276.86281863296756L174.58247866666665,287.7337602804772L176.673412,274.28921930144713L177.71887866666665,261.461380903061L178.76434533333332,261.12207397352284L179.28707866666664,256.37963247906293L179.809812,288.42067185952567L180.33254533333331,304.17221771496537L181.378012,302.5107075714919L182.42347866666665,273.78418166058776L183.46894533333332,263.8677669775125L185.0371453333333,268.00628531791773L185.55987866666666,267.1516935657203L186.082612,287.85111940422547L187.12807866666665,288.6743757296121L187.650812,290.2043361619993L188.17354533333332,301.400464089945L189.7417453333333,301.1689730865819L190.78721199999998,301.3048260483123L191.30994533333333,322.50366589368184L192.35541199999997,327.41377477539896L192.87814533333332,325.4742391261808L194.4463453333333,332.9790379081264L197.06001199999997,338.5708027582379L197.58274533333332,358.5918143032534L198.10547866666667,369.85718160165544L199.15094533333334,351.21551132540856L199.67367866666666,353.4302088754854L200.71914533333333,315.0936874906109L201.764612,294.9319753436527L202.28734533333332,273.6516759233813L202.81007866666664,252.58819903998017L203.332812,237.22342922559625L204.37827866666663,225.33951452970203L204.90101199999998,211.1533333714641L208.56014533333334,191.8209818993704L210.65107866666665,183.47553736592496L212.742012,190.64719508035685L213.26474533333334,171.11196302119743L213.78747866666666,166.97627480131598L215.878412,181.80141655730523L216.40114533333332,204.77511509306763L217.446612,201.84456127601078L219.014812,189.82718189876778L219.5375453333333,193.4649672505294L221.10574533333332,204.44652818830787L221.62847866666667,178.68980849350962L222.6739453333333,186.0348897035284L223.19667866666666,185.28459798442674L223.719412,201.70462617760242L224.76487866666665,231.13491638850573L225.287612,236.52024317620402L225.81034533333332,239.68725444099866L226.33307866666667,237.63318324582232L226.85581200000001,249.40744483161038L227.3785453333333,240.70608694962414L228.94674533333333,249.92340029883977L230.51494533333332,248.8062950226381L232.60587866666665,235.86842593937564L233.12861199999998,247.75709655227845L234.17407866666667,245.64876264936842L235.21954533333331,277.52939687256793L235.74227866666666,274.1922442755868L238.35594533333332,300.19223460021544L239.9241453333333,287.93011305306817L240.44687866666666,316.2066537820796L240.96961199999998,340.0879216024492L241.49234533333333,344.80202193359787L242.53781199999997,328.3699481602544L244.62874533333334,314.33923533887815L245.67421199999998,325.3009655078596L246.71967866666665,316.4038891916992L247.76514533333332,318.70030488438806L250.37881199999998,326.50033620563045L251.42427866666665,325.862581534544L253.515212,322.222043296179L256.12887866666665,302.0630327836749L257.1743453333333,306.2107101653489L257.69707866666664,319.0252332010745L259.26527866666663,279.4415131069275L260.31074533333333,212.6018355445929L260.8334786666667,214.53175017336187L261.356212,222.64143133224707L262.40167866666667,186.65153541213581L262.924412,156.03823788601156L263.4471453333333,147.79248501195576L265.53807866666665,160.8678354272912L266.060812,178.54818159509796L267.10627866666664,203.85550502656466L268.6744786666667,198.11453653449686L270.76541199999997,213.90411672775633L271.2881453333333,190.62809144580038L271.81087866666667,206.86975956496147L272.33361199999996,243.50987475712097L273.37907866666666,246.53897341305463L274.94727866666665,254.6443576643912L275.470012,239.30512944161902L275.99274533333335,208.06819444998487L277.56094533333334,175.05631216822792L278.0836786666667,164.64854037126614L279.1291453333333,136.44425527968733L282.2655453333333,161.74007904496605L283.311012,165.31526036231617L284.879212,165.21509561568593L285.40194533333334,168.53229544337557L286.447412,151.4826180966506L286.97014533333333,173.14449049863893L289.58381199999997,184.05077503448211L290.1065453333333,189.530503941602L291.152012,181.38732249330357L292.19747866666665,194.50312318041944L292.720212,222.2521619824132L293.2429453333333,223.44577175817292L294.8111453333333,180.81496429933088L295.33387866666664,175.11333668798932L295.856612,183.86198196465844L296.9020786666666,199.03295786054295L297.424812,189.24488460830986L298.4702786666667,217.2417557076931L298.993012,179.65179854098494L300.03847866666666,203.48004378931546L301.0839453333333,187.0404795299699L302.129412,190.7379148420744L302.6521453333333,208.1050271021799L303.17487866666664,208.85464318586233L304.2203453333333,159.91056532729405L304.74307866666663,184.01671342318173L306.3112786666667,158.15849516731294L306.834012,153.70919344518242L307.3567453333333,137.7670148347398L307.87947866666667,142.64299153334247L308.9249453333333,141.1514299505745L309.44767866666666,147.98900922571843L309.97041199999995,134.7001035087034L310.4931453333333,142.50773172003954L315.1977453333333,141.02693924073026L315.7204786666666,155.36714066587172L316.7659453333333,149.3581988567953L318.3341453333333,148.9480064025368L321.99327866666664,152.62679546656622L322.516012,154.46238984257863L324.6069453333333,140.573512736407L325.1296786666666,149.11058429456543L325.65241199999997,137.72745576034114L326.69787866666667,135.56998070390816L327.7433453333333,139.7765520784216L329.8342786666667,127.07253147859996L334.5388786666667,106.24782802791333L335.06161199999997,105.97958963117799L335.5843453333333,126.94748342896267L336.10707866666667,125.04023461357693L337.1525453333333,158.6594865659545L337.67527866666666,184.9504404423728L339.2434786666666,174.4590277726594L340.81167866666664,168.64750639149568L344.470812,142.25617506851674L344.9935453333334,147.61889959245326L345.5162786666666,149.4628795437767L346.03901199999996,163.9323562051418L347.08447866666666,182.85467545963803L347.607212,185.22254913376514L348.12994533333335,166.5497913273144L349.175412,149.96154304997614L349.69814533333334,151.05066747965157L350.22087866666664,160.45459653692424L351.26634533333333,145.8325041371392L352.311812,132.7425486834425L352.8345453333333,120.99469354117883L354.9254786666666,121.92880790435026L358.584612,120.90057278949354L360.15281200000004,139.80082194314528L360.6755453333333,132.95447718098634L361.721012,124.89829409193555L362.76647866666667,133.03898035210358L364.33467866666666,163.5953023389995L370.0847453333333,156.45824042565857L371.6529453333333,174.71623187596242L372.17567866666667,157.3414576700287L372.69841199999996,147.14205810260037L373.74387866666666,155.2265387201225L374.78934533333336,167.30455003031008L375.3120786666667,171.3811974633301L376.3575453333333,168.328093882366L378.971212,178.93398297791833L379.49394533333333,188.35422204562678L382.6303453333333,181.36237359737336L383.675812,204.35329350628146L384.19854533333336,219.76316749002305L384.72127866666665,192.2171599787425L385.24401199999994,188.36525766905288L385.7667453333333,189.06407729570103L386.28947866666664,167.87805698354532L386.812212,128.50882275367252L387.33494533333334,128.9948398419979L387.85767866666663,142.7469557149451L388.380412,151.13463250750928L389.4258786666667,147.26493498876118L390.9940786666666,160.37376662407476L391.51681199999996,166.01505752139641L392.0395453333333,190.22359362008763L393.085012,198.49342514223264L395.17594533333335,184.28407156634947L396.221412,216.2892200247628L397.2668786666666,206.87016574320006L399.357812,190.10546992574794L399.8805453333333,163.60135835374413L400.4032786666666,185.16087347413915L401.4487453333333,172.1872409200182L402.494212,180.14345237998916L403.53967866666665,199.33315610695672L404.58514533333334,193.97221338921327L405.1078786666667,180.60904756733703L406.6760786666666,201.23767866087508L407.7215453333333,231.43869657564906L408.2442786666667,216.36463522903944L408.76701199999997,200.90645458605496L409.2897453333333,180.96253999460998L409.81247866666666,186.66427650162774L410.335212,205.48186212820042L411.38067866666665,190.8831147501488L411.90341199999995,199.10745709006466L414.5170786666667,198.97168972686796L415.039812,209.58688824210745L416.0852786666666,197.23454043185976L416.608012,207.9649139624071L417.1307453333333,192.99067931810347L418.6989453333333,207.90390578604965L419.744412,197.85207924688498L420.7898786666666,190.04317901482176L421.8353453333333,184.33091178571286L422.880812,215.45764377711347L423.92627866666663,195.8645249020865L424.449012,191.71226639080018L424.97174533333333,182.57026235600514L426.5399453333333,194.9454983180286L428.63087866666666,192.8094078710355L429.153612,213.547244752308L430.19907866666665,196.13871563539007L430.72181199999994,162.04539576927667L431.76727866666664,157.7729731861433L433.858212,136.0129199360927L436.4718786666666,114.79113210291331L440.131012,91.84268629646209L440.65374533333335,85.47551139932528L441.699212,55.02591380987866L442.2219453333333,51.72335911666323L442.74467866666663,50.41193382741989L443.267412,56.57539328659135L443.7901453333333,87.43278615159579L444.3128786666667,68.36396913398681L445.3583453333333,65.71879820459088L445.8810786666666,111.91656582260339L447.97201199999995,96.69084236843406L448.4947453333333,127.85003792846516L449.540212,128.25443738200644L450.5856786666667,127.89961993464831L452.1538786666666,135.83260177006596L453.1993453333333,133.82721608551813L453.7220786666667,154.44170384738194L454.24481199999997,121.69123191606596L455.813012,126.35272026587833L456.33574533333336,143.04017475924456L456.8584786666666,149.74441654091274L457.38121199999995,143.59648012202535L457.9039453333333,147.21125753387915L458.949412,138.0639920733584L459.47214533333334,115.17432424315541L459.99487866666664,125.43099538866761L461.0403453333333,127.70336062218323L461.5630786666666,143.50801695345453L462.085812,126.32044451987338L462.6085453333333,164.927029822511L463.1312786666666,174.61669515640747L463.65401199999997,179.37046803569257L464.69947866666666,209.79805745682316L465.222212,227.2734808989466L466.79041199999995,208.52691597682556L468.88134533333334,205.2918296779659L470.44954533333333,220.49697039674857L470.9722786666667,238.53929685463444L471.49501200000003,246.470521754087L472.5404786666666,216.93640278708187L473.06321199999996,217.2618676477971L473.5859453333333,212.24036687507547L474.10867866666666,250.66301498589155L475.1541453333333,296.0418316050799L475.67687866666665,289.6691712650099L476.199612,260.7354398757593L478.2905453333333,243.57990257463274L480.3814786666667,225.18726448900327L480.90421200000003,236.2976032436466L481.9496786666666,218.93182604883597L482.47241199999996,189.31285877514574L482.9951453333333,188.3038541263716L483.51787866666666,204.68505159894963L484.04061199999995,230.85670490311568L484.5633453333333,238.39520247651294L486.13154533333335,201.89332172319803L486.6542786666667,222.12779198451017L487.17701199999993,229.71012998847982L489.7906786666667,214.27758598722232L490.8361453333333,200.80659718536825L491.35887866666667,190.86123422885223L491.88161199999996,193.8699705840016L492.4043453333333,206.186325982439L493.44981199999995,182.1312152648399L495.018012,177.42708448578742L495.54074533333335,190.79420295093158L497.1089453333333,166.47346732868925L497.63167866666663,181.04183491464605L498.154412,153.64089840361288L499.1998786666666,161.27436253797538L500.2453453333333,159.92329888579758L501.81354533333337,141.13716234424186L502.3362786666666,171.72722799641792L503.3817453333333,182.7270274583159L504.94994533333335,186.88767774652158L505.47267866666664,182.56292862983392L505.995412,170.4374923764641L507.04087866666663,166.6990920030678L507.563612,166.79736782746454L508.0863453333333,161.6291191560335L509.13181199999997,167.32178734043708L509.6545453333333,177.15091880416895L510.17727866666667,147.58480249392187L512.268212,189.78267805876322L512.7909453333333,174.64486931058215L514.8818786666666,145.35317601724873L515.4046119999999,138.32565469047125L516.4500786666666,127.91095284522066L517.4955453333333,131.5997813128818L518.541012,129.31905606715728L519.0637453333334,134.43458680117854L519.5864786666667,130.66086382366922L520.109212,112.40532771622856L520.6319453333333,88.67023916077108L521.1546786666667,89.26126364066596L522.2001453333334,86.37708785773054L523.2456119999999,89.92641101985026L524.2910786666666,94.82876177282697L525.8592786666667,98.57152180720811L526.9047453333333,81.90363450332103L527.4274786666666,77.92301191219218L527.950212,96.66357390894325L530.0411453333332,77.92949801298039L531.086612,97.98294618325099L531.6093453333333,85.08478886402577L532.654812,89.54394054337104L534.223012,83.37170832755487L535.2684786666666,115.10499169717991L535.791212,101.08721422830752L536.3139453333333,103.53732142523165L537.8821453333334,81.73733066628523L539.4503453333333,83.94417024848082L539.9730786666667,92.2648953425271L541.0185453333333,107.27918518777017L542.0640119999999,60.98110080698149L543.1094786666666,71.95287827287808L545.7231453333333,87.59668482419704L546.768612,73.31083250191693L547.2913453333333,62.527279976434954L547.8140786666667,82.72563677361734L548.336812,80.88274663511498L549.905012,69.99473364234456L553.041412,63.86710814224028L554.0868786666666,91.62336770738557L554.609612,115.48708620404426L555.1323453333333,114.49183671924493L555.6550786666667,148.37063459594134L556.177812,151.05829139254166L558.2687453333333,139.49907033464677L559.314212,149.52676303596473L559.8369453333332,157.44612039552845L561.4051453333333,164.8140045436621L561.9278786666666,202.7991015026827L562.450612,188.61609372058655L562.9733453333333,216.3413978737233L563.4960786666667,193.84315635125546L564.5415453333334,182.55330434334203L565.0642786666667,162.4536320697328L565.587012,149.85673660015408L566.1097453333333,157.75321160502344L567.155212,153.96910680500744L568.7234119999999,170.9432174878698L569.7688786666666,136.48548284238635L570.291612,130.55551223726584L571.3370786666667,119.00580567781452L571.8598119999999,134.70016143101242L573.428012,128.28835333155905L573.9507453333333,114.73368599830445L574.9962119999999,59.15047590186691L575.5189453333332,41.74857283252999L579.1780786666667,44.072071455058165L579.700812,41.65795185949662L580.2235453333334,51.90557672305607L580.7462786666666,42.62295676805928L581.269012,43.919486600545554L581.7917453333333,63.512223747682924L582.3144786666667,69.53048089390887L583.3599453333334,70.90190575561257L583.8826786666666,88.668332275144L584.405412,100.66892184808069L585.973612,100.83614366599193L586.4963453333334,107.0009013585123L587.0190786666666,134.4345503239221L587.5418119999999,122.38850207851556L588.5872786666666,107.21682653612856L591.7236786666666,80.26729019206158L592.246412,88.4128235311922L592.7691453333333,82.33633676006235L593.814612,88.7122475599387L595.9055453333333,100.70998979938355L597.4737453333333,103.31727175520615L599.0419453333333,88.34427336337893L601.1328786666667,63.994651664026776L602.7010786666666,63.36548090104009L603.223812,55.2898620240187L603.7465453333333,65.13745416739715L604.792012,66.84416322135962L605.3147453333332,70.55801540497049L605.8374786666666,86.89133244696052L606.8829453333333,90.40252608441835L607.4056786666666,101.12146493422443L607.928412,79.56623007399781L608.4511453333333,104.51215811576793L608.9738786666667,122.79267493705845L610.0193453333334,129.1930799852366L610.5420786666667,145.7108593261886L611.5875453333333,146.6202767340066L612.633012,144.81134541474796L613.1557453333334,99.72443766195124L614.2012119999999,67.68738354693238L615.2466786666666,77.11811317430823L615.769412,82.94441838312787L616.2921453333333,73.49009422290828L616.8148786666666,57.00334966143424L618.3830786666666,85.59852697335157L618.905812,65.6010584530444L619.4285453333333,83.67637385587L620.9967453333333,109.38086415456661L621.5194786666666,105.09092743737995L625.7013453333334,113.36002439807385L627.2695453333333,156.36768989461373L627.7922786666667,153.7751324504684L628.8377453333334,162.7105478025701L629.8832120000001,168.0096038596936L630.4059453333333,189.01587168263816L631.9741453333332,185.42661466731226L632.4968786666667,187.90514556890577L633.5423453333333,152.62327274468072L634.0650786666666,119.276259702799L634.587812,132.60424375853253L635.1105453333333,135.94500172218144L636.6787453333333,128.17749000869267L640.860612,125.4863928051733L641.3833453333334,136.59686259858861L641.9060786666666,142.36658682136311L642.9515453333333,117.72356908464616L643.997012,112.4940574544728L644.5197453333333,110.02599040133049L645.0424786666667,110.47019872966024L646.0879453333332,121.04010453980877L647.1334119999999,130.90390698556288L647.6561453333334,141.84546719277765L648.1788786666666,151.86943670665806L649.7470786666667,123.62791306087374L650.269812,95.69802034393132L650.7925453333332,66.42265760873892L653.406212,79.84796488351077L654.4516786666667,95.00962831662827L654.9744119999999,83.2373434344916L656.0198786666666,87.8314624145192L656.5426120000001,65.44897682110837L657.5880786666665,75.03099338516L660.7244786666666,43.359548299344L661.2472119999999,41.002854234845415L662.2926786666666,9.961824381245094L663.3381453333333,16.849235039156383L665.4290786666667,27.452957803350785L666.4745453333333,19.340731253576564L667.520012,44.68490759492698L668.5654786666666,55.12397631813991L669.6109453333333,77.91229324325775L670.656412,117.44803604137184L671.1791453333333,124.57629228670396L671.7018786666667,130.40398921296466L672.224612,139.6353463917423L672.7473453333332,139.98385570019465L674.8382786666666,133.75793492237455L675.8837453333333,133.83613565732034L676.4064786666665,125.7034469230104L679.5428786666666,120.67858467227973L680.5883453333333,99.55627989132194L681.6338119999999,94.34521205522157L682.1565453333333,113.47263572059131L682.6792786666666,96.10045975155475L685.8156786666667,104.70993159166193L687.3838786666666,97.24257615744665L688.4293453333333,80.83093045726503L689.9975453333333,67.9500817123585L691.5657453333332,93.28291602642531L692.0884786666667,126.46978803114001L693.1339453333334,135.96765960419222L693.6566786666666,127.40339805496023L694.179412,116.13845936973212L694.7021453333333,135.8119625502919L695.747612,118.3005841987736L696.2703453333332,129.73236361865665L697.3158119999999,118.38136554376575L697.8385453333333,140.9645413779568L698.3612786666666,134.01872080798648L699.9294786666667,134.8018627041889L700.4522119999999,128.6726451871381L701.4976786666666,163.7522360169627L705.6795453333332,169.2923326911511L706.2022786666666,138.22740075826266L706.7250119999999,127.8214700300266L707.2477453333333,124.1063743289908L708.8159453333333,121.17587901737866L709.3386786666666,149.26218610602584L709.861412,139.64541061010038L711.429612,118.05665766610792L711.9523453333333,90.1953372311516L712.4750786666666,91.17295695608317L714.0432786666667,92.66284187477396L720.3160786666666,109.4299823453793L721.8842786666665,86.00233972572602L722.9297453333332,96.77362552519588L723.4524786666667,101.17669261796652L724.4979453333333,107.86097822503694L725.0206786666666,95.83116759332182L725.543412,93.64811168699742L726.5888786666667,74.13445518786955L728.1570786666666,64.56900059105914L728.679812,64.16448791824536L729.2025453333333,49.44914155687502L729.7252786666667,55.01340399528749L730.248012,66.37758467094858L730.7707453333333,82.35933214502865L731.2934786666667,93.37127385498724L731.816212,84.9818069430894L732.8616786666666,65.04569843072358L733.9071453333333,72.63815924642029L734.4298786666666,67.88480695400972L735.4753453333333,65.27837901369759L736.520812,77.24941716616792L737.5662786666667,65.2374859146164L738.0890119999999,57.33081919265777L738.6117453333334,83.19135272975961L739.1344786666666,105.39398363630426L739.657212,114.86786662125081L740.1799453333333,141.23015894900365L742.2708786666666,140.72378734233166L744.8845453333332,138.32517386306876L745.4072786666667,118.51689171001385L746.4527453333334,103.15368987671445L746.9754786666666,108.64929685018075L747.4982120000001,120.70952918063989L749.066412,122.51201327901421L749.5891453333332,111.68706551641003L750.1118786666667,101.94951656163312L751.1573453333332,90.04455566664791L752.7255453333333,93.32147882086957L754.2937453333333,86.82864018179924L755.339212,97.54520613188168L756.3846786666667,94.8348518986868L756.907412,123.17546826239109L757.9528786666666,119.42939474885753L758.475612,149.79111336024727L760.0438119999999,140.41673748499744L760.5665453333334,100.76325274558388L761.0892786666666,93.63497529639432L762.1347453333333,92.67305544025584L762.6574786666667,86.2353427765741L763.180212,88.10132736063878L764.2256786666667,63.42026650475668L764.7484119999999,51.88787521161623L765.2711453333334,69.00312957322046L765.7938786666666,64.55148295211615L766.3166119999999,98.01471213235567L766.8393453333333,106.76981171193768L769.453012,109.62416992880429L769.9757453333333,129.16518760740556L771.021212,97.6059628587413L773.1121453333333,77.5292504657308L773.6348786666666,90.2476197564323L774.6803453333333,132.52895857821107L776.7712786666667,132.56953709852306L777.8167453333334,133.46439027893697L778.8622119999999,119.42884768040847L779.9076786666666,142.79410834909763L780.430412,153.18972829697725L780.9531453333333,155.51467209113628L781.4758786666665,168.09633486904946L782.5213453333332,164.5498132878413L784.0895453333333,137.56226271236977L784.6122786666666,140.16625856538755L785.6577453333333,98.61190606407956L786.1804786666667,96.20501092108628L786.703212,91.27379776165003L787.7486786666666,86.62699038853464L789.839612,65.21035335706068L790.8850786666667,66.07485720810541L791.4078119999999,66.87271283010563L792.4532786666666,62.59733825334746L792.9760120000001,65.17684615603702L794.544212,48.275283774619936L795.0669453333333,49.13758344526718L797.6806119999999,61.148109384794395L798.2033453333333,76.08995178972123L798.7260786666666,80.39754197118805L799.2488119999999,74.99617730906641L800.2942786666666,73.26049722262263L801.3397453333333,87.56857265885475L801.8624786666667,95.20766866422457L802.385212,94.58690817052963L802.9079453333333,80.98264481463451L803.4306786666666,94.95142455598568L803.953412,77.78065927246598L805.5216119999999,87.90474581882523L807.089812,52.26165005047312L808.1352786666667,66.57579797696104L809.1807453333332,76.08170283621757L809.7034786666667,69.18407610992267L810.2262119999999,82.43442876000898L810.7489453333334,68.62955563603822L811.2716786666666,54.7899173341043L813.362612,48.06136984772132L815.4535453333333,38.66406751870403L816.499012,70.29753641019141L817.0217453333333,65.73859084637871L818.5899453333333,63.447383362343714L819.1126786666666,44.753871461716756L819.635412,74.40848939281886L821.203612,64.48488409449556L822.771812,72.70618414428503L823.2945453333332,99.3213008471734L823.8172786666667,100.59047117598266L824.8627453333334,104.71359307743006L825.3854786666666,98.83173176808259L825.908212,105.13916807862086L827.476412,94.25035102946589L828.5218786666667,95.50480270498241L829.0446119999999,53.494978536299584L829.5673453333333,79.54458346517265L830.0900786666666,115.74431814982654L830.612812,100.15637530612327L831.1355453333333,84.68914515154376L832.181012,82.68899647020538L832.7037453333334,75.06438795916443L834.2719453333333,40.90105301800912L836.8856119999999,44.42888966415234L843.1584119999999,43.8332351826308L843.6811453333333,32.95242621528183L844.2038786666666,13.868922420717695L844.7266119999999,20.480418784269716L846.8175453333333,35.43547803268734L848.3857453333333,66.14390556156349L848.9084786666666,94.8215298066159L849.9539453333333,75.19161834624538L850.4766786666667,59.43480229313218L850.9994119999999,45.16240372755516L851.5221453333334,53.85714285714289L852.567612,55.591106417579624L853.6130786666665,72.48679781015846L854.135812,67.74603216139502L854.6585453333332,79.84136904353142L855.7040119999999,56.93351909506271L856.2267453333334,73.48295864645274L856.7494786666666,62.27808634206684L857.7949453333333,66.61059212059598L858.840412,35.14967948986077L861.976812,-8.919718910687948L865.6359453333333,-5.87754974766591L866.1586786666666,9.04093379387632L868.249612,34.20254689151528L870.8632786666666,31.046789722194717L871.386012,46.66669972830931L873.4769453333332,31.528820348508873L875.5678786666666,14.955185028617962L877.1360786666667,16.506474869286706L878.7042786666666,14.777970321391876L879.227012,32.61284683271492L879.7497453333333,33.10164780028731L881.3179453333332,27.227091175209694L881.8406786666667,40.64088939649491L883.4088786666666,40.08560392772364L883.9316119999999,55.15293324764019L884.4543453333333,66.50796872004668L884.9770786666666,67.27241033119475L885.499812,64.85763928468242L889.1589453333333,54.42652482243528L889.6816786666666,59.05239839961422L890.2044119999999,93.24827079088652L890.7271453333333,59.954295828473676L891.772612,76.10202287147933L892.2953453333333,88.91172265881102L892.8180786666666,94.53728112186468L893.340812,119.41117652198676L893.8635453333333,123.53140019401832L894.3862786666666,103.06158141230304L894.909012,106.8795653831009L895.4317453333333,103.07866719343832L895.9544786666667,103.05812149210323L897.5226786666666,93.96035454948583L898.5681453333333,101.58722992457473L901.1818119999999,105.63705209721479L901.7045453333333,105.41661676191205L902.2272786666666,126.41539355998262L903.2727453333333,120.99289768012619L906.9318786666666,129.4028293137331L907.9773453333332,108.84519026208773L910.591012,124.63988701614201L911.1137453333333,131.78224669416133L913.2046786666667,157.31065664326294L914.2501453333332,176.610059265046L914.7728786666667,176.5989118845501L915.8183453333334,165.23990114497104L916.3410786666666,154.67822650782745L917.3865453333333,136.89534546948715L917.9092786666666,139.27780784821533L921.0456786666666,145.38446975262292L921.568412,149.3263906020497L922.0911453333333,119.01975323197985L924.7048120000001,150.18957617791884L925.2275453333333,127.84499635146437L929.9321453333333,127.19721786894848L930.4548786666666,122.04758901047575L932.0230786666666,152.80641459779451L932.545812,171.1363601694897L933.0685453333333,145.78232882486842L934.1140119999999,162.86301829103672L935.1594786666666,171.30471347488557L936.2049453333333,167.1543493908022L937.250412,175.4583413278065L937.7731453333333,161.66161260759898L938.2958786666666,151.23408110532495L939.3413453333333,124.47128411699984L939.8640786666667,151.40731531149677L940.9095453333332,139.81649985722038L941.9550119999999,119.10167284801815L942.4777453333334,110.3855456849937L943.5232120000001,91.57691311067794L944.0459453333333,64.13601010118822L946.1368786666667,65.46884403004947L946.6596119999999,75.39589598060388L947.7050786666666,70.41285911563722L948.227812,62.05689595310912L948.7505453333333,95.62181153474194L949.2732786666666,100.76345890700867L950.3187453333333,147.12500798490396L950.8414786666666,153.32459952598472L951.364212,170.33693159461902L951.8869453333333,170.81349589271963L953.9778786666667,180.40742301071265L955.0233453333334,183.26284625029555L955.5460786666666,188.79928489128898L956.0688119999999,170.05194132029663L957.1142786666666,156.7560477869726L958.1597453333333,194.27948900231246L959.205212,211.43762943210754L960.2506786666667,208.65737376837922L960.7734119999999,210.88599254219582L961.2961453333334,233.4491708756875L962.3416119999999,256.9967301567596L962.8643453333333,286.69136053969487L963.3870786666666,300.7403298556052L963.909812,312.7834458387599L964.4325453333332,304.976231014616L964.9552786666667,333.7193464604498L966.0007453333333,346.742732375089L966.5234786666666,334.56565155253645L968.0916786666667,342.75094209815876L968.6144119999999,329.1924272826042L969.6598786666666,323.3467485719121L970.1826120000001,310.92763167275604L971.750812,320.7238704012044L972.2735453333332,317.5033711014073L972.7962786666667,291.93392610838185L973.3190119999999,294.45937257364676L973.8417453333334,291.4888538385534L974.8872119999999,296.4088918490247L976.9781453333333,273.0389097772433L978.023612,293.1685874129249L978.5463453333333,260.32370180891894L979.0690786666667,246.32065773842362L980.6372786666666,237.88942628537427L981.1600119999999,247.2970189597556L982.2054786666666,251.505811426201L984.296412,255.4049481502538L984.8191453333333,261.9419187019823L985.3418786666667,283.98423710134625L985.864612,267.7496133774446L986.9100786666667,275.9918046795059L987.9555453333334,254.7043476342091L989.0010120000001,283.59645556550123L989.5237453333333,243.04951376403335L990.569212,235.84564430093178L991.0919453333332,232.2734274973023L991.6146786666667,239.7130287314781L992.1374119999999,247.3522801912862L993.1828786666666,213.6490287042468L994.7510786666666,205.59127755288037L995.2738119999999,205.838101706556L995.7965453333333,191.063915056934L996.3192786666666,177.96917761828948L996.842012,186.52210994555543L998.410212,167.40070781106303L998.9329453333332,151.9164516539785L1001.0238786666666,145.77445777689604L1001.5466119999999,146.49326926428378L1002.5920786666666,147.34240843895338L1003.114812,169.77543975247366L1003.6375453333333,162.53914679350186L1005.7284786666667,176.19062766187136L1007.2966786666666,154.08156700796303L1008.3421453333333,182.66589837548025L1009.9103453333332,176.15938886830966L1010.4330786666666,180.48011440926854L1010.9558119999999,191.436858517013L1011.4785453333333,209.98037345093582L1012.0012786666666,237.59475841490865L1013.0467453333333,237.6017088271116L1013.5694786666667,252.1360373188341L1014.0922119999999,269.9846063992099L1015.6604120000001,285.8820508954676L1016.1831453333333,286.8551046210905L1017.228612,235.91325582707398L1017.7513453333332,216.31439260841333L1018.2740786666667,214.1832565605834L1019.8422786666666,225.17487285018512L1020.8877453333333,240.47477727970235L1021.4104786666666,243.51732862116074L1021.933212,251.83122357266944L1022.4559453333333,266.77789609716353L1022.9786786666666,273.4684825517981L1026.1150786666667,256.8146731367548L1026.637812,244.44496744060294L1028.206012,298.46376122431525L1030.8196786666667,301.46860918468803L1032.910612,311.8978279791779L1033.9560786666666,309.2080713359411L1035.0015453333333,321.8304757826628L1036.047012,306.5448896925694L1036.5697453333332,293.70152151406916L1037.0924786666667,290.79253765849614L1037.615212,255.9834439881878L1039.7061453333333,243.68965847866187L1040.2288786666666,212.8094937502122L1040.7516119999998,219.5025795761933L1041.7970786666665,216.0660058817945L1042.319812,225.5359875326499L1042.8425453333332,188.02750190211222L1044.9334786666666,161.74428952326497L1045.9789453333333,187.71452819923445L1047.024412,198.51194547849312L1048.0698786666667,196.77165563082949L1048.592612,213.7822549939013L1049.6380786666666,221.94364937259414L1051.729012,223.00964315292072L1052.7744786666667,216.58434785648473L1053.297212,186.3323724963695L1054.865412,162.47508121999377L1056.433612,159.38728679039284L1058.5245453333332,177.47541950772668L1059.570012,177.94316037515426L1060.0927453333334,178.96608431172012L1061.6609453333333,178.77090235001563L1063.7518786666667,169.1877049145071L1064.274612,184.8644830059071L1064.7973453333332,194.99169927070167L1065.3200786666666,181.72624938164384L1066.8882786666666,222.60450467894785L1067.411012,212.6265264941336L1067.9337453333333,238.40692766942445L1068.979212,229.85016031178665L1069.5019453333332,190.76200112211868L1070.0246786666667,143.2388720869332L1071.0701453333331,162.1190443578444L1071.5928786666666,155.1084578740278L1073.1610786666665,165.21089033181653L1073.683812,172.0333870088956L1074.7292786666667,173.50922323890805L1075.7747453333332,168.4202415827052L1076.2974786666666,151.38138753063012L1076.8202119999999,131.76419249121625L1078.9111453333333,142.46003393859877L1080.4793453333334,146.6171303372962L1081.0020786666666,169.08875863137973L1081.524812,180.79248859290664L1082.0475453333333,175.09275700187192L1083.6157453333333,169.22778872021343L1085.1839453333334,158.12192894402796L1085.7066786666667,172.88076405810187L1086.229412,185.87687950214172L1086.7521453333334,181.63567629217795L1087.2748786666666,196.3923087677927L1088.3203453333333,221.82702904967854L1089.8885453333332,257.710279996952L1091.4567453333334,276.5078899018413L1093.5476786666666,297.7619769041847L1094.070412,291.243114039846L1094.5931453333333,277.78325308689926L1095.1158786666665,302.5325546143307L1095.638612,311.44560201288544L1096.6840786666667,305.0838168749654L1097.206812,247.35369866192042L1099.2977453333333,239.77961257826792L1100.8659453333332,219.79679399354424L1101.3886786666665,224.57434801096815L1102.9568786666666,213.02741839731755L1103.4796119999999,214.77519767732494L1104.0023453333333,205.4895754697365L1104.5250786666666,187.13134117119256L1105.047812,139.36156652612866L1106.0932786666665,126.86583295936992L1106.616012,126.61978096907373L1107.1387453333332,100.19610264764839L1107.6614786666667,112.80129467410967L1108.184212,97.49198124462612L1110.2751453333333,112.79292611544975L1110.7978786666667,104.62659659667668L1111.320612,103.26098292700567L1112.888812,125.53636315146863L1113.9342786666666,162.61504525243046L1114.457012,146.40331866274562L1114.9797453333333,142.92156464414273L1116.025212,126.27391643257599L1116.5479453333332,158.0780884302668L1117.0706786666667,181.13720193756538L1118.1161453333334,249.87844395340608L1118.6388786666666,247.3294093901217L1120.2070786666666,246.22655741502825L1121.2525453333333,238.7495866783201L1122.298012,226.73261998487268L1122.8207453333332,199.9732622685358L1123.866212,168.86529881087586L1125.4344119999998,151.46848205110146" style="fill: none;" fill="none"></path></g></g></g></g><g opacity="0.2"><g><g><g><path stroke="rgb(0, 119, 187)" stroke-width="2px" d="M107.67261199999999,318.360320086112L108.19534533333332,466.92761346692396L110.28627866666668,-8.355644324969376L110.809012,90.63584588889233L111.85447866666667,559.05550932511L112.377212,356.8425188323542L112.89994533333332,346.3273539798051L113.945412,332.9969379719757L114.46814533333333,318.360320086112L114.99087866666666,710.4396128418986L115.513612,337.820076952404L117.60454533333333,298.4426649706203L122.30914533333333,102.81529854585455L122.83187866666667,730.8372099451337L123.87734533333334,235.71302256371015L125.44554533333334,346.3273539798051L125.96827866666666,966.7575865565395L128.059212,658.7543515274526L128.58194533333332,332.9969379719757L129.627412,318.360320086112L130.67287866666666,35.06223695745098L131.19561199999998,446.02620619267867L132.763812,302.9094772252256L133.28654533333332,623.5467582682038L133.80927866666664,257.1436378892551L134.332012,324.8967599566696L134.8547453333333,183.4917712443886L136.42294533333333,658.7543515274526L136.94567866666665,822.4359085633932L137.99114533333332,278.044980835825L139.036612,36.82387226852069L139.55934533333334,153.3654301361554L140.08207866666666,171.56960629477763L140.60481199999998,280.33581978894154L142.173012,446.02620619267867L142.69574533333332,257.1436378892551L143.21847866666667,706.3003582912222L143.741212,623.5467582682038L144.78667866666666,183.4917712443886L146.35487866666665,144.1143239454506L148.9685453333333,-65.16590578888355L149.49127866666666,424.5956403742158L150.014012,217.76615733715252L150.53674533333333,13.631613287741516L151.05947866666668,493.0639683270856L151.582212,41.38700923985539L154.19587866666666,308.460085372069L158.37774533333334,446.02620619267867L159.94594533333333,233.29800780208947L160.46867866666668,864.7678668355081L164.12781199999998,133.04934347586354L165.696012,402.60837778896604L166.74147866666664,346.3273539798051L167.264212,183.4917712443886L167.78694533333334,302.9094772252256L169.87787866666665,332.9969379719757L170.400612,332.9969379719757L170.92334533333334,278.044980835825L172.49154533333333,63.43786768238863L173.01427866666666,257.1436378892551L174.58247866666665,427.00380145179975L176.673412,130.57070290681472L177.71887866666665,123.71672684221545L178.76434533333332,257.1436378892551L179.28707866666664,202.51417528453098L179.809812,800.4486589067442L180.33254533333331,515.6376710109713L181.378012,283.1906584941223L182.42347866666665,-6.766033367624459L183.46894533333332,155.03656721797688L185.0371453333333,318.360320086112L185.55987866666666,257.1436378892551L186.082612,579.9568526320587L187.12807866666665,298.4426649706203L187.650812,308.460085372069L188.17354533333332,446.02620619267867L189.7417453333333,298.4426649706203L190.78721199999998,302.9094772252256L191.30994533333333,623.5467582682038L192.35541199999997,387.626352751387L192.87814533333332,302.9094772252256L194.4463453333333,427.00380145179975L198.10547866666667,515.6376710109713L199.15094533333334,157.44475063952132L199.67367866666666,380.0347005568564L200.71914533333333,-40.997800440564106L201.764612,87.28348910589523L202.28734533333332,55.9635806802213L202.81007866666664,36.82387226852069L203.332812,74.11898386935371L204.37827866666663,96.27892565499207L204.90101199999998,59.397531106278734L208.56014533333334,-8.355644324969376L210.65107866666665,90.63584588889233L212.742012,280.33581978894154L213.26474533333334,-30.929289902623736L213.78747866666666,119.5774722915391L215.878412,380.0347005568564L216.40114533333332,537.624907693971L217.446612,167.95990385983401L219.014812,59.397531106278734L219.5375453333333,237.68387058834915L221.10574533333332,346.3273539798051L221.62847866666667,-77.96708765912138L222.6739453333333,278.044980835825L223.19667866666666,176.46715525299354L223.719412,424.5956403742158L224.76487866666665,689.5381845455377L225.287612,302.9094772252256L225.81034533333332,278.044980835825L226.33307866666667,213.7257729070611L226.85581200000001,402.60837778896604L227.3785453333333,144.1143239454506L228.94674533333333,367.22869748696417L230.51494533333332,235.71302256371015L232.60587866666665,96.27892565499207L233.12861199999998,402.60837778896604L234.17407866666667,221.118541530803L235.21954533333331,789.2370612842142L235.74227866666666,235.71302256371015L238.35594533333332,689.5381845455377L239.9241453333333,155.03656721797688L240.44687866666666,750.7548822987605L241.49234533333333,402.60837778896604L242.53781199999997,155.03656721797688L244.62874533333334,164.0319962990774L245.67421199999998,466.92761346692396L246.71967866666665,217.76615733715252L247.76514533333332,346.3273539798051L250.37881199999998,424.5956403742158L251.42427866666665,318.360320086112L253.515212,280.33581978894154L256.12887866666665,94.30807757742934L257.1743453333333,356.8425188323542L257.69707866666664,487.3252326433802L260.31074533333333,-329.579248110428L260.8334786666667,237.68387058834915L261.356212,324.8967599566696L262.40167866666667,-152.05873976090504L262.924412,-140.69667980700444L263.4471453333333,55.9635806802213L265.53807866666665,332.9969379719757L266.060812,421.48935381800885L267.10627866666664,579.9568526320587L268.6744786666667,133.04934347586354L270.76541199999997,427.00380145179975L272.33361199999996,869.9135444938054L273.37907866666666,283.1906584941223L274.94727866666665,356.8425188323542L275.470012,76.36120446537313L275.99274533333335,-93.65891767259745L277.56094533333334,-140.69667980700444L278.0836786666667,50.440163810408194L279.1291453333333,-140.69667980700444L282.2655453333333,537.624907693971L283.311012,208.7611564284727L284.879212,164.0319962990774L285.40194533333334,208.7611564284727L286.447412,-27.667376674573006L286.97014533333333,482.83469140663857L289.58381199999997,324.8967599566696L290.1065453333333,257.1436378892551L291.152012,90.63584588889233L292.19747866666665,367.22869748696417L292.720212,646.1204171059619L293.2429453333333,237.68387058834915L294.8111453333333,-206.6881854428267L295.33387866666664,110.47567126039502L295.856612,294.77036536699717L296.9020786666666,402.60837778896604L297.424812,81.38473325294461L298.4702786666667,646.1204171059619L300.03847866666666,551.9720668782452L301.0839453333333,13.631613287741516L302.129412,235.71302256371015L302.6521453333333,446.02620619267867L303.17487866666664,217.76615733715252L304.2203453333333,-271.1793940685044L306.3112786666667,-99.39765335630295L306.834012,102.81529854585455L307.3567453333333,-30.929289902623736L307.87947866666667,202.51417528453098L308.9249453333333,123.71672684221545L309.44767866666666,233.29800780208947L309.97041199999995,-8.355644324969376L310.4931453333333,240.70691374097441L315.1977453333333,123.71672684221545L315.7204786666666,346.3273539798051L316.7659453333333,81.38473325294461L318.3341453333333,144.1143239454506L321.99327866666664,197.36849774089944L322.516012,176.46715525299354L324.6069453333333,-8.355644324969376L325.1296786666666,257.1436378892551L325.65241199999997,13.631613287741516L326.69787866666667,110.47567126039502L327.7433453333333,191.1521779765362L329.8342786666667,-10.213967047084054L334.5388786666667,-107.49783126649834L335.06161199999997,102.81529854585455L335.5843453333333,424.5956403742158L336.10707866666667,102.81529854585455L337.1525453333333,710.4396128418986L337.67527866666666,579.9568526320587L339.2434786666666,59.397531106278734L340.81167866666664,102.81529854585455L344.470812,-119.7952725327591L344.9935453333334,213.7257729070611L345.5162786666666,171.56960629477763L346.03901199999996,356.8425188323542L347.08447866666666,446.02620619267867L347.607212,213.7257729070611L348.12994533333335,-27.667376674573006L349.175412,-24.850512301536867L349.69814533333334,164.0319962990774L350.22087866666664,280.33581978894154L351.26634533333333,-10.213967047084054L352.8345453333333,-6.766033367624459L354.9254786666666,133.04934347586354L358.584612,108.84001581018316L360.15281200000004,402.60837778896604L360.6755453333333,55.9635806802213L361.721012,35.06223695745098L362.76647866666667,235.71302256371015L364.33467866666666,646.1204171059619L370.0847453333333,76.36120446537313L371.6529453333333,427.00380145179975L372.17567866666667,-24.850512301536867L372.69841199999996,35.06223695745098L373.74387866666666,257.1436378892551L374.78934533333336,324.8967599566696L375.3120786666667,221.118541530803L376.3575453333333,133.04934347586354L378.971212,315.54349193117866L379.49394533333333,308.460085372069L382.6303453333333,102.81529854585455L383.675812,537.624907693971L384.72127866666665,-79.47995787834861L385.24401199999994,144.1143239454506L385.7667453333333,197.36849774089944L386.28947866666664,-49.09797830571216L386.812212,-235.4309377010726L387.33494533333334,134.76105628957913L387.85767866666663,324.8967599566696L388.380412,257.1436378892551L389.4258786666667,102.81529854585455L390.9940786666666,332.9969379719757L391.51681199999996,235.71302256371015L392.0395453333333,545.7250855591191L393.085012,302.9094772252256L395.17594533333335,32.23592193341676L396.221412,730.8372099451337L397.2668786666666,102.81529854585455L399.357812,13.631613287741516L399.8805453333333,-99.39765335630295L400.4032786666666,493.0639683270856L401.4487453333333,32.23592193341676L402.494212,280.33581978894154L403.53967866666665,466.92761346692396L404.58514533333334,133.04934347586354L405.1078786666667,36.82387226852069L406.6760786666666,493.0639683270856L407.7215453333333,706.3003582912222L408.2442786666667,55.9635806802213L408.76701199999997,36.82387226852069L409.2897453333333,-24.850512301536867L409.81247866666666,257.1436378892551L410.335212,466.92761346692396L411.38067866666665,35.06223695745098L411.90341199999995,302.9094772252256L414.5170786666667,197.36849774089944L415.039812,346.3273539798051L416.0852786666666,63.43786768238863L416.608012,346.3273539798051L417.1307453333333,33.54929885526951L418.6989453333333,407.5440559374507L419.744412,87.28348910589523L420.7898786666666,102.81529854585455L421.8353453333333,119.5774722915391L422.880812,710.4396128418986L423.92627866666663,-6.766033367624459L424.449012,144.1143239454506L424.97174533333333,81.38473325294461L426.5399453333333,356.8425188323542L428.63087866666666,167.95990385983401L429.153612,507.2429281213345L430.19907866666665,13.631613287741516L430.72181199999994,-162.12724562546737L431.76727866666664,108.84001581018316L433.858212,-86.0672487354534L440.131012,-140.69667980700444L440.65374533333335,13.631613287741516L441.699212,-240.39553201987815L442.2219453333333,13.631613287741516L442.74467866666663,35.06223695745098L443.267412,133.04934347586354L443.7901453333333,576.5089189525991L444.3128786666667,-129.48511371764727L445.3583453333333,35.06223695745098L445.8810786666666,1032.7490921923618L448.4947453333333,623.5467582682038L449.540212,133.04934347586354L450.5856786666667,123.71672684221545L452.1538786666666,235.71302256371015L453.1993453333333,110.47567126039502L453.7220786666667,446.02620619267867L454.24481199999997,-192.01314157249112L455.813012,183.4917712443886L456.33574533333336,370.1729139932516L456.8584786666666,233.29800780208947L457.38121199999995,74.11898386935371L457.9039453333333,191.1521779765362L458.949412,36.82387226852069L459.47214533333334,-116.85109917186298L459.99487866666664,257.1436378892551L461.0403453333333,155.03656721797688L461.5630786666666,356.8425188323542L462.085812,-54.12147223353304L462.6085453333333,843.8665238889382L463.1312786666666,298.4426649706203L463.65401199999997,237.68387058834915L464.69947866666666,689.5381845455377L465.222212,466.92761346692396L466.79041199999995,13.631613287741516L468.88134533333334,167.95990385983401L470.44954533333333,424.5956403742158L470.9722786666667,487.3252326433802L471.49501200000003,346.3273539798051L472.5404786666666,-71.08521498871181L473.06321199999996,221.118541530803L473.5859453333333,155.03656721797688L474.10867866666666,924.5429629520871L475.1541453333333,1187.0773852871077L475.67687866666665,217.76615733715252L476.199612,-22.393482019605074L478.2905453333333,63.43786768238863L480.3814786666667,33.54929885526951L480.90421200000003,380.0347005568564L481.9496786666666,36.82387226852069L482.47241199999996,-99.39765335630295L482.9951453333333,176.46715525299354L483.51787866666666,427.00380145179975L484.04061199999995,623.5467582682038L484.5633453333333,332.9969379719757L486.13154533333335,-140.69667980700444L486.6542786666667,507.2429281213345L487.17701199999993,324.8967599566696L489.7906786666667,50.440163810408194L490.8361453333333,55.9635806802213L491.35887866666667,81.38473325294461L491.88161199999996,230.26959015654856L492.4043453333333,367.22869748696417L493.44981199999995,-60.02022813058619L495.018012,123.71672684221545L495.54074533333335,367.22869748696417L497.1089453333333,-77.96708765912138L497.63167866666663,375.4468665791656L498.154412,-116.85109917186298L499.1998786666666,257.1436378892551L500.2453453333333,144.1143239454506L501.81354533333337,-54.12147223353304L502.3362786666666,654.9839429722451L503.3817453333333,324.8967599566696L504.94994533333335,237.68387058834915L505.47267866666664,133.04934347586354L505.995412,38.901015799144886L507.04087866666663,123.71672684221545L507.563612,167.95990385983401L508.0863453333333,102.81529854585455L509.13181199999997,237.68387058834915L509.6545453333333,302.9094772252256L510.17727866666667,-140.69667980700444L512.268212,974.3492387510701L512.7909453333333,13.631613287741516L514.8818786666666,-140.69667980700444L515.4046119999999,59.397531106278734L516.4500786666666,13.631613287741516L517.4955453333333,176.46715525299354L518.541012,102.81529854585455L519.0637453333334,197.36849774089944L519.5864786666667,87.28348910589523L520.109212,-77.96708765912138L520.6319453333333,-150.71410009715964L521.1546786666667,96.27892565499207L522.2001453333334,53.00908761511465L523.2456119999999,133.04934347586354L524.2910786666666,155.03656721797688L525.8592786666667,144.1143239454506L526.9047453333333,-93.65891767259745L527.4274786666666,32.23592193341676L527.950212,356.8425188323542L530.0411453333332,-116.85109917186298L531.6093453333333,-54.12147223353304L532.654812,144.1143239454506L534.223012,13.631613287741516L535.2684786666666,623.5467582682038L535.791212,-49.09797830571216L536.3139453333333,133.04934347586354L537.8821453333334,-140.69667980700444L539.4503453333333,110.47567126039502L539.9730786666667,197.36849774089944L541.0185453333333,308.460085372069L542.0640119999999,-352.1528978754834L543.1094786666666,213.7257729070611L545.7231453333333,298.4426649706203L546.768612,-79.47995787834861L547.2913453333333,-55.50569598480945L547.8140786666667,367.22869748696417L548.336812,59.397531106278734L549.905012,-49.09797830571216L554.609612,464.63054090577765L555.1323453333333,102.81529854585455L555.6550786666667,706.3003582912222L556.177812,183.4917712443886L558.2687453333333,13.631613287741516L559.314212,278.044980835825L559.8369453333332,257.1436378892551L561.4051453333333,257.1436378892551L561.9278786666666,864.7678668355081L562.450612,36.82387226852069L562.9733453333333,639.7319736147978L563.4960786666667,-34.750819121437985L564.5415453333334,59.397531106278734L565.0642786666667,-44.76823931266563L565.587012,13.631613287741516L566.1097453333333,257.1436378892551L567.155212,110.47567126039502L568.7234119999999,402.60837778896604L569.7688786666666,-190.50295140156436L570.291612,63.43786768238863L571.3370786666667,-6.766033367624459L571.8598119999999,346.3273539798051L573.428012,55.9635806802213L573.9507453333333,-30.929289902623736L575.5189453333332,-140.69667980700444L579.1780786666667,72.03146552776951L579.700812,13.631613287741516L580.2235453333334,183.4917712443886L580.7462786666666,-60.02022813058619L581.269012,59.397531106278734L581.7917453333333,337.820076952404L582.3144786666667,144.1143239454506L583.3599453333334,87.28348910589523L583.8826786666666,332.9969379719757L584.405412,257.1436378892551L585.973612,102.81529854585455L586.4963453333334,183.4917712443886L587.0190786666666,551.9720668782452L591.7236786666666,-186.4625354443349L592.246412,191.1521779765362L592.7691453333333,13.631613287741516L593.814612,167.95990385983401L595.9055453333333,257.1436378892551L597.4737453333333,134.76105628957913L599.0419453333333,-71.08521498871181L601.1328786666667,-180.69442273999778L602.7010786666666,55.9635806802213L603.223812,-34.750819121437985L603.7465453333333,191.1521779765362L604.792012,87.28348910589523L605.3147453333332,115.73870900915114L605.8374786666666,308.460085372069L606.8829453333333,133.04934347586354L607.4056786666666,239.32272496631188L607.928412,-140.69667980700444L608.4511453333333,473.78158953152314L608.9738786666667,375.4468665791656L610.0193453333334,208.7611564284727L610.5420786666667,370.1729139932516L611.5875453333333,157.44475063952132L612.633012,123.71672684221545L613.1557453333334,-305.0423954177767L614.2012119999999,-240.39553201987815L615.2466786666666,197.36849774089944L615.769412,155.03656721797688L616.2921453333333,-30.929289902623736L618.905812,-140.69667980700444L619.4285453333333,332.9969379719757L620.9967453333333,493.0639683270856L621.5194786666666,55.9635806802213L625.7013453333334,217.76615733715252L627.2695453333333,966.7575865565395L627.7922786666667,123.71672684221545L628.8377453333334,276.1660597026404L629.8832120000001,233.29800780208947L630.4059453333333,487.3252326433802L631.9741453333332,144.1143239454506L632.4968786666667,217.76615733715252L633.5423453333333,-180.69442273999778L634.0650786666666,-199.09653324829617L634.587812,308.460085372069L635.1105453333333,176.46715525299354L636.6787453333333,41.38700923985539L640.860612,94.30807757742934L641.3833453333334,280.33581978894154L641.9060786666666,213.7257729070611L642.9515453333333,-129.48511371764727L643.997012,53.00908761511465L644.5197453333333,81.38473325294461L645.0424786666667,115.73870900915114L646.0879453333332,257.1436378892551L647.1334119999999,257.1436378892551L647.6561453333334,283.1906584941223L648.1788786666666,280.33581978894154L649.7470786666667,-153.8203750072911L650.7925453333332,-219.4941885127189L653.406212,257.1436378892551L654.4516786666667,298.4426649706203L654.9744119999999,-44.76823931266563L656.0198786666666,144.1143239454506L656.5426120000001,-162.12724562546737L657.5880786666665,197.36849774089944L660.7244786666666,-261.82612604301346L661.2472119999999,13.631613287741516L662.2926786666666,-290.20179900959386L663.3381453333333,102.81529854585455L665.4290786666667,164.0319962990774L666.4745453333333,-71.08521498871181L667.520012,421.48935381800885L668.5654786666666,189.39048056936957L669.6109453333333,407.5440559374507L670.656412,822.4359085633932L671.1791453333333,213.7257729070611L671.7018786666667,202.51417528453098L672.224612,257.1436378892551L672.7473453333332,144.1143239454506L674.8382786666666,63.43786768238863L675.8837453333333,134.76105628957913L676.4064786666665,35.06223695745098L679.5428786666666,63.43786768238863L680.5883453333333,-116.85109917186298L681.6338119999999,35.06223695745098L682.1565453333333,380.0347005568564L682.6792786666666,-86.0672487354534L685.8156786666667,213.7257729070611L687.3838786666666,13.631613287741516L688.4293453333333,-92.31424690318704L692.0884786666667,668.1076192526277L693.1339453333334,257.1436378892551L693.6566786666666,32.23592193341676L694.179412,-6.766033367624459L695.747612,-65.16590578888355L696.2703453333332,278.044980835825L697.3158119999999,-5.390791172842739L697.8385453333333,466.92761346692396L698.3612786666666,55.9635806802213L699.9294786666667,144.1143239454506L700.4522119999999,59.397531106278734L701.4976786666666,750.7548822987605L705.6795453333332,237.68387058834915L706.2022786666666,-162.12724562546737L706.7250119999999,13.631613287741516L707.2477453333333,81.38473325294461L708.8159453333333,87.28348910589523L709.3386786666666,579.9568526320587L709.861412,33.54929885526951L711.429612,-102.50393989518375L711.9523453333333,-184.11450821071696L712.4750786666666,102.81529854585455L714.0432786666667,110.47567126039502L720.3160786666666,337.820076952404L721.8842786666665,-150.71410009715964L722.9297453333332,235.71302256371015L723.4524786666667,155.03656721797688L724.4979453333333,191.1521779765362L725.0206786666666,-34.750819121437985L725.543412,68.26105697256207L726.5888786666667,-127.77335440242388L728.1570786666666,-40.997800440564106L728.679812,59.397531106278734L729.2025453333333,-107.49783126649834L729.7252786666667,123.71672684221545L730.248012,213.7257729070611L730.7707453333333,298.4426649706203L731.2934786666667,235.71302256371015L731.816212,-8.355644324969376L732.8616786666666,-140.69667980700444L733.9071453333333,167.95990385983401L734.4298786666666,13.631613287741516L735.4753453333333,35.06223695745098L736.520812,233.29800780208947L737.5662786666667,-65.16590578888355L739.1344786666666,424.5956403742158L739.657212,235.71302256371015L740.1799453333333,537.624907693971L742.2708786666666,134.76105628957913L744.8845453333332,110.47567126039502L745.4072786666667,-86.0672487354534L746.4527453333334,-60.02022813058619L746.9754786666666,176.46715525299354L747.4982120000001,278.044980835825L749.066412,144.1143239454506L749.5891453333332,-6.766033367624459L751.1573453333332,-39.28945504983233L752.7255453333333,133.04934347586354L754.2937453333333,13.631613287741516L755.339212,235.71302256371015L756.3846786666667,63.43786768238863L756.907412,559.05550932511L757.9528786666666,76.36120446537313L758.475612,628.1098952395386L760.0438119999999,36.82387226852069L760.5665453333334,-265.26005956626784L761.0892786666666,13.631613287741516L762.1347453333333,81.38473325294461L762.6574786666667,13.631613287741516L763.180212,110.47567126039502L764.2256786666667,-184.11450821071696L764.7484119999999,-73.70991985697759L765.2711453333334,302.9094772252256L765.7938786666666,13.631613287741516L766.3166119999999,646.1204171059619L766.8393453333333,217.76615733715252L769.453012,144.1143239454506L769.9757453333333,402.60837778896604L773.1121453333333,-129.48511371764727L773.6348786666666,257.1436378892551L774.6803453333333,919.7198239716588L776.7712786666667,133.04934347586354L777.8167453333334,144.1143239454506L778.8622119999999,-30.929289902623736L779.9076786666666,482.83469140663857L780.430412,286.84712980475865L780.9531453333333,183.4917712443886L781.4758786666665,332.9969379719757L782.5213453333332,123.71672684221545L784.0895453333333,-129.48511371764727L784.6122786666666,171.56960629477763L785.6577453333333,-281.19678775419993L786.1804786666667,68.26105697256207L786.703212,35.06223695745098L787.7486786666666,33.54929885526951L789.839612,-153.8203750072911L790.8850786666667,76.36120446537313L791.4078119999999,76.36120446537313L792.4532786666666,13.631613287741516L792.9760120000001,96.27892565499207L794.544212,-129.48511371764727L795.0669453333333,59.397531106278734L797.6806119999999,217.76615733715252L798.2033453333333,276.1660597026404L798.7260786666666,133.04934347586354L799.2488119999999,13.631613287741516L800.2942786666666,53.00908761511465L801.3397453333333,278.044980835825L801.8624786666667,191.1521779765362L802.385212,87.28348910589523L802.9079453333333,-65.16590578888355L803.4306786666666,280.33581978894154L803.953412,-102.50393989518375L805.5216119999999,217.76615733715252L807.089812,-283.8134087744577L808.1352786666667,257.1436378892551L809.1807453333332,197.36849774089944L809.7034786666667,-8.355644324969376L810.2262119999999,257.1436378892551L810.7489453333334,-79.47995787834861L816.499012,576.5089189525991L817.0217453333333,13.631613287741516L818.5899453333333,36.82387226852069L819.1126786666666,-149.65404661604657L821.203612,-44.76823931266563L822.771812,176.46715525299354L823.2945453333332,500.65563726422977L823.8172786666667,115.73870900915114L824.8627453333334,155.03656721797688L825.3854786666666,32.23592193341676L825.908212,183.4917712443886L827.476412,-24.850512301536867L828.5218786666667,110.47567126039502L829.0446119999999,-329.579248110428L831.1355453333333,-79.47995787834861L832.181012,59.397531106278734L832.7037453333334,-10.213967047084054L834.2719453333333,-283.8134087744577L836.8856119999999,87.28348910589523L843.1584119999999,36.82387226852069L843.6811453333333,-86.0672487354534L844.2038786666666,-184.11450821071696L844.7266119999999,102.81529854585455L846.8175453333333,235.71302256371015L848.3857453333333,551.9720668782452L850.9994119999999,-107.49783126649834L851.5221453333334,164.0319962990774L852.567612,76.36120446537313L853.6130786666665,302.9094772252256L854.135812,13.631613287741516L854.6585453333332,237.68387058834915L855.7040119999999,-175.25092222118087L856.2267453333334,298.4426649706203L856.7494786666666,-60.02022813058619L857.7949453333333,119.5774722915391L858.840412,-268.3625659135712L865.113212,-224.94471122114953L865.6359453333333,343.29886626054497L866.1586786666666,208.7611564284727L868.249612,407.5440559374507L870.8632786666666,-5.390791172842739L871.386012,257.1436378892551L873.4769453333332,-129.48511371764727L875.5678786666666,-159.71908454788343L877.1360786666667,35.06223695745098L878.7042786666666,-5.390791172842739L879.227012,278.044980835825L879.7497453333333,38.901015799144886L881.3179453333332,-39.28945504983233L881.8406786666667,217.76615733715252L883.4088786666666,33.54929885526951L883.9316119999999,257.1436378892551L884.4543453333333,213.7257729070611L884.9770786666666,76.36120446537313L885.499812,36.82387226852069L889.1589453333333,-60.02022813058619L889.6816786666666,115.73870900915114L890.2044119999999,658.7543515274526L890.7271453333333,-258.0046051949963L891.772612,294.77036536699717L892.2953453333333,257.1436378892551L892.8180786666666,164.0319962990774L893.340812,487.3252326433802L893.8635453333333,173.81784063701863L894.3862786666666,-107.49783126649834L894.909012,153.3654301361554L895.4317453333333,59.397531106278734L895.9544786666667,102.81529854585455L897.5226786666666,-6.766033367624459L898.5681453333333,197.36849774089944L901.1818119999999,155.03656721797688L901.7045453333333,102.81529854585455L902.2272786666666,424.5956403742158L903.2727453333333,59.397531106278734L906.9318786666666,235.71302256371015L907.9773453333332,-102.50393989518375L910.591012,337.820076952404L911.1137453333333,221.118541530803L913.2046786666667,537.624907693971L914.2501453333332,446.02620619267867L914.7728786666667,176.46715525299354L915.8183453333334,41.38700923985539L916.3410786666666,38.901015799144886L917.3865453333333,-49.09797830571216L917.9092786666666,167.95990385983401L921.0456786666666,221.118541530803L921.568412,197.36849774089944L922.0911453333333,-175.25092222118087L925.2275453333333,-99.39765335630295L929.9321453333333,119.5774722915391L930.4548786666666,63.43786768238863L932.0230786666666,639.7319736147978L934.1140119999999,396.2199345981188L935.1594786666666,278.044980835825L936.2049453333333,119.5774722915391L937.250412,280.33581978894154L937.7731453333333,13.631613287741516L938.2958786666666,36.82387226852069L939.3413453333333,-140.69667980700444L939.8640786666667,559.05550932511L940.9095453333332,13.631613287741516L941.9550119999999,-93.65891767259745L942.4777453333334,13.631613287741516L943.5232120000001,-103.88819459304455L944.0459453333333,-206.6881854428267L946.1368786666667,81.38473325294461L946.6596119999999,202.51417528453098L947.7050786666666,13.631613287741516L948.227812,-30.929289902623736L948.7505453333333,646.1204171059619L949.2732786666666,164.0319962990774L950.3187453333333,1074.0481186430634L950.8414786666666,230.26959015654856L951.364212,402.60837778896604L951.8869453333333,176.46715525299354L953.9778786666667,302.9094772252256L955.0233453333334,217.76615733715252L955.5460786666666,257.1436378892551L956.0688119999999,-24.850512301536867L957.1142786666666,13.631613287741516L958.1597453333333,843.8665238889382L959.205212,446.02620619267867L960.2506786666667,176.46715525299354L960.7734119999999,237.68387058834915L961.2961453333334,559.05550932511L963.909812,469.8717868278202L964.4325453333332,217.76615733715252L964.9552786666667,777.8750639762193L966.0007453333333,518.1090760223652L966.5234786666666,202.51417528453098L968.0916786666667,446.02620619267867L968.6144119999999,183.4917712443886L969.6598786666666,257.1436378892551L970.1826120000001,176.46715525299354L971.750812,446.02620619267867L972.2735453333332,280.33581978894154L972.7962786666667,36.82387226852069L973.3190119999999,324.8967599566696L973.8417453333334,257.1436378892551L974.8872119999999,356.8425188323542L976.9781453333333,36.82387226852069L978.023612,576.5089189525991L978.5463453333333,-54.12147223353304L979.0690786666667,96.27892565499207L980.6372786666666,144.1143239454506L981.1600119999999,367.22869748696417L982.2054786666666,302.9094772252256L984.296412,302.9094772252256L984.8191453333333,343.29886626054497L985.3418786666667,600.3544992874247L985.864612,96.27892565499207L986.9100786666667,380.0347005568564L987.9555453333334,36.82387226852069L989.0010120000001,730.8372099451337L989.5237453333333,-129.48511371764727L990.569212,155.03656721797688L991.0919453333332,191.1521779765362L991.6146786666667,332.9969379719757L992.1374119999999,343.29886626054497L993.1828786666666,-107.49783126649834L994.7510786666666,115.73870900915114L995.2738119999999,208.7611564284727L995.7965453333333,33.54929885526951L996.3192786666666,36.82387226852069L996.842012,294.77036536699717L998.410212,-30.929289902623736L998.9329453333332,-12.415407317125698L1001.0238786666666,76.36120446537313L1001.5466119999999,155.03656721797688L1002.5920786666666,157.44475063952132L1003.114812,493.0639683270856L1003.6375453333333,81.38473325294461L1005.7284786666667,356.8425188323542L1007.2966786666666,-71.08521498871181L1008.3421453333333,623.5467582682038L1009.9103453333332,102.81529854585455L1010.4330786666666,233.29800780208947L1010.9558119999999,332.9969379719757L1011.4785453333333,466.92761346692396L1012.0012786666666,658.7543515274526L1013.0467453333333,237.68387058834915L1013.5694786666667,446.02620619267867L1015.6604120000001,500.65563726422977L1016.1831453333333,298.4426649706203L1017.228612,-208.44980122758466L1017.7513453333332,13.631613287741516L1018.2740786666667,189.39048056936957L1019.8422786666666,367.22869748696417L1020.8877453333333,446.02620619267867L1021.4104786666666,280.33581978894154L1021.933212,356.8425188323542L1022.4559453333333,466.92761346692396L1022.9786786666666,356.8425188323542L1026.1150786666667,81.38473325294461L1026.637812,110.47567126039502L1028.206012,1576.0541497883323L1030.8196786666667,337.820076952404L1032.910612,446.02620619267867L1033.9560786666666,278.044980835825L1035.0015453333333,487.3252326433802L1036.047012,144.1143239454506L1036.5697453333332,155.03656721797688L1037.0924786666667,257.1436378892551L1037.615212,-73.70991985697759L1039.7061453333333,110.47567126039502L1040.2288786666666,-86.0672487354534L1040.7516119999998,302.9094772252256L1041.7970786666665,176.46715525299354L1042.319812,346.3273539798051L1042.8425453333332,-162.12724562546737L1045.9789453333333,576.5089189525991L1047.024412,337.820076952404L1048.0698786666667,176.46715525299354L1048.592612,446.02620619267867L1049.6380786666666,324.8967599566696L1051.729012,235.71302256371015L1052.7744786666667,144.1143239454506L1053.297212,-107.49783126649834L1054.865412,-77.96708765912138L1056.433612,123.71672684221545L1058.5245453333332,427.00380145179975L1059.570012,183.4917712443886L1060.0927453333334,191.1521779765362L1061.6609453333333,176.46715525299354L1063.7518786666667,63.43786768238863L1064.274612,396.2199345981188L1064.7973453333332,324.8967599566696L1065.3200786666666,38.901015799144886L1066.8882786666666,966.7575865565395L1067.411012,102.81529854585455L1067.9337453333333,623.5467582682038L1068.979212,134.76105628957913L1069.5019453333332,-171.11173837901015L1071.0701453333331,424.5956403742158L1071.5928786666666,76.36120446537313L1073.1610786666665,294.77036536699717L1073.683812,257.1436378892551L1074.7292786666667,191.1521779765362L1075.7747453333332,110.47567126039502L1076.2974786666666,-27.667376674573006L1076.8202119999999,-71.08521498871181L1078.9111453333333,280.33581978894154L1080.4793453333334,197.36849774089944L1081.0020786666666,493.0639683270856L1081.524812,332.9969379719757L1082.0475453333333,110.47567126039502L1083.6157453333333,102.81529854585455L1085.1839453333334,36.82387226852069L1085.7066786666667,370.1729139932516L1086.229412,356.8425188323542L1086.7521453333334,133.04934347586354L1087.2748786666666,393.6510109135383L1093.5476786666666,600.3544992874247L1094.070412,217.76615733715252L1094.5931453333333,133.04934347586354L1095.1158786666665,668.1076192526277L1095.638612,424.5956403742158L1096.6840786666667,233.29800780208947L1097.206812,-240.39553201987815L1099.2977453333333,155.03656721797688L1100.8659453333332,13.631613287741516L1101.3886786666665,283.1906584941223L1102.9568786666666,87.28348910589523L1103.4796119999999,235.71302256371015L1104.0023453333333,102.81529854585455L1104.5250786666666,-4.18924970767597L1106.0932786666665,-8.355644324969376L1106.616012,123.71672684221545L1107.1387453333332,-162.12724562546737L1107.6614786666667,278.044980835825L1108.184212,-65.16590578888355L1110.2751453333333,318.360320086112L1110.7978786666667,13.631613287741516L1111.320612,87.28348910589523L1112.888812,446.02620619267867L1114.457012,-24.850512301536867L1114.9797453333333,102.81529854585455L1116.025212,-49.09797830571216M1118.6388786666666,217.76615733715252L1120.2070786666666,233.29800780208947L1121.2525453333333,155.03656721797688L1122.298012,96.27892565499207L1122.8207453333332,-65.16590578888355" style="fill: none;" fill="none"></path></g></g></g></g></g></g><g transform="translate(34, 377)" clip-path="url(#clip_1)"><clipPath id="clip_1"><rect width="1254" height="23"></rect></clipPath><g><g><line x1="0" y1="0" x2="0" y2="5" style="visibility: inherit;" fill="rgb(0, 0, 0)" stroke="rgb(204, 204, 204)" stroke-width="1px"></line><line x1="104.54666666666665" y1="0" x2="104.54666666666665" y2="5" style="visibility: inherit;" fill="rgb(0, 0, 0)" stroke="rgb(204, 204, 204)" stroke-width="1px"></line><line x1="209.0933333333333" y1="0" x2="209.0933333333333" y2="5" style="visibility: inherit;" fill="rgb(0, 0, 0)" stroke="rgb(204, 204, 204)" stroke-width="1px"></line><line x1="313.64" y1="0" x2="313.64" y2="5" style="visibility: inherit;" fill="rgb(0, 0, 0)" stroke="rgb(204, 204, 204)" stroke-width="1px"></line><line x1="418.1866666666666" y1="0" x2="418.1866666666666" y2="5" style="visibility: inherit;" fill="rgb(0, 0, 0)" stroke="rgb(204, 204, 204)" stroke-width="1px"></line><line x1="522.7333333333333" y1="0" x2="522.7333333333333" y2="5" style="visibility: inherit;" fill="rgb(0, 0, 0)" stroke="rgb(204, 204, 204)" stroke-width="1px"></line><line x1="627.28" y1="0" x2="627.28" y2="5" style="visibility: inherit;" fill="rgb(0, 0, 0)" stroke="rgb(204, 204, 204)" stroke-width="1px"></line><line x1="731.8266666666667" y1="0" x2="731.8266666666667" y2="5" style="visibility: inherit;" fill="rgb(0, 0, 0)" stroke="rgb(204, 204, 204)" stroke-width="1px"></line><line x1="836.3733333333332" y1="0" x2="836.3733333333332" y2="5" style="visibility: inherit;" fill="rgb(0, 0, 0)" stroke="rgb(204, 204, 204)" stroke-width="1px"></line><line x1="940.92" y1="0" x2="940.92" y2="5" style="visibility: inherit;" fill="rgb(0, 0, 0)" stroke="rgb(204, 204, 204)" stroke-width="1px"></line><line x1="1045.4666666666667" y1="0" x2="1045.4666666666667" y2="5" style="visibility: inherit;" fill="rgb(0, 0, 0)" stroke="rgb(204, 204, 204)" stroke-width="1px"></line><line x1="1150.0133333333333" y1="0" x2="1150.0133333333333" y2="5" style="visibility: inherit;" fill="rgb(0, 0, 0)" stroke="rgb(204, 204, 204)" stroke-width="1px"></line><line x1="1254.56" y1="0" x2="1254.56" y2="5" style="visibility: inherit;" fill="rgb(0, 0, 0)" stroke="rgb(204, 204, 204)" stroke-width="1px"></line></g><g transform="translate(0, 8)"><text x="0" y="0" dx="0em" dy="0.95em" style="text-anchor: middle; visibility: hidden; font-family: &quot;Helvetica Neue&quot;, sans-serif; font-size: 12px; font-weight: 200;" fill="rgb(50, 49, 63)" stroke="none" stroke-width="1px">-10k</text><text x="104.54666666666665" y="0" dx="0em" dy="0.95em" style="text-anchor: middle; visibility: inherit; font-family: &quot;Helvetica Neue&quot;, sans-serif; font-size: 12px; font-weight: 200;" fill="rgb(50, 49, 63)" stroke="none" stroke-width="1px">0</text><text x="209.0933333333333" y="0" dx="0em" dy="0.95em" style="text-anchor: middle; visibility: inherit; font-family: &quot;Helvetica Neue&quot;, sans-serif; font-size: 12px; font-weight: 200;" fill="rgb(50, 49, 63)" stroke="none" stroke-width="1px">10k</text><text x="313.64" y="0" dx="0em" dy="0.95em" style="text-anchor: middle; visibility: inherit; font-family: &quot;Helvetica Neue&quot;, sans-serif; font-size: 12px; font-weight: 200;" fill="rgb(50, 49, 63)" stroke="none" stroke-width="1px">20k</text><text x="418.1866666666666" y="0" dx="0em" dy="0.95em" style="text-anchor: middle; visibility: inherit; font-family: &quot;Helvetica Neue&quot;, sans-serif; font-size: 12px; font-weight: 200;" fill="rgb(50, 49, 63)" stroke="none" stroke-width="1px">30k</text><text x="522.7333333333333" y="0" dx="0em" dy="0.95em" style="text-anchor: middle; visibility: inherit; font-family: &quot;Helvetica Neue&quot;, sans-serif; font-size: 12px; font-weight: 200;" fill="rgb(50, 49, 63)" stroke="none" stroke-width="1px">40k</text><text x="627.28" y="0" dx="0em" dy="0.95em" style="text-anchor: middle; visibility: inherit; font-family: &quot;Helvetica Neue&quot;, sans-serif; font-size: 12px; font-weight: 200;" fill="rgb(50, 49, 63)" stroke="none" stroke-width="1px">50k</text><text x="731.8266666666667" y="0" dx="0em" dy="0.95em" style="text-anchor: middle; visibility: inherit; font-family: &quot;Helvetica Neue&quot;, sans-serif; font-size: 12px; font-weight: 200;" fill="rgb(50, 49, 63)" stroke="none" stroke-width="1px">60k</text><text x="836.3733333333332" y="0" dx="0em" dy="0.95em" style="text-anchor: middle; visibility: inherit; font-family: &quot;Helvetica Neue&quot;, sans-serif; font-size: 12px; font-weight: 200;" fill="rgb(50, 49, 63)" stroke="none" stroke-width="1px">70k</text><text x="940.92" y="0" dx="0em" dy="0.95em" style="text-anchor: middle; visibility: inherit; font-family: &quot;Helvetica Neue&quot;, sans-serif; font-size: 12px; font-weight: 200;" fill="rgb(50, 49, 63)" stroke="none" stroke-width="1px">80k</text><text x="1045.4666666666667" y="0" dx="0em" dy="0.95em" style="text-anchor: middle; visibility: inherit; font-family: &quot;Helvetica Neue&quot;, sans-serif; font-size: 12px; font-weight: 200;" fill="rgb(50, 49, 63)" stroke="none" stroke-width="1px">90k</text><text x="1150.0133333333333" y="0" dx="0em" dy="0.95em" style="text-anchor: middle; visibility: inherit; font-family: &quot;Helvetica Neue&quot;, sans-serif; font-size: 12px; font-weight: 200;" fill="rgb(50, 49, 63)" stroke="none" stroke-width="1px">100k</text><text x="1254.56" y="0" dx="0em" dy="0.95em" style="text-anchor: middle; visibility: hidden; font-family: &quot;Helvetica Neue&quot;, sans-serif; font-size: 12px; font-weight: 200;" fill="rgb(50, 49, 63)" stroke="none" stroke-width="1px">110k</text></g><line x1="0" y1="0" x2="1254.56" y2="0" fill="rgb(0, 0, 0)" stroke="rgb(204, 204, 204)" stroke-width="1px"></line></g></g></g></g></svg>