<svg viewBox="0 0 1288.5555419921875 400" xmlns="http://www.w3.org/2000/svg"><g><g><g><g><line x1="10" y1="0" x2="10" y2="377" fill="rgb(0, 0, 0)" stroke="rgb(204, 204, 204)" stroke-width="1px"></line></g></g><g transform="translate(10, 0)" clip-path="url(#clip_0)"><clipPath id="clip_0"><rect width="1278" height="377"></rect></clipPath><g><g><g><line x1="0" y1="0" x2="0" y2="377" fill="rgb(0, 0, 0)" stroke="rgb(60, 60, 60)" stroke-width="1px" opacity="0.25"></line><line x1="106.54666666666665" y1="0" x2="106.54666666666665" y2="377" fill="rgb(0, 0, 0)" stroke="rgb(60, 60, 60)" stroke-width="1px" opacity="0.25"></line><line x1="213.0933333333333" y1="0" x2="213.0933333333333" y2="377" fill="rgb(0, 0, 0)" stroke="rgb(60, 60, 60)" stroke-width="1px" opacity="0.25"></line><line x1="319.64" y1="0" x2="319.64" y2="377" fill="rgb(0, 0, 0)" stroke="rgb(60, 60, 60)" stroke-width="1px" opacity="0.25"></line><line x1="426.1866666666666" y1="0" x2="426.1866666666666" y2="377" fill="rgb(0, 0, 0)" stroke="rgb(60, 60, 60)" stroke-width="1px" opacity="0.25"></line><line x1="532.7333333333333" y1="0" x2="532.7333333333333" y2="377" fill="rgb(0, 0, 0)" stroke="rgb(60, 60, 60)" stroke-width="1px" opacity="0.25"></line><line x1="639.28" y1="0" x2="639.28" y2="377" fill="rgb(0, 0, 0)" stroke="rgb(60, 60, 60)" stroke-width="1px" opacity="0.25"></line><line x1="745.8266666666667" y1="0" x2="745.8266666666667" y2="377" fill="rgb(0, 0, 0)" stroke="rgb(60, 60, 60)" stroke-width="1px" opacity="0.25"></line><line x1="852.3733333333332" y1="0" x2="852.3733333333332" y2="377" fill="rgb(0, 0, 0)" stroke="rgb(60, 60, 60)" stroke-width="1px" opacity="0.25"></line><line x1="958.92" y1="0" x2="958.92" y2="377" fill="rgb(0, 0, 0)" stroke="rgb(60, 60, 60)" stroke-width="1px" opacity="0.25"></line><line x1="1065.4666666666667" y1="0" x2="1065.4666666666667" y2="377" fill="rgb(0, 0, 0)" stroke="rgb(60, 60, 60)" stroke-width="1px" opacity="0.25"></line><line x1="1172.0133333333333" y1="0" x2="1172.0133333333333" y2="377" fill="rgb(0, 0, 0)" stroke="rgb(60, 60, 60)" stroke-width="1px" opacity="0.25"></line><line x1="1278.56" y1="0" x2="1278.56" y2="377" fill="rgb(0, 0, 0)" stroke="rgb(60, 60, 60)" stroke-width="1px" opacity="0.25"></line></g></g></g><g><g><line x1="106.54666666666665" y1="0" x2="106.54666666666665" y2="377" fill="rgb(0, 0, 0)" stroke="rgb(153, 153, 153)" stroke-width="1.5px"></line></g></g><g><g><g><g><g><path stroke="rgb(0, 119, 187)" stroke-width="2px" d="M129.44354533333333,-5.726234132135346L130.50901199999998,9.60069473466956L131.04174533333332,14.322866254264966L132.107212,-4.109929866543666L133.17267866666666,8.751612064477001L133.705412,18.61994734766563L135.303612,21.67154050238264L135.83634533333333,28.58696488886727L136.36907866666667,7.979241533627317L136.901812,12.740419004897717L137.43454533333332,7.147548946230074L139.03274533333334,25.234889775597026L139.56547866666665,36.29625802683205L140.63094533333333,33.6282744058463L141.696412,23.769941667729825L142.22914533333332,30.6020070081683L142.76187866666666,34.404727459419746L143.29461199999997,37.1719419794411L144.892812,27.500202826686063L145.42554533333333,16.64777792420199L145.95827866666667,24.140640351249147L146.49101199999998,27.960876534262752L147.55647866666666,38.1089916169862L149.15467866666665,38.55311805971138L151.81834533333333,37.14397442713903L152.35107866666667,28.14077300187796L152.883812,9.77601106122529L153.41654533333332,10.944028198624721L153.94927866666666,30.508860198997354L154.482012,36.75977145501838L157.14567866666664,43.61935671513504L161.40754533333333,51.72371645528153L163.00574533333332,63.43194634399515L163.53847866666666,53.78892772290135L167.26761199999999,60.16275512357919L168.86581199999998,54.367698829693325L169.93127866666666,65.55475008457177L170.464012,74.94452785535543L170.99674533333334,79.29986216691339L173.12767866666664,91.60933218579135L173.660412,89.34199726369764L174.19314533333335,95.97771164302168L175.79134533333334,78.37210480938535L176.32407866666665,84.0665405112083L177.92227866666664,81.59980206268176L180.053212,77.6737660011421L181.11867866666665,79.9212066494539L182.1841453333333,84.64930451526448L182.71687866666664,68.80839317628164L183.249612,77.13044785439922L183.78234533333332,68.41869555189993L184.847812,82.05816932376752L185.91327866666666,70.2818627998725L186.9787453333333,72.22081336099296L188.57694533333333,67.16200561504286L189.10967866666667,48.92580144878883L189.642412,61.33078376749836L190.70787866666666,67.76972914080272L191.240612,66.12534425642963L191.7733453333333,77.21668497045397L193.37154533333333,76.09280500844937L194.43701199999998,75.44810729950001L194.96974533333332,77.7568831978781L196.03521199999997,86.24622790848525L196.5679453333333,97.84133912866986L198.16614533333333,110.20511552573072L200.82981199999998,125.95615236580133L201.36254533333332,127.10365383107194L201.89527866666668,133.1245862750393L202.96074533333334,133.76737653974328L203.49347866666668,124.99354993194814L204.55894533333333,134.5616942637481L205.62441199999998,134.28406754666923L206.15714533333332,133.9544447797568L206.68987866666663,131.97160230048652L207.222612,138.05448679213524L208.28807866666665,143.99500697968193L208.820812,141.21571950026618L212.54994533333334,154.87660133184042L214.68087866666664,161.3315772742277L216.811812,156.16088513333287L217.34454533333334,150.43324647705828L217.87727866666665,126.03742581686049L220.008212,98.76283025229935L220.5409453333333,81.57085563871902L221.606412,101.69815541487151L223.204612,103.96800319071156L223.7373453333333,91.33288330292129L225.3355453333333,115.33852971434919L225.86827866666667,115.42950837868358L226.93374533333332,110.12577118986127L227.46647866666666,123.22690520875716L227.999212,130.10611843274L229.06467866666665,137.91543953825337L229.59741200000002,141.9860137843736L230.1301453333333,146.9681873625899L230.66287866666667,122.12540680403035L231.195612,123.69755148323907L231.72834533333332,137.9208090115885L233.3265453333333,139.90192012006253L234.92474533333333,151.5442317914034L237.05567866666667,153.2824353268082L237.58841199999998,155.287103128431L238.65387866666666,157.14067942196974L239.71934533333334,169.87869594000418L240.25207866666668,166.27958566686436L242.91574533333332,188.1785192062119L244.51394533333334,189.56180360380898L245.04667866666668,184.4679104840071L245.579412,189.31319419548012L246.11214533333333,188.24729231626074L247.17761199999998,171.25599839289512L249.30854533333334,170.1216371296571L250.374012,162.86467772312827L251.43947866666664,148.63101137246457L252.50494533333332,157.01367270034382L255.168612,169.7493600289242L256.2340786666667,185.72840617558288L258.365012,184.00427655956986L261.0286786666667,178.0513014241301L262.0941453333333,174.31943446573118L262.62687866666664,180.93225337513698L264.22507866666666,183.59778827049635L265.2905453333333,189.7628090958392L265.8232786666667,188.66585275590438L266.356012,187.62188663132605L267.42147866666664,190.9238889303609L267.954212,200.43649741863572L268.4869453333333,204.46573122603297L270.6178786666667,208.67045126789003L271.150612,203.86748515266822L272.21607866666665,226.4746283616155L273.81427866666667,211.2486111437458L275.94521199999997,214.64989759115537L276.4779453333333,218.95763717341174L277.01067866666665,223.40730940493387L277.543412,209.2399282328101L278.60887866666667,223.6456546939688L280.2070786666667,223.20209106210532L280.739812,223.92204987288918L281.2725453333333,233.18979110719184L282.87074533333333,210.6829751172958L283.4034786666667,196.52573944438902L284.46894533333335,183.4940916944935L287.66534533333333,187.27920823507523L288.73081199999996,202.20275530675153L290.329012,197.11190110767143L290.8617453333333,174.3541338270031L291.927212,183.77512445794443L292.45994533333334,164.1124440377646L295.123612,162.34936078591323L295.6563453333333,166.23936277221094L296.721812,184.6630194884042L297.7872786666666,164.08551990246522L298.320012,168.52997515518885L298.8527453333333,161.13794112388908L300.4509453333333,149.84409306299517L300.98367866666666,165.1399208931367L301.516412,155.57028663725177L302.5818786666666,167.56001575988563L303.114612,157.04829935063873L304.18007866666665,161.24676478991793L304.712812,166.25076256666895L305.77827866666667,155.38072218621423L306.8437453333333,162.53735495337568L307.909212,175.42112125032926L308.4419453333333,173.99794126508553L308.97467866666665,178.35746101768464L310.0401453333333,193.41371319051066L310.57287866666667,169.55466806326197L312.1710786666667,182.4551526987111L312.70381199999997,187.4284667794173L313.2365453333333,192.95679378448665L313.76927866666665,184.94954330028386L314.83474533333333,189.2942005268945L315.36747866666667,170.08984090346672L315.90021199999995,180.85469894170217L316.4329453333333,185.75049673614936L321.2275453333333,191.6393896789049L321.76027866666664,179.60899401355317L322.8257453333333,188.30150220918836L324.4239453333333,179.22727780877364L328.15307866666666,170.24315687769646L328.685812,181.91307752744189L330.8167453333333,174.8476396345815L331.34947866666664,182.494638748924L331.882212,168.63449539057612L332.94767866666666,185.8260369870866L334.0131453333333,193.2472661443744L336.1440786666667,192.79038328964737L340.93867866666665,205.87248719748735L341.471412,216.19349106813928L342.0041453333333,211.8408820966389L342.53687866666667,203.37886757067383L343.6023453333333,199.97697971770225L344.13507866666663,197.36715443821L345.7332786666666,209.7500703988274L347.33147866666667,210.69719064839904L351.060612,202.4418291102037L351.59334533333333,198.92365106975745L352.1260786666666,200.00010734169234L352.65881199999995,214.08032110978635L353.72427866666663,222.42015120258085L354.25701200000003,210.14771873216753L354.78974533333337,217.8921206413498L355.855212,213.23771139125404L356.38794533333333,201.63653850239302L356.9206786666667,204.42050240132662L357.98614533333335,210.1384130659739L359.051612,199.3548755119381L359.5843453333333,203.876841343746L361.7152786666666,191.20617931669753L365.444412,199.00752472969432L367.042612,184.1392606049183L367.5753453333333,191.81633739813995L368.640812,195.59037094984103L369.70627866666666,197.46917392899738L371.3044786666666,195.69796300138935L377.1645453333333,211.54353750576954L378.7627453333333,211.51730878838032L379.29547866666667,219.8074488695041L379.82821199999995,212.8087332048904L380.89367866666663,208.04878535816255L381.9591453333333,218.75121692949688L382.4918786666667,216.1344254690719L383.55734533333333,216.6415292668071L386.221012,210.81218208943483L386.7537453333333,206.45322638380867L389.9501453333333,217.67064282674252L391.015612,213.95474728915457L391.5483453333334,207.37815607761942L392.0810786666666,205.87467273886085L392.61381199999994,202.85759373668995L393.14654533333334,215.4419182302865L393.6792786666667,204.9722483591804L394.212012,204.17649834670766L394.74474533333336,211.84108200960435L395.27747866666664,196.8743229063077L395.810212,196.31255033459985L396.87567866666666,195.0262242295942L398.4738786666666,206.67375459969105L399.00661199999996,213.0715066710592L399.5393453333333,212.95069467991874L400.604812,224.4606073646597L402.73574533333334,225.94698395952864L403.801212,222.36572860658796L404.86667866666664,218.48861597383333L406.997612,231.73255913284643L407.5303453333333,227.3553526332144L408.0630786666666,220.28764015020045L409.1285453333333,224.30719726007183L410.19401200000004,221.17641697401098L411.2594786666666,211.46347077804057L412.32494533333335,220.15625312762504L412.8576786666667,218.5509859959172L414.45587866666665,208.6000067425178L415.52134533333333,223.63309673163752L416.05407866666667,208.4895009140545L416.58681199999995,178.46585871509183L417.1195453333333,176.43245064543345L417.65227866666663,170.3852366940349L418.185012,168.73556443308385L419.25047866666665,161.97526981330753L419.78321199999993,177.34573921561957L422.4468786666667,184.2707921080006L422.979612,189.6362175166103L424.04507866666665,182.29087135901244L424.577812,173.7256562754258L425.11054533333333,162.35057677543074L426.7087453333333,165.35567262940523L427.774212,154.4606144396416L428.8396786666666,153.2279901086567L429.9051453333333,148.50373335801743L430.970612,152.2482847999208L432.03607866666664,167.55780863336318L432.568812,178.4258151213373L433.1015453333333,177.7280942743853L434.69974533333334,175.76957610508668L436.83067866666664,163.76311215170685L437.363412,167.85927698512364L438.4288786666666,188.2320962459745L438.96161199999995,150.7953594853393L440.0270786666667,127.20575067405485L442.158012,139.2810263149595L444.8216786666666,158.86819117884696L448.55081199999995,134.7732612428382L449.08354533333335,126.6761197245118L450.149012,137.20566077468783L450.6817453333333,131.95682767793215L451.21447866666665,134.65683131942808L451.747212,143.73233316863949L452.27994533333333,152.70431898391396L452.81267866666667,142.58595714957013L453.8781453333333,139.9868479911738L454.41087866666663,151.05050305975294L456.54181199999994,145.85912853909997L457.0745453333333,144.8799694494489L458.140012,160.46681066646858L459.2054786666667,191.50675305289812L460.80367866666666,194.82637656212455L461.86914533333334,199.82085689500917L462.4018786666667,199.2019239291501L462.93461199999996,198.0835370313845L464.532812,206.76002734818468L465.0655453333333,218.15045282589182L465.5982786666666,233.95550350587274L466.13101199999994,246.7862521614895L466.6637453333333,248.43590710731243L467.729212,241.67523309597502L468.26194533333336,241.24842066805076L468.79467866666664,238.04722128123313L469.8601453333333,233.82735623884696L470.39287866666666,220.71306904770177L470.925612,230.61409459344608L471.45834533333334,219.12797574417462L471.9910786666666,225.8437313666524L472.52381199999996,229.1706306438794L473.58927866666664,228.79439070004588L474.122012,212.97779906806718L475.72021199999995,232.536462467364L477.85114533333336,231.68256691011075L479.4493453333333,218.36666876421688L479.98207866666667,203.2046762527313L480.514812,183.7631852199677L481.58027866666663,189.40750683296739L482.11301199999997,184.63559013172852L482.6457453333333,186.5839341276135L483.17847866666665,180.9950349718533L484.2439453333333,180.70993308128138L484.7766786666666,189.22804692415562L485.30941199999995,184.08291514893745L487.4403453333333,169.0146364957592L489.5712786666667,175.1236618722824L490.104012,185.4525539768494L491.16947866666663,192.00796185992616L491.702212,190.56739075360855L492.2349453333333,198.39999183992148L492.76767866666665,198.29753517132002L493.30041199999994,195.62136056602074L493.8331453333333,192.39418684050395L495.43134533333335,190.48093593054847L495.9640786666667,207.9452269333358L496.4968119999999,227.2733718030377L499.1604786666667,221.2406660695394L500.2259453333333,225.01584853874573L500.75867866666664,216.60525899698007L501.291412,215.20926579840219L501.8241453333333,217.74404077897736L502.88961199999994,207.67536095251165L504.48781199999996,194.38078840921196L505.02054533333336,184.2802788875453L506.6187453333333,184.40564198755786L507.15147866666666,191.1648822908716L507.684212,176.18910037658884L508.7496786666666,174.84345800106846L509.8151453333333,169.0163689163406L511.4133453333333,166.8827056922481L511.9460786666666,180.09121565844535L513.0115453333333,176.20641211224734L514.6097453333333,183.29964907269562L515.1424786666666,182.12266596668474L515.675212,187.31490354660795L516.7406786666667,190.5338319989095L517.273412,173.12722520979517L517.8061453333333,182.36799801745119L518.8716119999999,188.91068990696579L519.4043453333334,177.87770918595862L519.9370786666667,192.4935330292392L522.068012,203.777219527882L522.6007453333333,196.52627026225977L524.7316786666667,217.45363810204344L525.264412,209.19997238227936L526.3298786666667,209.5307879975668L527.3953453333332,206.00334892115274L528.4608119999999,214.39061601647037L528.9935453333334,224.31507995916397L529.5262786666667,189.80421638138782L530.059012,181.3060352302346L530.5917453333333,197.318723882157L531.1244786666666,205.70212106675288L532.1899453333333,213.2609343304172L533.255412,217.4834738883483L534.3208786666667,217.969512492154L535.9190786666667,200.12161419561653L536.9845453333332,207.5123757408519L537.5172786666666,207.60844518419978L538.050012,190.67082261433188L540.1809453333333,177.80375263468457L541.246412,182.9116549528586L541.7791453333333,189.22220344604958L542.844612,160.11952241232066L544.442812,169.11402937885327L545.5082786666666,170.02896767653084L546.0410119999999,167.7662239896921L546.5737453333332,170.37726885909981L548.1719453333334,179.13532757282348L549.7701453333333,184.9251015558151L550.3028786666666,196.04440154375118L551.3683453333333,181.2882527506202L552.433812,167.61966130867657L553.4992786666667,160.55734667891863L556.1629453333333,172.41732617542138L557.228412,161.95357504487242L557.7611453333334,167.15294444447574L558.2938786666666,163.55045850691042L558.826612,158.65366100355973L560.424812,153.0634748181377L563.621212,150.16233353830935L564.6866786666666,146.88735191364884L565.2194119999999,156.7496336889709L565.7521453333333,142.4861078533242L566.2848786666667,160.6159921489316L566.817612,167.2642624541864L568.9485453333333,167.80362178139833L570.014012,169.9595883466303L570.5467453333333,186.26168223742033L572.1449453333333,192.4591054844233L572.6776786666667,193.61184232239114L573.2104119999999,208.18616313606012L573.7431453333332,209.07077903024992L574.2758786666666,193.68678654478296L575.3413453333334,182.97163692742586L575.8740786666667,189.84864057118375L576.406812,194.0363369467591L576.9395453333333,206.84058567697443L578.005012,209.79585066282897L579.603212,209.69999840019625L580.6686786666667,194.41779933942277L581.201412,193.55952261076084L582.2668786666667,197.26984942231397L582.7996119999999,200.79553469141618L584.3978119999999,214.47130226888905L584.9305453333334,202.03153551280187L585.996012,212.53479933292002L586.5287453333333,210.00474107488733L590.2578786666667,202.04075937352383L590.790612,219.88085594856673L591.3233453333334,227.33031119016695L591.8560786666666,244.19433408145667L592.3888119999999,253.81362821402388L592.9215453333333,249.23410878972197L593.4542786666666,241.58193601430256L594.5197453333334,249.149702239366L595.0524786666666,242.04883093019987L595.585212,225.3633968791768L597.183412,229.79575494408508L597.7161453333333,248.79072747314223L598.2488786666667,242.6057078791329L598.781612,244.0064612193049L599.8470786666667,241.4680180439361L603.0434786666666,247.85145530572106L603.576212,257.0668293090099L604.1089453333333,244.78808837107L605.174412,254.18098014853422L607.3053453333333,241.1797329240704L608.9035453333333,234.32156222850907L610.5017453333332,225.251123787693L612.6326786666667,233.70182132105174L614.2308786666666,235.1310622007432L614.763612,210.4935305671249L615.2963453333333,210.22237570099298L616.361812,222.96715646844675L616.8945453333333,222.12905815633744L617.4272786666667,207.06657735585605L618.4927453333333,189.32282743888504L619.0254786666667,178.14453958144165L619.5582119999999,184.41055761617835L620.0909453333333,173.28477696909854L620.6236786666666,182.5734221069587L621.6891453333333,185.2554466815978L622.2218786666667,193.6366099291768L623.2873453333333,201.3628988973997L624.352812,198.42338847635517L624.8855453333333,199.67936123599657L625.951012,211.58219083569367L627.0164786666667,206.8822958655429L627.549212,200.14691516127715L628.0819453333334,206.663552171523L628.6146786666666,213.45803171582645L630.2128786666666,218.71051503129337L630.7456119999999,221.94137839567958L631.2783453333334,207.45610602154227L632.8765453333333,215.08284899103282L633.4092786666666,225.82585237394676L637.6711453333334,235.75079617148913L639.2693453333333,232.28285612019866L639.8020786666666,235.60479126813627L640.8675453333334,221.54719550552048L641.9330120000001,213.9369348221396L642.4657453333333,195.43695335981846L644.0639453333333,190.2609989258235L644.5966786666667,185.97514492885406L645.6621453333332,189.3617570312824L646.1948786666667,180.74304281874936L646.7276119999999,193.16481805397459L647.2603453333334,187.06472305136998L648.8585453333333,174.9932271458663L653.120412,152.08218010216876L653.6531453333333,139.15808843042257L654.1858786666667,158.03048651623791L655.2513453333333,144.8006030182661L656.316812,136.21228467056218L656.8495453333333,159.10666170910747L657.3822786666667,163.83188503901798L658.4477453333333,184.58043418683536L659.513212,182.77997284178744L660.0459453333334,193.44202751336618L660.5786786666666,195.53719816078987L662.1768786666667,187.51037716851613L662.709612,194.6569816177496L663.2423453333333,197.533008488648L665.9060119999999,201.6496155582392L666.9714786666666,188.60903404074136L667.5042119999999,200.96022816912736L668.5696786666666,204.5992483218993L669.1024120000001,216.7268691112977L670.1678786666665,210.36905144441457L673.3642786666667,211.31722101478974L673.8970119999999,221.60538235175923L674.9624786666666,217.69254222277556L676.0279453333333,214.74335972186367L678.1588786666667,200.86364195264323L679.2243453333332,203.41278581644653L680.2898119999999,218.0488139444106L681.3552786666667,214.92741958824223L682.4207453333333,193.0351800499903L683.486212,195.75327030551404L684.0189453333332,197.35472277058275L684.5516786666667,196.44849233722934L685.0844119999999,186.91075298263016L685.6171453333333,206.05079801892862L687.7480786666666,209.8844196250319L688.8135453333333,225.5486823796489L689.3462786666665,228.62842098092798L692.5426786666667,225.96422628793886L693.6081453333334,218.11737233383255L694.6736119999999,218.10836988711674L695.2063453333333,227.94345666813177L695.7390786666666,224.34908962089978L698.9354786666667,238.95644479159645L700.5336786666667,231.2728739598003L701.5991453333334,227.95104963670047L703.1973453333333,220.3027664011063L704.7955453333333,214.38785494484233L705.3282786666666,232.68443346602814L706.3937453333334,242.02551338393127L706.9264786666666,242.44361804522816L707.4592119999999,249.1235363414206L707.9919453333333,260.39686525607067L709.057412,249.2434407471285L709.5901453333333,245.06215086020254L710.655612,244.9961301188988L711.1883453333332,236.3719733746231L711.7210786666667,236.3265414511581L713.3192786666666,247.25616592315222L713.852012,250.55562138623276L714.9174786666666,200.1589463271842L719.1793453333332,192.38458103457293L719.7120786666667,198.33651338751005L720.2448119999999,194.7045726676716L720.7775453333334,190.84916056671236L722.3757453333333,193.109555021262L722.9084786666666,170.0653591712666L723.441212,176.1631249273351L725.039412,195.06730114620328L725.5721453333332,195.107512185198L726.1048786666667,207.81660903233714L727.7030786666667,206.0969952366296L734.0958786666666,208.7882761323037L735.6940786666665,213.07961679679372L736.7595453333333,228.06558866454327L737.2922786666667,235.03051416348305L738.3577453333332,246.69859651726108L738.8904786666667,254.86422809273344L739.4232119999999,255.92244591711503L740.4886786666666,236.2113868451323L742.0868786666666,237.00897439477401L742.619612,238.62265072183348L743.1523453333333,248.27921839660786L743.6850786666668,230.7482797638593L744.217812,237.3144679266359L744.7505453333332,230.39380687333494L745.2832786666667,225.63330024170378L745.816012,227.24574506982006L746.8814786666667,214.0737297338311L747.9469453333334,223.56138820601717L748.4796786666666,203.34166080169558L749.5451453333333,199.11008273822716L750.610612,206.54604827844864L751.6760786666666,216.9908730946988L752.208812,229.43172749482414L752.7415453333334,242.25172338109562L753.2742786666666,251.2294513884653L753.8070119999999,250.01900997284264L754.3397453333333,239.2438574453468L756.4706786666666,238.2393835208284L759.1343453333333,226.8595581432626L759.6670786666666,237.5035699908077L760.7325453333333,255.15662104292608L761.2652786666666,251.60881740417622L761.7980120000001,255.92620910275488L763.396212,270.10585304369044L763.9289453333332,276.19811170398737L764.4616786666667,273.16185145652645L765.5271453333332,269.9324274187471L767.1253453333334,270.91635407159754L768.7235453333333,271.9503234800951L769.789012,230.51112729866577L770.8544786666666,247.96437247428545L771.387212,257.07196640490076L772.4526786666667,268.34665099381016L772.9854119999999,255.4485352059847L774.5836119999999,262.8311027943806L775.1163453333334,256.5188900863537L775.6490786666666,258.87344061848677L776.7145453333333,261.4965776495629L777.2472786666667,258.44810161188815L777.7800119999999,241.79639096553245L778.8454786666666,239.37377534311426L779.378212,215.45243092176466L779.9109453333333,209.08077716815626L780.4436786666666,221.4337559282602L780.9764119999999,232.70509488231986L781.5091453333333,239.73235471354397L784.172812,234.8831807431293L784.7055453333332,225.67887455564508L785.7710119999999,241.52631583756877L787.9019453333333,248.1143699739023L788.4346786666666,249.2494567165628L789.5001453333333,225.3880744868462L791.6310786666667,231.53631055368604L792.6965453333333,238.3147345904792L793.7620119999999,230.33720229499536L794.8274786666666,217.35135904148993L795.360212,230.85394672455845L795.8929453333333,243.0049882482194L796.4256786666666,247.5061247045705L797.4911453333333,256.77687809422434L799.0893453333332,259.20961658936983L799.6220786666667,256.8448164397074L800.6875453333333,258.0570792613051L801.2202786666666,236.14887049201357L801.753012,220.5349440395456L802.8184786666666,212.70468534923978L804.9494119999999,225.34802575775262L806.0148786666666,217.38682981017362L806.547612,221.74393927145806L807.6130786666666,214.66673404512423L808.145812,229.79410696139584L809.744012,248.1188444179403L810.2767453333332,243.0284754242917L812.9404119999999,250.4603602697032L813.4731453333334,243.64793830621122L814.0058786666666,257.2015454649893L814.538612,271.77877346405694L815.6040786666666,264.48728229063977L816.6695453333333,257.77523167023696L817.2022786666666,253.40929229250943L817.735012,250.829577332825L818.2677453333332,242.99296194022781L818.8004786666667,258.541988769363L819.3332119999999,269.3335532227842L820.9314119999999,267.3567363878764L822.529612,278.67716830250833L823.5950786666667,269.5768954515627L824.6605453333333,261.6515196788439L825.1932786666666,260.9726794049662L825.726012,249.39467356413041L826.2587453333333,237.36905066245225L826.7914786666666,216.9111117945968L828.922412,217.1911264576452L831.0533453333333,215.48978610481015L832.1188119999999,225.92414169511363L832.6515453333334,215.3734921710466L834.2497453333333,215.10493000045284L834.7824786666666,210.22880891960125L835.315212,233.68808199874354L836.913412,250.52261358603448L838.5116119999999,254.91207312288435L839.0443453333332,266.00602673131726L839.5770786666667,255.17678712596592L840.6425453333334,225.38898128667228L841.1752786666666,220.11493512937093L841.708012,211.01601679220573L843.306212,216.82955832168724L844.3716786666666,238.63066260889224L844.904412,236.11336315463714L845.4371453333332,241.79034234352386L845.9698786666667,250.64492909773395L846.5026119999999,251.4495929059857L847.0353453333333,242.941156988488L848.100812,251.99173513702942L848.6335453333334,255.32332387894502L850.2317453333333,244.97677485304777L852.895412,248.24193651087714L859.2882119999999,260.56316170784567L859.8209453333334,253.03606158452106L860.3536786666666,266.37745842661707L860.886412,268.3623235472566L863.0173453333333,281.83085956478L864.6155453333332,282.7366400467237L865.1482786666667,288.4964265107003L866.2137453333333,278.49947844123255L866.7464786666666,282.0546481901211L867.2792119999999,288.88034720919944L867.8119453333334,272.8845154297472L868.877412,287.3376620414044L869.9428786666666,277.27613690004995L870.475612,260.7932257578367L871.0083453333333,255.89589607460306L872.073812,254.5273712865573L872.6065453333333,227.27575961648694L873.1392786666667,238.36272505649293L874.2047453333333,223.74294321806187L875.270212,240.72012524444548L878.4666119999999,251.47581198116663L879.5320786666666,253.8777863828487L881.663012,258.390084362538L882.1957453333333,247.6003964518276L882.7284786666665,242.07298531774444L884.8594119999999,232.06893718539607L887.5230786666666,243.1348977377256L888.0558120000001,238.57206703640426L890.1867453333333,250.09946471232956L892.3176786666667,246.21802122691886L893.9158786666666,220.55644240466017L895.5140786666666,207.92156761523995L896.046812,196.64941474129867L896.5795453333333,191.85323290543698L898.1777453333333,188.0033232452088L898.7104786666666,187.86796229090172L900.3086786666667,191.2531838232074L900.8414119999999,195.0515376145411L901.3741453333333,192.91934176377472L901.9068786666666,177.43895939822124L902.439612,175.24763110376813L906.1687453333334,175.31310420498642L906.7014786666666,197.26755421720958L907.234212,208.6563250158925L907.7669453333333,211.19673725983927L908.832412,214.4400439826371L909.3651453333333,223.29814694426753L909.8978786666665,232.23286521051318L910.430612,237.28587358680014L910.9633453333332,225.53370291730124L911.4960786666667,224.55511176121055L912.0288119999999,219.5820684141119L912.5615453333334,214.8529719802963L913.0942786666666,213.34215894046525L914.6924786666666,197.67186229434958L915.7579453333333,202.10082825703168L918.421612,210.43449976677292L918.9543453333332,203.99285156328727L919.4870786666667,215.3228831714614L920.5525453333333,223.26929198486374L924.2816786666667,214.8260864359756L925.3471453333332,206.8321170757154L928.010812,220.19247628536613L928.5435453333333,208.25890778359204L930.6744786666667,192.11253497039766L931.7399453333333,200.13959786859445L932.2726786666667,204.00006148725888L933.3381453333334,201.4257913568094L933.8708786666666,204.54475912085232L934.9363453333333,205.83693786009934L935.4690786666666,210.83252330272452L938.6654786666667,206.74862661686646L939.1982119999999,198.21143534177176L939.7309453333334,200.04616749522532L942.394612,215.43822621004546L942.9273453333333,226.56345181609524L947.7219453333333,224.98499569387093L948.2546786666666,243.44121479895736L949.8528786666666,232.4460620288028L950.3856119999999,246.1886024944078L950.9183453333333,254.89572712036266L951.983812,244.1575780800001L953.0492786666666,227.53220587673624L954.1147453333333,228.554357997227L955.180212,231.40650642152067L955.7129453333333,226.99544599646512L956.2456786666665,212.68190108418085L957.3111453333332,224.38701303390332L957.8438786666667,220.85938783383128L958.9093453333332,223.97172062028395L959.9748119999999,219.43794688709417L960.5075453333334,233.91099255575747L961.5730120000001,250.86512159794185L962.1057453333333,238.1433878874151L964.2366786666666,248.36409606826803L964.769412,249.75870612099837L965.8348786666667,246.5166558814783L966.3676119999999,233.15194258519617L966.9003453333333,226.1929030802822L967.4330786666666,214.19526870537007L968.4985453333333,219.98421557020202L969.0312786666666,236.89430503086842L969.564012,228.50927825457472L970.0967453333333,223.59101265854108L972.2276786666666,229.17128553251737L973.2931453333333,241.75192572113042L973.8258786666667,245.26615352482062L974.3586119999999,262.46439142891785L975.4240786666666,247.9090111595603L976.4895453333332,255.75047949896373L977.5550119999999,254.40958077238378L978.6204786666666,266.8738986576663L979.1532119999999,257.0006177908607L979.6859453333334,263.5466974288042L980.7514119999998,251.339386355714L981.2841453333333,244.80698862849474L981.8168786666666,246.0773382631378L982.349612,256.4763586226385L982.8823453333333,255.0649897026844L983.4150786666667,255.10046862154536L984.4805453333332,248.3855673406773L985.0132786666667,246.58239231531076L986.6114786666666,245.24219460765352L987.1442119999999,245.4767735856062L988.2096786666666,247.94342479201703L988.7424120000001,263.09454166474046L990.340612,266.14500123400643L990.8733453333333,263.47789023733935L991.4060786666666,276.0207429044381L991.938812,281.0648225604533L992.4715453333333,286.75995722273507L993.5370119999999,274.65698328696067L995.6679453333333,266.1412580557305L996.7334119999999,255.96900330578376L997.2661453333333,269.3930524508387L997.7988786666667,263.1876984185551L999.3970786666666,261.30261750298797L999.9298119999999,252.41947325118727L1000.9952786666666,234.3076599862169L1003.126212,223.1038635461505L1003.6589453333332,241.8998612000929L1004.1916786666667,216.12170217554015L1004.7244119999999,211.22600069784355L1005.7898786666666,218.1128488475463L1006.8553453333334,219.37026772208722L1007.9208120000001,220.65723056513815L1008.4535453333333,206.42488658108957L1009.519012,194.6837989490766L1010.0517453333333,182.3281557248456L1010.5844786666667,200.89600867343393L1011.117212,209.12875967456034L1012.1826786666667,187.32979080157588L1013.7808786666666,179.09559844020495L1014.3136119999999,186.0317869394238L1014.8463453333333,199.23102514808826L1015.3790786666666,212.20314800888238L1015.9118119999999,211.5753805451353L1017.510012,225.61496623820724L1018.0427453333332,254.2799149542443L1020.1736786666667,255.0916209176579L1020.7064119999999,257.9215435343291L1021.7718786666666,245.08283580962964L1022.304612,243.09404033309193L1022.8373453333332,254.52851908584475L1024.9682786666667,235.16594188893546L1026.5664786666666,212.09322158790738L1027.6319453333333,223.58256584140375L1029.2301453333332,220.2474790046155L1029.7628786666667,242.02567870183634L1030.295612,243.45418386692788L1030.8283453333333,226.17085018873703L1031.3610786666666,233.43616431416692L1032.4265453333333,236.2097833043623L1032.9592786666667,217.4157636358277L1033.492012,215.5543304188584L1035.090212,222.98350158199653L1035.6229453333333,220.4216750248542L1036.688412,218.17514926842097L1037.2211453333332,229.1605647458905L1037.7538786666667,221.10865378249383L1039.3520786666666,207.97214930976435L1040.4175453333332,222.87505451871547L1040.9502786666667,233.31024079042479L1041.483012,250.29207704269942L1042.0157453333334,260.0750191230642L1042.5484786666666,263.94568648175823L1045.7448786666666,259.3248243929653L1046.2776119999999,268.2630658509834L1047.875812,265.34786064448076L1050.5394786666666,251.24068303501227L1052.670412,252.88501184179734L1053.7358786666666,255.6808642578623L1054.8013453333333,262.6844467143276L1055.866812,255.78613434204738L1056.3995453333332,247.31804058479025L1056.9322786666667,234.46098575571443L1057.465012,223.63659138148302L1059.5959453333332,235.99938441032086L1060.1286786666667,241.21834486973606L1060.661412,256.9366283377053L1061.7268786666666,253.49692393677813L1062.259612,245.22228975582883L1062.7923453333333,243.76525736817462L1064.9232786666666,248.002529204622L1065.9887453333333,259.65483730775964L1067.054212,257.85974670361963L1068.1196786666667,240.44406489005357L1068.652412,248.96362407784662L1069.7178786666666,247.95983978085957L1071.848812,269.0622208562276L1072.9142786666666,272.3023824477899L1073.4470119999999,253.4077436609437L1075.045212,265.655030388293L1076.643412,251.37251651609284L1078.7743453333333,241.76436305545022L1079.839812,226.79971892178372L1080.3725453333334,216.09616666467642L1081.9707453333333,224.65127393483704L1084.1016786666667,226.5577517163789L1084.6344119999999,219.55840829312788L1085.167145333333,217.4615390294969L1085.6998786666666,216.96613998474015L1087.2980786666667,200.28268363458963L1087.830812,200.00580640945256L1088.3635453333334,211.8331403684293L1089.429012,205.39423413422705L1089.9617453333333,193.81791430055426L1090.4944786666667,201.90704432631279L1091.5599453333332,195.57531077484526L1092.0926786666666,199.70163730630242L1093.6908786666665,210.35850559369425L1094.2236119999998,216.11841666583308L1095.2890786666667,210.93973046862703L1096.3545453333334,207.59537394846078L1096.8872786666666,221.81195914348524L1097.420012,220.83821020995856L1099.5509453333334,206.14765746583095L1101.1491453333333,200.72286705844488L1101.6818786666665,201.7447332379348L1102.214612,211.68978973336834L1102.7473453333332,218.09643077019882L1104.3455453333333,231.97042246366564L1105.9437453333333,235.09314901608943L1106.4764786666667,229.16183225863557L1107.009212,211.4547866552998L1107.5419453333334,231.75314188017552L1108.0746786666666,211.01212231207978L1109.1401453333333,218.68057383489477L1110.7383453333332,223.05687151451852L1112.3365453333333,203.8973898781996L1114.4674786666667,198.23184435489364L1115.000212,200.22165700743747L1115.5329453333334,208.16080463021848L1116.0656786666666,212.7280350750919L1116.598412,214.1985332529798L1117.6638786666667,194.53149524390432L1118.196612,208.01580476182744L1120.3275453333333,222.95141256846534L1121.9257453333332,207.2935622880845L1122.4584786666665,222.43811591104114L1124.0566786666666,223.5180677129141L1124.589412,233.90406383537749L1125.1221453333333,234.81295506416748L1125.6548786666667,239.70313878373292L1126.187612,253.06289733526717L1127.2530786666666,257.13446515479063L1127.785812,252.59435279061574L1128.3185453333333,233.7213684861669L1128.8512786666665,231.19970641985591L1129.384012,243.12970108724457L1131.5149453333331,249.09281597464536L1132.0476786666666,259.112033431353L1132.580412,250.14800039799553L1134.178612,226.330427158449L1135.2440786666666,229.96900739271908L1135.776812,246.39932175809994L1136.3095453333333,257.313475387107L1137.375012,259.6835584371753L1137.9077453333332,262.9902412451952L1138.4404786666666,258.9413301998864L1139.5059453333333,265.4397611369875L1140.0386786666666,244.30670106899663L1141.6368786666667,237.19199461587797L1142.7023453333334,233.85004313497294L1143.767812,241.36559491342254L1144.3005453333333,241.0236639517322L1145.366012,245.29706174395204L1146.9642119999999,246.6159279076473" style="fill: none;" fill="none"></path></g></g></g></g><g opacity="0.2"><g><g><g><path stroke="rgb(0, 119, 187)" stroke-width="2px" d="M110.26514533333332,-113.36807426967584L112.39607866666667,35.35296379790395L112.928812,-85.91950957373382L113.99427866666667,-178.67308834056712L114.527012,28.20914313167799L115.05974533333332,-21.677168716333767L116.125212,21.436631135324717L116.65794533333333,-221.31732265025596L117.19067866666666,118.57311711763487L117.723412,-298.9613858110396L119.85434533333333,31.966946930556617L124.64894533333333,-29.315736368074965L125.18167866666666,56.0384530514462L126.24714533333334,124.03784763189074L127.84534533333334,-72.59523549821404L128.37807866666665,179.58107688963335L129.44354533333333,80.01939972196965L130.50901199999998,152.6147269059517L131.04174533333332,58.58286605907779L132.107212,-173.45345567118193L133.17267866666666,136.19760035817134L133.705412,117.56340953053092L135.303612,52.349353618373755L135.83634533333333,99.6376522931273L136.36907866666667,-195.55814102196086L136.901812,62.67532647586569L137.43454533333332,-50.94090921052634L139.03274533333334,224.3210381703048L139.56547866666665,157.36225127361166L140.63094533333333,5.005436121126365L141.696412,-81.25216117540202L142.22914533333332,106.42662070197537L142.76187866666666,76.60611103281417L143.29461199999997,67.99194619149642L144.892812,-78.03536601027105L145.42554533333333,-102.04697109792801L145.95827866666667,109.68110570447533L146.49101199999998,71.40763622030812L147.55647866666666,155.5629828363722L149.15467866666665,43.603825329775134L151.81834533333333,21.1318452638929L152.35107866666667,-72.82820078148012L152.883812,-192.78148858193322L153.41654533333332,24.397008704818063L153.94927866666666,265.8604795671442L154.482012,109.87893366516641L157.14567866666664,124.12188706755973L161.40754533333333,147.26846799947896L163.00574533333332,202.81642976464963L163.53847866666666,-55.940351562122714L167.26761199999999,135.35622182341808L168.86581199999998,-12.288628146035308L169.93127866666666,199.29722370808494L170.464012,186.8661046897315L170.99674533333334,130.6820743501348L173.12767866666664,239.5953595232538L173.660412,62.93376675152632L174.19314533333335,174.86258466252352L175.79134533333334,-120.40320031233983L176.32407866666665,151.7119409959108L177.92227866666664,52.803371020125894L180.053212,31.96174679098118L181.11867866666665,106.45918609675533L182.1841453333333,140.81512660268592L182.71687866666664,-111.26147078649325L183.249612,176.87747202465604L183.78234533333332,-32.19071150189478L184.847812,247.6627742772731L185.91327866666666,-64.92078320852971L186.9787453333333,95.16057140188627L188.57694533333333,8.207643975468443L189.10967866666667,-157.78390601295678L189.642412,211.72448927981057L190.70787866666666,144.79394776129266L191.240612,46.80196896274799L191.7733453333333,211.35761350439012L193.37154533333333,62.866345326248165L194.43701199999998,67.85178584048941L194.96974533333332,105.14306303929476L196.03521199999997,188.3694092940524L196.5679453333333,238.3378880174005L198.16614533333333,260.2979823682373L200.82981199999998,318.70036678637337L201.36254533333332,140.68740898082007L201.89527866666668,205.18645575466874L202.96074533333334,141.3692554328462L203.49347866666668,23.332704887875252L204.55894533333333,250.03093202947144L205.62441199999998,131.00677225644918L206.15714533333332,130.06357915356503L206.68987866666663,108.6500034526361L207.222612,210.90018087602454L208.28807866666665,215.11614007652858L208.820812,108.57930011734766L212.54994533333334,321.35798403106173L214.68087866666664,238.71070056836598L216.811812,95.75259428837836L217.34454533333334,83.5971632433953L217.87727866666665,-147.6811605704712L220.5409453333333,-114.22133470763407L221.606412,350.7904684186043L223.204612,130.92809925144996L223.7373453333333,-53.958147032152L225.3355453333333,415.22039041528296L225.86827866666667,116.5049429754759L226.93374533333332,48.16811936794028L227.46647866666666,282.72731669892863L227.999212,212.67251453063807L229.06467866666665,231.84447816877469L229.59741200000002,190.53481967803373L230.1301453333333,206.51188954047092L230.66287866666667,-156.41213537917906L231.195612,142.34426556936515L231.72834533333332,311.54655299699584L233.3265453333333,163.420998581427L234.92474533333333,292.8185519396899L237.05567866666667,173.90688900536048L237.58841199999998,179.08750667355508L238.65387866666666,179.1399539492528L239.71934533333334,324.8440327318813L240.25207866666668,124.07375845806226L242.91574533333332,460.4039176421782L244.51394533333334,205.96248733783577L245.04667866666668,124.92686402863532L245.579412,247.2074920498216L246.11214533333333,175.67783089069633L247.17761199999998,-22.37748838736229L249.30854533333334,156.74683262373003L250.374012,78.43570067796372L251.43947866666664,-14.51959721604976L252.50494533333332,257.981711492425L255.168612,324.6908773226357L256.2340786666667,381.60282518101405L258.365012,163.70190928559262L261.0286786666667,108.59679166724652L262.0941453333333,130.56797487081965L262.62687866666664,260.2638348091308L264.22507866666666,215.29264667452344L265.2905453333333,263.6475628491912L265.8232786666667,175.7307817857805L266.356012,175.31021630977943L267.42147866666664,230.24279130235513L267.954212,315.31226337184415L268.4869453333333,252.5225436239681L270.6178786666667,258.8400847121514L271.150612,147.68964720342152L272.21607866666665,507.9934215892323L273.81427866666667,37.0846412631812L275.94521199999997,255.16019902583068L276.4779453333333,270.36848997425807L277.01067866666665,276.52902031398486L277.543412,46.82323688729957L278.60887866666667,399.58883822322474L280.2070786666667,217.96409933001954L280.739812,232.445891611329L281.2725453333333,345.0464523742663L282.87074533333333,-42.897425291194736L283.4034786666667,34.22163840804882L284.46894533333335,33.73822713145131L287.66534533333333,232.39996458408086L288.73081199999996,384.6908420642834L290.329012,137.60378876365402L290.8617453333333,-81.92184871487694L291.927212,297.5214441488564L292.45994533333334,-58.72786366881695L295.123612,141.5897447685155L295.6563453333333,212.62136515401832L296.721812,411.81139983999685L297.7872786666666,-68.68148978059935L298.320012,221.58896526150912L298.8527453333333,75.1604160712879L300.4509453333333,19.57840017498546L300.98367866666666,352.34326546286604L301.516412,44.78474937693477L302.5818786666666,313.17783886560255L303.114612,35.60143711144207L304.18007866666665,211.3413980187072L304.712812,226.06498173415918L305.77827866666667,29.88996510619546L306.8437453333333,248.49993084014642L307.909212,332.2211420916502L308.4419453333333,157.22799760116885L308.97467866666665,230.3925697797169L310.0401453333333,377.58190313956203L310.57287866666667,-98.51758236171713L312.1710786666667,339.4647431586529L312.70381199999997,246.87182277053518L313.2365453333333,259.1166331695473L313.76927866666665,91.939741353599L314.83474533333333,241.15018630425885L315.36747866666667,-47.76352720402565L315.90021199999995,311.22783062015776L316.4329453333333,244.25713608636465L321.2275453333333,262.1716704707383L321.76027866666664,41.064974682822424L322.8257453333333,293.0779555714125L324.4239453333333,74.06529233382832L328.15307866666666,66.10525231880405L328.685812,323.54227148369955L330.8167453333333,92.6107575395796L331.34947866666664,274.44968258837224L331.882212,9.636314333414532L332.94767866666666,397.1684835924563L334.0131453333333,282.4416622173456L336.1440786666667,187.3952470520426L340.93867866666665,365.15959833766004L341.471412,341.0637497337277L342.0041453333333,160.88034158871898L342.53687866666667,105.18278630391467L343.6023453333333,160.06475050270038L344.13507866666663,166.6945386269136L345.7332786666666,360.280022597795L347.33147866666667,221.9161648583522L351.060612,106.60122701463257L351.59334533333333,157.65755634981107L352.1260786666666,212.75477531039562L352.65881199999995,385.91825844841736L353.72427866666663,322.8647461394996L354.25701200000003,68.88898777080891L354.78974533333337,311.03906240254935L355.855212,158.77950318685933L356.38794533333333,67.9135136568218L356.9206786666667,237.5327304177126L357.98614533333335,278.5963793439952L359.051612,74.83973378653388L359.5843453333333,257.87062823946997L361.7152786666666,45.48690527702678L365.444412,292.8515157119052L367.042612,13.938497504795976L367.5753453333333,284.13938363366935L368.640812,240.57798853721087L369.70627866666666,219.7704168477029L371.3044786666666,174.84299293812543L377.1645453333333,405.7248860351382L378.7627453333333,211.20728989331096L379.29547866666667,319.6422763315328L379.82821199999995,131.3367026068283L380.89367866666663,152.36853564222093L381.9591453333333,348.3497248571534L382.4918786666667,185.3804068212917L383.55734533333333,222.64249240107011L386.221012,142.78075179511674L386.7537453333333,155.4190821441836L389.9501453333333,353.66625233034466L391.015612,170.38837568045236L391.5483453333334,130.7501651237315L392.0810786666666,188.16160594433725L392.61381199999994,167.4302611370671L393.14654533333334,368.491538752243L393.6792786666667,84.00023953470088L394.212012,194.7868512814272L394.74474533333336,304.0112710203113L395.27747866666664,25.58157794835745L395.810212,189.68035234493925L396.87567866666666,179.86431398276196L398.4738786666666,348.0239277410804L399.00661199999996,289.7867044659382L399.5393453333333,211.52301664337645L400.604812,364.0963903670974L402.73574533333334,243.57475251049647L403.801212,180.36556620762377L404.86667866666664,173.0480866944445L406.997612,393.0507570049421L407.5303453333333,176.10956908346859L408.0630786666666,138.0246810157598L409.1285453333333,272.24792602693776L410.19401200000004,184.4231254769202L411.2594786666666,99.05327670249011L412.32494533333335,324.9360885838732L412.8576786666667,199.64300494568957L414.45587866666665,93.49365980737201L415.52134533333333,407.5080782429088L416.05407866666667,35.237351978315644L416.58681199999995,-154.68297398731977L417.1195453333333,152.50405975522278L417.65227866666663,99.84452454317022L418.185012,149.3064466953144L419.25047866666665,83.23812937711216L419.78321199999993,365.49557756246435L422.4468786666667,267.40807705446923L422.979612,253.82297056079761L424.04507866666665,96.84769725752295L424.577812,74.354045989741L425.11054533333333,31.170537773020726L426.7087453333333,201.11569722066395L427.774212,28.687692046678137L428.8396786666666,138.6973428282166L429.9051453333333,93.23669118604766L430.970612,196.8815166354346L432.03607866666664,354.9349158544822L432.568812,310.07941760103074L433.1015453333333,169.49338478660192L434.69974533333334,152.7186681477012L436.83067866666664,25.487646214622316L437.363412,216.72209680561642L438.4288786666666,440.57692744907763L440.0270786666667,-137.98545082975306L442.158012,285.9669001188715L444.8216786666666,401.0287015927346L448.55081199999995,-135.81883818665267L449.08354533333335,32.64035421906431L450.149012,264.6599548369978L450.6817453333333,70.62302646001393L451.21447866666665,166.76442047620893L451.747212,253.2209739265298L452.27994533333333,260.9185291579195L452.81267866666667,25.585335281061703L453.8781453333333,109.43945710423208L454.41087866666663,285.13450234126486L456.54181199999994,85.18916660874316L457.0745453333333,133.33081606981955L458.140012,351.36183297605385L459.2054786666667,586.0806523811341L460.80367866666666,234.35702451596202L461.86914533333334,259.5200611551718L462.4018786666667,191.89582169743508L462.93461199999996,184.89624454950433L464.532812,311.3395966804909L465.0655453333333,356.2985970215869L465.5982786666666,427.62186988091116L466.13101199999994,402.9219146757403L466.6637453333333,268.0071933792293L467.729212,162.93373847698697L468.26194533333336,236.2080382211068L468.79467866666664,200.47304835715298L469.8601453333333,184.4066820564965L470.39287866666666,70.03357302664767L470.925612,350.28786488848925L471.45834533333334,86.69871679064966L471.9910786666666,306.43010471769446L472.52381199999996,268.78856498299126L473.58927866666664,224.35074044404706L474.122012,32.281841744973576L475.72021199999995,474.3282366502682L477.85114533333336,221.608109919181L479.4493453333333,65.43599364461295L479.98207866666667,29.74876935201911L480.514812,-36.67172707844503L481.58027866666663,256.9732007741186L482.11301199999997,128.81678711834925L482.6457453333333,209.71420645531163L483.17847866666665,115.73571078093107L484.2439453333333,177.34200697669897L484.7766786666666,291.86158879962596L485.30941199999995,123.94733211230269L487.4403453333333,-3.4031523552984027L489.5712786666667,248.32892489661288L490.104012,310.4205180308812L491.16947866666663,270.6416628096691L491.702212,173.5931641046475L492.2349453333333,292.62666314183645L492.76767866666665,197.08671931213294L493.30041199999994,164.17353273199862L493.8331453333333,154.5172926053483L495.43134533333335,167.96056314814777L495.9640786666667,422.77864722933657L496.4968119999999,466.08468126810635L499.1604786666667,150.8669789812178L500.2259453333333,270.0172777952317L500.75867866666664,118.99513360480137L501.291412,198.75868514264377L501.8241453333333,247.8756630689311L502.88961199999994,91.23685153733516L504.48781199999996,41.68814390543804L505.02054533333336,67.48162808991657L506.6187453333333,185.88790935406055L507.15147866666666,272.28104619544195L507.684212,4.796344793567414L508.7496786666666,158.9844599471907L509.8151453333333,101.01095840784484L511.4133453333333,141.7800792960686L511.9460786666666,340.96459642942335L513.0115453333333,130.67650841760658L514.6097453333333,268.4885213771072L515.1424786666666,168.24623734826096L515.675212,249.4055610964076L516.7406786666667,228.85674775862378L517.273412,-25.072992247558147L517.8061453333333,293.89261829125763L518.8716119999999,267.3895997869315L519.4043453333334,50.55005699432718L519.9370786666667,371.0908294110672L522.068012,340.59714033836974L522.6007453333333,112.16395987385533L524.7316786666667,477.01028702359145L525.264412,113.37870579078867L526.3298786666667,213.44406356114115L527.3953453333332,164.62946459586627L528.4608119999999,315.4174636779801L528.9935453333334,344.2785939491784L529.5262786666667,-189.72645238624352L530.059012,82.69792840864005L530.5917453333333,393.62483049854546L531.1244786666666,306.68146396598075L532.1899453333333,304.1373354682034L533.255412,267.8681017597673L534.3208786666667,223.72092585571693L535.9190786666667,-2.9163330327655217L536.9845453333332,296.3344458991558L537.5172786666666,208.7442767534765L538.050012,-2.378398204055486L540.1809453333333,29.887277305500618L541.246412,243.9821954627827L541.7791453333333,264.87681709228957L542.844612,-163.40832333759272L544.442812,277.60545557640563L545.5082786666666,180.86596131592427L546.0410119999999,141.1525069377657L546.5737453333332,201.42082001786076L548.1719453333334,284.71770830870327L549.7701453333333,254.25470433820675L550.3028786666666,330.82003888357946L551.3683453333333,12.33101979822095L552.433812,10.755406684887646L553.4992786666667,78.35625602359812L556.1629453333333,316.4162659123784L557.228412,41.04842582645796L557.7611453333334,229.3298861304073L558.2938786666666,121.30326907407505L558.826612,101.38965007889999L560.424812,87.78930488687791L563.621212,116.08771945895387L564.6866786666666,108.45336407584853L565.2194119999999,275.944525094755L565.7521453333333,-21.000272683547905L566.2848786666667,383.98752522111397L566.817612,247.02864385277718L568.9485453333333,174.18674673004725L570.014012,195.566552430439L570.5467453333333,386.2513853924934L572.1449453333333,266.73849723517196L572.6776786666667,207.27265511327064L573.2104119999999,386.2590858600157L573.7431453333332,219.54791349344654L574.2758786666666,17.773285714864528L575.3413453333334,59.228097679605526L575.8740786666667,272.4000871039617L576.406812,244.00129575737128L576.9395453333333,362.64421147448036L578.005012,244.9589800525301L579.603212,208.567215762019L580.6686786666667,19.630894375389403L581.201412,183.43347343121417L582.2668786666667,241.49174722530012L582.7996119999999,242.79938020943266L584.3978119999999,381.21642226675993L584.9305453333334,58.89759082240232L585.996012,339.66334932729836L586.5287453333333,180.26440289915917L590.2578786666667,109.52491589064755L590.790612,439.531708768002L591.3233453333334,316.8696973253379L591.8560786666666,451.3508195472286L592.3888119999999,370.00710515553936L592.9215453333333,195.64339565572084L593.4542786666666,152.62856059707045L594.5197453333334,340.13559216580455L595.0524786666666,159.4058471406785L595.585212,35.08817646394738L597.183412,282.708936986366L597.7161453333333,483.3001508024507L598.2488786666667,170.47903737620555L598.781612,260.6156127573855L599.8470786666667,211.62966565898572L603.0434786666666,324.39252526997745L603.576212,368.2784600721319L604.1089453333333,103.45863594572279L605.174412,367.5809283682672L607.3053453333333,91.76327068832052L608.9035453333333,154.46136096551214L610.5017453333332,120.1321494335013L612.6326786666667,335.5074240672051L614.2308786666666,252.0790726428391L614.763612,-65.88568806090836L615.2963453333333,207.0191078839489L616.361812,378.0258147399719L616.8945453333333,212.2406360502732L617.4272786666667,34.71302771557339L618.4927453333333,-12.574170845674644L619.0254786666667,49.17989689967379L619.5582119999999,259.5237465736247L620.0909453333333,44.91154995845676L620.6236786666666,294.68807260856323L621.6891453333333,217.14795364012477L622.2218786666667,294.58853070672745L623.2873453333333,294.28815871994686L624.352812,163.9010214784643L624.8855453333333,214.56701354577163L625.951012,356.11569292896417L627.0164786666667,151.89733493775168L627.549212,121.6957203953585L628.0819453333334,284.825325437832L628.6146786666666,295.00360573891624L630.2128786666666,281.5301415970688L630.7456119999999,260.4074124854476L631.2783453333334,41.505712708763724L632.8765453333333,306.7900973400882L633.4092786666666,355.9277870451108L637.6711453333334,355.72024241818093L639.2693453333333,191.60155313365533L639.8020786666666,275.16317132417305L640.8675453333334,60.351125304317236L641.9330120000001,125.46277538255984L642.4657453333333,-14.733459676998166L644.0639453333333,129.76921885563755L644.5966786666667,135.78886839985958L645.6621453333332,229.69616557091845L646.1948786666667,80.7622448646365L646.7276119999999,344.1807285977531L647.2603453333334,115.91530923475284L648.8585453333333,35.98801347418288L653.120412,-105.83915519208585L655.2513453333333,-7.169869435821909L656.316812,36.57758339957479L656.8495453333333,444.4009787181709L657.3822786666667,220.27843137716323L658.4477453333333,441.8094611234005L659.513212,161.58195988119496L660.0459453333334,322.539621970472L660.5786786666666,220.4187011777971L662.1768786666667,94.27716101086628L662.709612,280.49718403568005L663.2423453333333,231.74726458787347L665.9060119999999,250.7585426781498L666.9714786666666,38.75300837580119L667.5042119999999,351.0935538722351L668.5696786666666,247.96433915043218L669.1024120000001,364.0664266705777L670.1678786666665,136.25503934773766L673.3642786666667,222.5486512850947L673.8970119999999,346.0689148920879L674.9624786666666,171.83685700202696L676.0279453333333,180.10813517985767L678.1588786666667,41.6474827029088L679.2243453333332,233.71618737330928L680.2898119999999,396.9014202042654L681.3552786666667,178.2835597352979L682.4207453333333,-53.933428344618335L683.486212,228.07724570162128L684.0189453333332,216.35210327551792L684.5516786666667,185.75781081127937L685.0844119999999,76.48683801529285L685.6171453333333,442.4325362556393L687.7480786666666,255.588451744L688.8135453333333,417.42666064787113L689.3462786666665,265.2827973401947L692.5426786666667,194.65635246833335L693.6081453333334,126.93917388120616L694.6736119999999,218.00195847015692L695.2063453333333,346.8022649166359L695.7390786666666,182.1963642778251L698.9354786666667,417.4467346702212L700.5336786666667,141.9605547971341L701.5991453333334,188.97132825099885L703.1973453333333,131.39385971463923L704.7955453333333,145.3706557271636L705.3282786666666,458.19854475206193L706.3937453333334,354.7865757952954L706.9264786666666,247.39040762084406L707.4592119999999,329.27336859069965L707.9919453333333,397.08793484416793L709.057412,120.5588303390324L709.5901453333333,196.08912656471773L710.655612,244.21584509241393L711.1883453333332,136.32920982496677L711.7210786666667,235.78956680114385L713.3192786666666,379.6749651402579L713.852012,289.84433096778326L714.9174786666666,-337.31014722726127L719.1793453333332,102.03456830807283L719.7120786666667,269.6339911467505L720.2448119999999,152.1147020184437L720.7775453333334,145.66082445517458L722.3757453333333,219.9630883308264L722.9084786666666,-89.28405834746968L723.441212,249.23160245882067L725.039412,428.4055646735121L725.5721453333332,195.58286958682098L726.1048786666667,362.4283467133964L727.7030786666667,185.84725293178028L734.0958786666666,240.79151358874913L735.6940786666665,264.29311371781864L736.7595453333333,411.3440886731406L737.2922786666667,318.65404153057L738.3577453333332,388.30489287814464L738.8904786666667,353.17176435754106L739.4232119999999,268.460503327323L740.4886786666666,12.844895219034754L742.0868786666666,246.4535459876348L742.619612,257.7655586463393L743.1523453333333,364.9328846775454L743.6850786666668,31.184162023068325L744.217812,316.07940362202544L744.7505453333332,149.8168191401027L745.2832786666667,169.94658159007906L745.816012,246.37399140440817L746.8814786666667,62.749448993392775L747.9469453333334,338.13028740558923L748.4796786666666,-25.54784040724138L749.5451453333333,149.55349830764243L750.610612,295.9205550965136L751.6760786666666,343.3951294417623L752.208812,380.68626424181986L752.7415453333334,398.25265172299044L753.2742786666666,359.5143402906615L753.8070119999999,235.74916586405087L754.3397453333333,114.82330851466162L756.4706786666666,226.39230380269078L759.1343453333333,95.62611483991441L759.6670786666666,366.3773562739375L760.7325453333333,472.40866726836117L761.2652786666666,209.99792652962705L761.7980120000001,307.45361825908645L763.396212,443.19730864680946L763.9289453333332,349.1996898093909L764.4616786666667,237.51078520879292L765.5271453333332,232.02930824322573L767.1253453333334,282.5722659730304L768.7235453333333,284.20041921855193L769.789012,-219.06977867278374L770.8544786666666,462.65632744853764L771.387212,366.95582976790405L772.4526786666667,405.05458519412804L772.9854119999999,107.1849190265911L774.5836119999999,351.5530470544345L775.1163453333334,182.9292343026574L775.6490786666666,286.8514258256006L776.7145453333333,292.68473857363995L777.2472786666667,222.65455790796722L777.7800119999999,51.892337962128806L778.8454786666666,210.88969014929927L779.378212,-53.28561909270496L779.9109453333333,134.80770102635026L780.4436786666666,371.5893940661238L780.9764119999999,369.37140951692925L781.5091453333333,324.1162199588192L784.172812,178.17021022414238L784.7055453333332,119.03911259039256L785.7710119999999,435.73139108587355L787.9019453333333,327.14551290966233L788.4346786666666,262.7005749161707L789.5001453333333,-42.70922370367629L791.6310786666667,305.21797223096326L792.6965453333333,319.6646546153008L793.7620119999999,137.66664903324047L794.8274786666666,68.10705704380865L795.360212,395.42132254062244L795.8929453333333,390.63707443274257L796.4256786666666,301.2486858659222L797.4911453333333,368.6709961886592L799.0893453333332,288.12171531238505L799.6220786666667,229.0369726957877L800.6875453333333,272.4252207526538L801.2202786666666,-10.991765331240515L801.753012,42.07841252679788L802.8184786666666,121.71606569289193L804.9494119999999,379.1363968143542L806.0148786666666,124.9027929358405L806.547612,273.750014224549L807.6130786666666,132.29497549439063L808.145812,414.8630406485923L809.744012,473.99506087858504L810.2767453333332,183.52586695991192L812.9404119999999,339.784992359275L813.4731453333334,164.31261343807975L814.0058786666666,422.41030963078697L814.538612,449.8884239400562L815.6040786666666,179.66070503939162L816.6695453333333,179.59183222276158L817.2022786666666,202.29416213386423L817.735012,220.5088371990791L818.2677453333332,151.9317238282884L818.8004786666667,448.95704445303943L819.3332119999999,400.0381714468231L820.9314119999999,244.09139682506904L822.529612,415.95426225379117L823.5950786666667,164.11891581922367L824.6605453333333,169.57649689946697L825.1932786666666,252.96047011611878L825.726012,115.93210678186296L826.2587453333333,98.87857422840648L826.7914786666666,-14.560888723093171L828.922412,220.50309596759436L831.0533453333333,195.4544218999665L832.1188119999999,352.1986630109799L832.6515453333334,93.48688272284465L834.2497453333333,211.93227261340837L834.7824786666666,153.20402590121026L835.315212,526.4195958718338L836.913412,457.302494323485L838.5116119999999,307.30808416633454L839.0443453333332,400.4665993341156L839.5770786666667,130.14612411551397L840.6425453333334,-105.29947748046163L841.1752786666666,158.48989066091082L841.708012,105.57342742277064L843.306212,286.4475019835214L844.3716786666666,509.58948995393473L844.904412,206.52217397207505L845.4371453333332,309.7519752879812L845.9698786666667,357.4145220152567L846.5026119999999,260.9781070911504L847.0353453333333,144.21623618620362L848.100812,361.17347404401465L848.6335453333334,294.9975185892515L850.2317453333333,125.39591993582499L852.895412,287.1193036219734L859.2882119999999,410.32182728419025L859.8209453333334,165.51300163529947L860.3536786666666,428.9194397968105L860.886412,291.92808339739247L863.0173453333333,445.97024215461823L864.6155453333332,293.46494576682363L865.1482786666667,357.4622738580029L866.2137453333333,162.87276637471933L866.7464786666666,324.41255991743475L867.2792119999999,370.8064057709842L867.8119453333334,90.20954811330347L868.877412,463.8801845912486L869.9428786666666,160.91858684373574L870.475612,72.7477983541462L871.0083453333333,198.62572806831582L872.073812,238.39950661683145L872.6065453333333,-76.80802600248461L873.1392786666667,372.7364386890341L874.2047453333333,56.299014276395496L875.270212,449.32214597707946L878.4666119999999,381.73514462244003L879.5320786666666,282.4223067725156L881.663012,312.2672634237538L882.1957453333333,123.01587146989908L882.7284786666665,177.5230147880718L884.8594119999999,116.36186176916021L887.5230786666666,377.2475494687908L888.0558120000001,185.17470831615867L890.1867453333333,389.9530085831304L892.3176786666667,200.72716368157535L893.9158786666666,-66.7104139090788L895.5140786666666,62.6028368506328L896.046812,66.62784964718719L896.5795453333333,135.7535554757041L898.1777453333333,142.87893765549916L898.7104786666666,186.26840548500036L900.3086786666667,231.5709051939525L900.8414119999999,240.33152927832037L901.3741453333333,167.83389820891136L901.9068786666666,0.4591064784633545L902.439612,149.46983825941555L906.1687453333334,176.08714198837433L906.7014786666666,470.2325224325582L907.234212,346.7838739302821L907.7669453333333,241.39575143034673L908.832412,253.05530162949452L909.3651453333333,330.1109961331147L909.8978786666665,339.98840687451127L910.430612,297.69262737717366L910.9633453333332,90.11368016748838L911.4960786666667,213.0126426841573L912.0288119999999,161.43607228221637L912.5615453333334,159.52989542265064L913.0942786666666,195.54302552955136L914.6924786666666,18.592257383847766L915.7579453333333,254.9731125537749L918.421612,310.803514295188L918.9543453333332,128.91524247531757L919.4870786666667,352.71942587214124L920.5525453333333,318.88983291521987L924.2816786666667,116.8443044686781L925.3471453333332,113.97391069683914L928.010812,382.97264418082307L928.5435453333333,70.80166688870304L930.6744786666667,7.776566215156379L931.7399453333333,296.74839584689073L932.2726786666667,250.02687199915354L933.3381453333334,171.1686858074903L933.8708786666666,241.66928999951483L934.9363453333333,221.15498981552426L935.4690786666666,270.54508557765905L938.6654786666667,158.90614751702378L939.1982119999999,99.15898415591431L939.7309453333334,221.82215580708007L942.394612,403.8618496323155L942.9273453333333,361.41275208918984L947.7219453333333,206.39171675870023L948.2546786666666,471.0088437649787L949.8528786666666,105.54473447461044L950.3856119999999,413.7738665785977L950.9183453333333,359.8518742130742L951.983812,120.15451719206442L953.0492786666666,37.91807581535909L954.1147453333333,240.66412896995885L955.180212,265.334885090012L955.7129453333333,175.35713120670894L956.2456786666665,48.63951683740049L957.3111453333332,366.4548416732709L957.8438786666667,179.48333727158234L958.9093453333332,261.01672666661426L959.9748119999999,166.37727369026842L960.5075453333334,410.70477539801294L961.5730120000001,459.1725921702227L962.1057453333333,91.85260304248737L964.2366786666666,371.9924615390081L964.769412,266.2947889688021L965.8348786666667,208.46639684698087L966.3676119999999,79.67648615371422L966.9003453333333,145.17579651365142L967.4330786666666,76.01889818722515L968.4985453333333,289.3037845578459L969.0312786666666,444.63916746435746L969.564012,131.19047462034362L970.0967453333333,166.0786368490229L972.2276786666666,295.96062546956756L973.2931453333333,394.7554337812711L973.8258786666667,287.1324240042008L974.3586119999999,473.89250476515485L975.4240786666666,81.1800649935268L976.4895453333332,350.0857271662865L977.5550119999999,238.60632362346809L978.6204786666666,418.42192612060956L979.1532119999999,142.77404472305145L979.6859453333334,342.0668453039649L980.7514119999998,110.81078557293267L981.2841453333333,168.6866442828699L981.8168786666666,261.1358877978849L982.349612,382.3130508210129L982.8823453333333,238.4337825300933L983.4150786666667,255.51988056600584L984.4805453333332,170.1694450274947L985.0132786666667,225.35255611393669L986.6114786666666,229.44717497754402L987.1442119999999,248.25105773850788L988.2096786666666,277.26078102885117L988.7424120000001,448.4642407298534L990.340612,302.44852748809467L990.8733453333333,232.13594634322646L991.4060786666666,428.55134871334906L991.938812,341.3636243430855L992.4715453333333,354.9417316613538L993.5370119999999,135.29861482601527L995.6679453333333,167.33330641925562L996.7334119999999,138.3587601131891L997.2661453333333,432.97338519325325L997.7988786666667,190.8270856549868L999.3970786666666,239.11245209749356L999.9298119999999,149.42968976389804L1000.9952786666666,28.38070958744987L1003.126212,93.85195204124045L1003.6589453333332,473.8434211483385L1004.1916786666667,-72.38179725678896L1004.7244119999999,153.97467034129022L1005.7898786666666,300.78431365958306L1006.8553453333334,234.27510943602616L1007.9208120000001,235.91327412689188L1008.4535453333333,43.285177171585076L1009.519012,59.38829666318759L1010.0517453333333,40.136765892796234L1010.5844786666667,429.9005590148814L1011.117212,308.2595125193942L1012.1826786666667,-58.63384276293351L1013.7808786666666,83.49640293349995L1014.3136119999999,269.3048606094801L1014.8463453333333,359.98802335701913L1015.3790786666666,370.11088488410434L1015.9118119999999,204.16513735440955L1017.510012,396.94087813415706L1018.0427453333332,616.5313083184608L1020.1736786666667,264.70367575927L1020.7064119999999,291.5838579552453L1021.7718786666666,97.48353461323944L1022.304612,219.6883392443805L1022.8373453333332,393.225039053783L1024.9682786666667,15.589838771258712L1026.5664786666666,-47.562033714938195L1027.6319453333333,362.962209166894L1029.2301453333332,181.11326504928203L1029.7628786666667,512.6849857658627L1030.295612,260.3934424530679L1030.8283453333333,29.32361101175144L1031.3610786666666,320.7257421082203L1032.4265453333333,269.1982077600937L1032.9592786666667,4.035429514322459L1033.492012,193.641393791651L1035.090212,312.27496724421854L1035.6229453333333,190.31000519122736L1036.688412,191.75124171325209L1037.2211453333332,362.2723873984234L1037.7538786666667,127.58906474762907L1039.3520786666666,57.04448262122071L1040.4175453333332,405.1023129917428L1040.9502786666667,359.5950557113421L1041.483012,458.9535691783052L1042.0157453333334,378.289526801609L1042.5484786666666,310.09520840092455L1045.7448786666666,205.25517832642768L1046.2776119999999,376.0619656622531L1047.875812,231.10911730069498L1050.5394786666666,89.49299369618956L1052.670412,272.39287826822306L1053.7358786666666,288.93537707870905L1054.8013453333333,346.77947610301817L1055.866812,175.46547172336173L1056.3995453333332,149.05269452582576L1056.9322786666667,86.6565051938585L1057.465012,98.66057793456031L1059.5959453333332,386.2777291819472L1060.1286786666667,303.6323228076967L1060.661412,449.50067521496703L1061.7268786666666,213.1443528639057L1062.259612,149.16192286738618L1062.7923453333333,226.59768996005891L1064.9232786666666,298.56461996139507L1065.9887453333333,401.0645494944463L1067.054212,236.72471736543466L1068.1196786666667,42.144272167957126L1068.652412,351.6149190244516L1069.7178786666666,236.12087574097606L1071.848812,530.8989091849988L1072.9142786666666,310.8799221859304L1073.4470119999999,38.92987388076699L1075.045212,414.4895692494282L1076.643412,87.67505443590198L1078.7743453333333,130.5420016335803L1079.839812,55.53041702498314L1080.3725453333334,92.4834996889528L1081.9707453333333,327.7392405407741L1084.1016786666667,249.18888754644698L1084.6344119999999,138.07918015387776L1085.167145333333,192.78980078911707L1085.6998786666666,211.1166798096852L1087.2980786666667,10.029228810085101L1087.830812,196.73497930991482L1088.3635453333334,355.42489294966356L1089.429012,130.3481373262937L1089.9617453333333,60.37430376295555L1090.4944786666667,299.2766011460246L1091.5599453333332,121.76119577199685L1092.0926786666666,248.9275865005843L1093.6908786666665,339.39176479486696L1094.2236119999998,285.0857754362372L1095.2890786666667,150.41638351771235L1096.3545453333334,168.3531844772076L1096.8872786666666,395.3692817636441L1097.420012,209.35273242465934L1099.5509453333334,37.91825549944696L1101.1491453333333,137.3571962624053L1101.6818786666665,213.8511088863975L1102.214612,331.90789316022654L1102.7473453333332,294.91976128658615L1104.3455453333333,401.2103898499389L1105.9437453333333,272.2627326437005L1106.4764786666667,159.95567252977835L1107.009212,9.960002237977562L1107.5419453333334,483.1310507824172L1108.0746786666666,-23.525547744781306L1109.1401453333333,310.8980866321769L1110.7383453333332,275.2942274405464L1112.3365453333333,-13.467170969662561L1114.4674786666667,132.0885571809907L1115.000212,223.84641799065218L1115.5329453333334,303.69239185321743L1116.0656786666666,267.26784726573374L1116.598412,231.63737490300147L1117.6638786666667,-28.356484198781175L1118.196612,372.35343499147376L1120.3275453333333,405.59248626689435L1121.9257453333332,28.351517500246075L1122.4584786666665,407.7246747334247L1124.0566786666666,236.31425300035096L1124.589412,359.5793943344584L1125.1221453333333,245.57817963816254L1125.6548786666667,298.14195777254764L1126.187612,415.83552003267073L1127.2530786666666,305.70118767122796L1127.785812,199.46022972042945L1128.3185453333333,19.479663661133998L1128.8512786666665,201.5575178510315L1129.384012,388.002147235137L1131.5149453333331,320.5260528721852L1132.0476786666666,380.247202609156L1132.580412,146.23845116827076L1134.178612,-41.29863319326989L1135.2440786666666,273.3288130978334L1135.776812,448.02265214815367L1136.3095453333333,389.5401309629869L1137.375012,287.8470850368059L1137.9077453333332,302.36564843254325L1138.4404786666666,211.50508320528007L1139.5059453333333,343.3799547380962L1140.0386786666666,5.529207752693537L1141.6368786666667,154.39046589041095L1142.7023453333334,194.63586772338425L1143.767812,331.7129998084538L1144.3005453333333,236.98491992842835L1145.366012,296.2943703548405L1146.9642119999999,262.25127179463635" style="fill: none;" fill="none"></path></g></g></g></g></g></g><g transform="translate(10, 377)" clip-path="url(#clip_1)"><clipPath id="clip_1"><rect width="1278" height="23"></rect></clipPath><g><g><line x1="0" y1="0" x2="0" y2="5" style="visibility: inherit;" fill="rgb(0, 0, 0)" stroke="rgb(204, 204, 204)" stroke-width="1px"></line><line x1="106.54666666666665" y1="0" x2="106.54666666666665" y2="5" style="visibility: inherit;" fill="rgb(0, 0, 0)" stroke="rgb(204, 204, 204)" stroke-width="1px"></line><line x1="213.0933333333333" y1="0" x2="213.0933333333333" y2="5" style="visibility: inherit;" fill="rgb(0, 0, 0)" stroke="rgb(204, 204, 204)" stroke-width="1px"></line><line x1="319.64" y1="0" x2="319.64" y2="5" style="visibility: inherit;" fill="rgb(0, 0, 0)" stroke="rgb(204, 204, 204)" stroke-width="1px"></line><line x1="426.1866666666666" y1="0" x2="426.1866666666666" y2="5" style="visibility: inherit;" fill="rgb(0, 0, 0)" stroke="rgb(204, 204, 204)" stroke-width="1px"></line><line x1="532.7333333333333" y1="0" x2="532.7333333333333" y2="5" style="visibility: inherit;" fill="rgb(0, 0, 0)" stroke="rgb(204, 204, 204)" stroke-width="1px"></line><line x1="639.28" y1="0" x2="639.28" y2="5" style="visibility: inherit;" fill="rgb(0, 0, 0)" stroke="rgb(204, 204, 204)" stroke-width="1px"></line><line x1="745.8266666666667" y1="0" x2="745.8266666666667" y2="5" style="visibility: inherit;" fill="rgb(0, 0, 0)" stroke="rgb(204, 204, 204)" stroke-width="1px"></line><line x1="852.3733333333332" y1="0" x2="852.3733333333332" y2="5" style="visibility: inherit;" fill="rgb(0, 0, 0)" stroke="rgb(204, 204, 204)" stroke-width="1px"></line><line x1="958.92" y1="0" x2="958.92" y2="5" style="visibility: inherit;" fill="rgb(0, 0, 0)" stroke="rgb(204, 204, 204)" stroke-width="1px"></line><line x1="1065.4666666666667" y1="0" x2="1065.4666666666667" y2="5" style="visibility: inherit;" fill="rgb(0, 0, 0)" stroke="rgb(204, 204, 204)" stroke-width="1px"></line><line x1="1172.0133333333333" y1="0" x2="1172.0133333333333" y2="5" style="visibility: inherit;" fill="rgb(0, 0, 0)" stroke="rgb(204, 204, 204)" stroke-width="1px"></line><line x1="1278.56" y1="0" x2="1278.56" y2="5" style="visibility: inherit;" fill="rgb(0, 0, 0)" stroke="rgb(204, 204, 204)" stroke-width="1px"></line></g><g transform="translate(0, 8)"><text x="0" y="0" dx="0em" dy="0.95em" style="text-anchor: middle; visibility: hidden; font-family: &quot;Helvetica Neue&quot;, sans-serif; font-size: 12px; font-weight: 200;" fill="rgb(50, 49, 63)" stroke="none" stroke-width="1px">-10k</text><text x="106.54666666666665" y="0" dx="0em" dy="0.95em" style="text-anchor: middle; visibility: inherit; font-family: &quot;Helvetica Neue&quot;, sans-serif; font-size: 12px; font-weight: 200;" fill="rgb(50, 49, 63)" stroke="none" stroke-width="1px">0</text><text x="213.0933333333333" y="0" dx="0em" dy="0.95em" style="text-anchor: middle; visibility: inherit; font-family: &quot;Helvetica Neue&quot;, sans-serif; font-size: 12px; font-weight: 200;" fill="rgb(50, 49, 63)" stroke="none" stroke-width="1px">10k</text><text x="319.64" y="0" dx="0em" dy="0.95em" style="text-anchor: middle; visibility: inherit; font-family: &quot;Helvetica Neue&quot;, sans-serif; font-size: 12px; font-weight: 200;" fill="rgb(50, 49, 63)" stroke="none" stroke-width="1px">20k</text><text x="426.1866666666666" y="0" dx="0em" dy="0.95em" style="text-anchor: middle; visibility: inherit; font-family: &quot;Helvetica Neue&quot;, sans-serif; font-size: 12px; font-weight: 200;" fill="rgb(50, 49, 63)" stroke="none" stroke-width="1px">30k</text><text x="532.7333333333333" y="0" dx="0em" dy="0.95em" style="text-anchor: middle; visibility: inherit; font-family: &quot;Helvetica Neue&quot;, sans-serif; font-size: 12px; font-weight: 200;" fill="rgb(50, 49, 63)" stroke="none" stroke-width="1px">40k</text><text x="639.28" y="0" dx="0em" dy="0.95em" style="text-anchor: middle; visibility: inherit; font-family: &quot;Helvetica Neue&quot;, sans-serif; font-size: 12px; font-weight: 200;" fill="rgb(50, 49, 63)" stroke="none" stroke-width="1px">50k</text><text x="745.8266666666667" y="0" dx="0em" dy="0.95em" style="text-anchor: middle; visibility: inherit; font-family: &quot;Helvetica Neue&quot;, sans-serif; font-size: 12px; font-weight: 200;" fill="rgb(50, 49, 63)" stroke="none" stroke-width="1px">60k</text><text x="852.3733333333332" y="0" dx="0em" dy="0.95em" style="text-anchor: middle; visibility: inherit; font-family: &quot;Helvetica Neue&quot;, sans-serif; font-size: 12px; font-weight: 200;" fill="rgb(50, 49, 63)" stroke="none" stroke-width="1px">70k</text><text x="958.92" y="0" dx="0em" dy="0.95em" style="text-anchor: middle; visibility: inherit; font-family: &quot;Helvetica Neue&quot;, sans-serif; font-size: 12px; font-weight: 200;" fill="rgb(50, 49, 63)" stroke="none" stroke-width="1px">80k</text><text x="1065.4666666666667" y="0" dx="0em" dy="0.95em" style="text-anchor: middle; visibility: inherit; font-family: &quot;Helvetica Neue&quot;, sans-serif; font-size: 12px; font-weight: 200;" fill="rgb(50, 49, 63)" stroke="none" stroke-width="1px">90k</text><text x="1172.0133333333333" y="0" dx="0em" dy="0.95em" style="text-anchor: middle; visibility: inherit; font-family: &quot;Helvetica Neue&quot;, sans-serif; font-size: 12px; font-weight: 200;" fill="rgb(50, 49, 63)" stroke="none" stroke-width="1px">100k</text><text x="1278.56" y="0" dx="0em" dy="0.95em" style="text-anchor: middle; visibility: hidden; font-family: &quot;Helvetica Neue&quot;, sans-serif; font-size: 12px; font-weight: 200;" fill="rgb(50, 49, 63)" stroke="none" stroke-width="1px">110k</text></g><line x1="0" y1="0" x2="1278.56" y2="0" fill="rgb(0, 0, 0)" stroke="rgb(204, 204, 204)" stroke-width="1px"></line></g></g></g></g></svg>