<svg viewBox="0 0 330 200" xmlns="http://www.w3.org/2000/svg"><g><g><g><g><g><line x1="34" y1="134.46821848863468" x2="29" y2="134.46821848863468" style="visibility: inherit;" fill="rgb(0, 0, 0)" stroke="rgb(204, 204, 204)" stroke-width="1px"></line><line x1="34" y1="55.90536112198808" x2="29" y2="55.90536112198808" style="visibility: inherit;" fill="rgb(0, 0, 0)" stroke="rgb(204, 204, 204)" stroke-width="1px"></line><line x1="34" y1="0.16412673951853662" x2="29" y2="0.16412673951853662" style="visibility: inherit;" fill="rgb(0, 0, 0)" stroke="rgb(204, 204, 204)" stroke-width="1px"></line></g><g transform="translate(24, 0)"><text x="0" y="134.46821848863468" dx="0em" dy="0.3em" style="text-anchor: end; visibility: inherit; font-family: &quot;Helvetica Neue&quot;, sans-serif; font-size: 12px; font-weight: 200;" fill="rgb(50, 49, 63)" stroke="none" stroke-width="1px">0.2</text><text x="0" y="55.90536112198808" dx="0em" dy="0.3em" style="text-anchor: end; visibility: inherit; font-family: &quot;Helvetica Neue&quot;, sans-serif; font-size: 12px; font-weight: 200;" fill="rgb(50, 49, 63)" stroke="none" stroke-width="1px">0.3</text><text x="0" y="0.16412673951853662" dx="0em" dy="0.3em" style="text-anchor: end; visibility: hidden; font-family: &quot;Helvetica Neue&quot;, sans-serif; font-size: 12px; font-weight: 200;" fill="rgb(50, 49, 63)" stroke="none" stroke-width="1px">0.4</text></g><line x1="34" y1="0" x2="34" y2="177" fill="rgb(0, 0, 0)" stroke="rgb(204, 204, 204)" stroke-width="1px"></line></g></g><g transform="translate(34, 0)" clip-path="url(#clip_0)"><clipPath id="clip_0"><rect width="296" height="177"></rect></clipPath><g><g><g><line x1="0" y1="0" x2="0" y2="177" fill="rgb(0, 0, 0)" stroke="rgb(60, 60, 60)" stroke-width="1px" opacity="0.25"></line><line x1="26.90909090909091" y1="0" x2="26.90909090909091" y2="177" fill="rgb(0, 0, 0)" stroke="rgb(60, 60, 60)" stroke-width="1px" opacity="0.25"></line><line x1="53.81818181818182" y1="0" x2="53.81818181818182" y2="177" fill="rgb(0, 0, 0)" stroke="rgb(60, 60, 60)" stroke-width="1px" opacity="0.25"></line><line x1="80.72727272727272" y1="0" x2="80.72727272727272" y2="177" fill="rgb(0, 0, 0)" stroke="rgb(60, 60, 60)" stroke-width="1px" opacity="0.25"></line><line x1="107.63636363636364" y1="0" x2="107.63636363636364" y2="177" fill="rgb(0, 0, 0)" stroke="rgb(60, 60, 60)" stroke-width="1px" opacity="0.25"></line><line x1="134.54545454545453" y1="0" x2="134.54545454545453" y2="177" fill="rgb(0, 0, 0)" stroke="rgb(60, 60, 60)" stroke-width="1px" opacity="0.25"></line><line x1="161.45454545454544" y1="0" x2="161.45454545454544" y2="177" fill="rgb(0, 0, 0)" stroke="rgb(60, 60, 60)" stroke-width="1px" opacity="0.25"></line><line x1="188.36363636363637" y1="0" x2="188.36363636363637" y2="177" fill="rgb(0, 0, 0)" stroke="rgb(60, 60, 60)" stroke-width="1px" opacity="0.25"></line><line x1="215.27272727272728" y1="0" x2="215.27272727272728" y2="177" fill="rgb(0, 0, 0)" stroke="rgb(60, 60, 60)" stroke-width="1px" opacity="0.25"></line><line x1="242.1818181818182" y1="0" x2="242.1818181818182" y2="177" fill="rgb(0, 0, 0)" stroke="rgb(60, 60, 60)" stroke-width="1px" opacity="0.25"></line><line x1="269.09090909090907" y1="0" x2="269.09090909090907" y2="177" fill="rgb(0, 0, 0)" stroke="rgb(60, 60, 60)" stroke-width="1px" opacity="0.25"></line><line x1="296" y1="0" x2="296" y2="177" fill="rgb(0, 0, 0)" stroke="rgb(60, 60, 60)" stroke-width="1px" opacity="0.25"></line></g><g><line x1="0" y1="134.46821848863468" x2="296" y2="134.46821848863468" fill="rgb(0, 0, 0)" stroke="rgb(60, 60, 60)" stroke-width="1px" opacity="0.25"></line><line x1="0" y1="55.90536112198808" x2="296" y2="55.90536112198808" fill="rgb(0, 0, 0)" stroke="rgb(60, 60, 60)" stroke-width="1px" opacity="0.25"></line><line x1="0" y1="0.16412673951853662" x2="296" y2="0.16412673951853662" fill="rgb(0, 0, 0)" stroke="rgb(60, 60, 60)" stroke-width="1px" opacity="0.25"></line></g></g></g><g><g><line x1="26.90909090909091" y1="0" x2="26.90909090909091" y2="177" fill="rgb(0, 0, 0)" stroke="rgb(153, 153, 153)" stroke-width="1.5px"></line></g></g><g><g><g><g><g><path stroke="rgb(0, 119, 187)" stroke-width="2px" d="M29.59730909090909,169.16496533560223L32.28821818181818,165.81678469463301L34.979127272727276,161.19383877759026L37.67003636363636,157.13693887189507L40.36094545454545,153.95838248909945L43.051854545454546,151.71428571428572L45.742763636363634,148.5464359136318L48.43367272727273,147.2009592194724L51.124581818181824,145.4828147263683L53.81549090909091,142.2462937161082L56.5064,138.91286051153466L59.19730909090909,136.3068518336894L61.88821818181818,133.23134627355313L64.57912727272728,130.41562311123266L67.27003636363636,129.5670466213113L69.96094545454545,128.80579650417283L72.65185454545454,125.86265895567553L75.34276363636363,121.775033525628L78.03367272727272,117.6880510720002L80.72458181818182,113.2798689586059L83.4154909090909,107.76491529024379L86.1064,104.20174785212787L88.7973090909091,101.56455948474657L91.48821818181818,99.20733228507235L94.17912727272727,97.98067490082735L96.87003636363636,96.17845671246683L99.56094545454546,93.18160092593145L102.25185454545455,91.17059712920738L104.94276363636364,88.71884733357727L107.63367272727274,84.41348011750019L110.32458181818183,79.94255289532485L113.01549090909091,78.3660212308217L115.7064,76.5533523307529L118.39730909090909,75.81379650535662L121.08821818181818,75.49480243774552L123.77912727272727,75.97573565851923L126.47003636363635,75.24588046594258L129.16094545454544,74.36643909435797L131.85185454545453,72.73714069080222L134.54276363636365,69.44953351140977L137.23367272727273,67.52952062011802L139.92458181818182,65.69149473108101L142.6154909090909,64.86928481172502L145.3064,64.50283052014463L147.99730909090908,63.52956508246845L150.68821818181817,62.6263351173493L153.37912727272726,61.63051954869684L156.07003636363638,60.26306243524117L158.76094545454544,58.49512431594289L161.45185454545455,54.41712426412742L164.14276363636364,50.408271161575186L166.83367272727273,47.431643356705905L169.52458181818182,44.9607484226579L172.21549090909093,48.54477917034026L174.9064,47.89601555740782L177.5973090909091,48.07403402922489L180.28821818181817,48.0335488055224L182.97912727272728,44.77101249938889L185.67003636363637,44.064916312143794L188.36094545454546,45.16126280967924L191.05185454545455,44.05277103955086L193.74276363636363,43.522351375487716L196.43367272727272,43.86122671512035L199.1245818181818,44.62848350742374L201.81549090909093,42.66637360575885L204.50639999999999,40.97546496080929L208.97330909090908,40.90621565091243L211.66421818181817,41.204851882605396L214.3551272727273,40.52149762084724L217.04603636363635,37.713924038281476L219.73694545454546,32.76646934484745L222.42785454545455,28.674998604406255L225.11876363636364,25.28571428571425L227.80967272727273,23.455501745897863L230.50058181818184,23.036031669384215L233.1914909090909,22.617476587317867L235.88240000000002,23.905391599112136L238.57330909090908,24.523725015850204L241.26421818181817,25.383450587551096L243.95512727272728,27.00835137430687L246.64603636363634,31.823964707343322L249.33694545454546,34.48631434999842L252.02785454545455,36.80204098117534L254.71876363636363,38.72062215611868L257.4096727272727,40.903692594624545L260.1005818181818,43.12070942129503L262.7914909090909,46.41538428588609L265.4824,49.158434355801646L268.1733090909091,49.29490979366335L270.8642181818182,50.46049323692465L273.55512727272725,52.54641964750806L276.2460363636364,54.84638832938626L278.9369454545455,57.20073912013149L281.62785454545457,59.300807066274245L284.31876363636366,60.35875790077718L287.00967272727274,59.56272738105284" style="fill: none;" fill="none"></path></g></g></g></g><g opacity="0.2"><g><g><g><path stroke="rgb(0, 119, 187)" stroke-width="2px" d="M29.59730909090909,169.16496533560223L32.28821818181818,162.78020043967928L34.979127272727276,153.26309096144055L37.67003636363636,147.13833635466884L40.36094545454545,143.8887327548128L43.051854545454546,143.10692646114595L45.742763636363634,134.72616060421595L48.43367272727273,140.44770239724227L51.124581818181824,136.05527748293997L53.81549090909091,123.50969575930885L56.5064,118.32306819326831L59.19730909090909,119.02648731565792L61.88821818181818,111.9838035066036L64.57912727272728,109.98571922168856L67.27003636363636,122.88567424623726L69.96094545454545,122.58239201059536L72.65185454545454,102.25070241207851L75.34276363636363,88.93244154535488L78.03367272727272,84.06039475044633L80.72458181818182,76.49619296691475L83.4154909090909,62.013153528528846L86.1064,72.74801720368649L88.7973090909091,77.3657239481486L91.48821818181818,77.10066889113247L94.17912727272727,85.96550211228033L96.87003636363636,78.58203070473382L99.56094545454546,64.51452651347277L102.25185454545455,71.22477204984419L104.94276363636364,64.46724360938195L107.63367272727274,43.49919658106819L110.32458181818183,37.32074088279629L113.01549090909091,62.013153528528846L115.7064,57.754771368054946L118.39730909090909,67.8526192734605L121.08821818181818,71.99717455698695L123.77912727272727,81.4114380486L126.47003636363635,67.26429378054478L129.16094545454544,64.75105382224436L131.85185454545453,55.24846468091387L134.54276363636365,35.66378747962469L137.23367272727273,46.95517039311909L139.92458181818182,45.889344362364966L142.6154909090909,55.71100449078533L145.3064,60.35175870423052L147.99730909090908,52.68518633579602L150.68821818181817,52.518456527414386L153.37912727272726,50.495918967241295L156.07003636363638,45.11786246056025L158.76094545454544,39.11634829822296L161.45185454545455,12.490543300037814L164.14276363636364,9.060124001674154L166.83367272727273,15.798871964646992L169.52458181818182,18.287452893035322L172.21549090909093,96.11613686726785L174.9064,40.47928045373152L177.5973090909091,50.16634441541541L180.28821818181817,47.560687953474314L182.97912727272728,10.181988788562734L185.67003636363637,35.97975275212977L188.36094545454546,58.498144181193666L191.05185454545455,31.502602828990973L193.74276363636363,37.40293382244741L196.43367272727272,47.885837934666455L199.1245818181818,53.8786525369992L201.81549090909093,20.978281790080644L204.50639999999999,22.124029026890298L208.97330909090908,40.09335481870326L211.66421818181817,44.75461204067253L214.3551272727273,32.65233454979449L217.04603636363635,7.389427768744696L219.73694545454546,-17.620211326887613L225.11876363636364,-10.746300492162646L227.80967272727273,3.089482844301614L230.50058181818184,18.15714825285835L233.1914909090909,17.74816862292542L235.88240000000002,39.781011679042905L238.57330909090908,31.971659372524698L241.26421818181817,35.82680758797579L243.95512727272728,47.29013047831708L246.64603636363634,100.10843446902136L249.33694545454546,69.03467724237184L252.02785454545455,66.46272118062797L254.71876363636363,62.93713622249507L257.4096727272727,68.73245501979751L260.1005818181818,71.42064957083214L262.7914909090909,90.26433265362917L265.4824,84.88583311345211L268.1733090909091,50.914163926155084L270.8642181818182,64.78657697865397L273.55512727272725,79.05286435891036L276.2460363636364,84.30896104125367L278.9369454545455,87.4233387387378L281.62785454545457,86.00511348680746L284.31876363636366,73.31617083613048L287.00967272727274,50.39698024311697" style="fill: none;" fill="none"></path></g></g></g></g></g></g><g transform="translate(34, 177)" clip-path="url(#clip_1)"><clipPath id="clip_1"><rect width="296" height="23"></rect></clipPath><g><g><line x1="0" y1="0" x2="0" y2="5" style="visibility: inherit;" fill="rgb(0, 0, 0)" stroke="rgb(204, 204, 204)" stroke-width="1px"></line><line x1="26.90909090909091" y1="0" x2="26.90909090909091" y2="5" style="visibility: inherit;" fill="rgb(0, 0, 0)" stroke="rgb(204, 204, 204)" stroke-width="1px"></line><line x1="53.81818181818182" y1="0" x2="53.81818181818182" y2="5" style="visibility: inherit;" fill="rgb(0, 0, 0)" stroke="rgb(204, 204, 204)" stroke-width="1px"></line><line x1="80.72727272727272" y1="0" x2="80.72727272727272" y2="5" style="visibility: inherit;" fill="rgb(0, 0, 0)" stroke="rgb(204, 204, 204)" stroke-width="1px"></line><line x1="107.63636363636364" y1="0" x2="107.63636363636364" y2="5" style="visibility: inherit;" fill="rgb(0, 0, 0)" stroke="rgb(204, 204, 204)" stroke-width="1px"></line><line x1="134.54545454545453" y1="0" x2="134.54545454545453" y2="5" style="visibility: inherit;" fill="rgb(0, 0, 0)" stroke="rgb(204, 204, 204)" stroke-width="1px"></line><line x1="161.45454545454544" y1="0" x2="161.45454545454544" y2="5" style="visibility: inherit;" fill="rgb(0, 0, 0)" stroke="rgb(204, 204, 204)" stroke-width="1px"></line><line x1="188.36363636363637" y1="0" x2="188.36363636363637" y2="5" style="visibility: inherit;" fill="rgb(0, 0, 0)" stroke="rgb(204, 204, 204)" stroke-width="1px"></line><line x1="215.27272727272728" y1="0" x2="215.27272727272728" y2="5" style="visibility: inherit;" fill="rgb(0, 0, 0)" stroke="rgb(204, 204, 204)" stroke-width="1px"></line><line x1="242.1818181818182" y1="0" x2="242.1818181818182" y2="5" style="visibility: inherit;" fill="rgb(0, 0, 0)" stroke="rgb(204, 204, 204)" stroke-width="1px"></line><line x1="269.09090909090907" y1="0" x2="269.09090909090907" y2="5" style="visibility: inherit;" fill="rgb(0, 0, 0)" stroke="rgb(204, 204, 204)" stroke-width="1px"></line><line x1="296" y1="0" x2="296" y2="5" style="visibility: inherit;" fill="rgb(0, 0, 0)" stroke="rgb(204, 204, 204)" stroke-width="1px"></line></g><g transform="translate(0, 8)"><text x="0" y="0" dx="0em" dy="0.95em" style="text-anchor: middle; visibility: hidden; font-family: &quot;Helvetica Neue&quot;, sans-serif; font-size: 12px; font-weight: 200;" fill="rgb(50, 49, 63)" stroke="none" stroke-width="1px">-10k</text><text x="26.90909090909091" y="0" dx="0em" dy="0.95em" style="text-anchor: middle; visibility: inherit; font-family: &quot;Helvetica Neue&quot;, sans-serif; font-size: 12px; font-weight: 200;" fill="rgb(50, 49, 63)" stroke="none" stroke-width="1px">0</text><text x="53.81818181818182" y="0" dx="0em" dy="0.95em" style="text-anchor: middle; visibility: inherit; font-family: &quot;Helvetica Neue&quot;, sans-serif; font-size: 12px; font-weight: 200;" fill="rgb(50, 49, 63)" stroke="none" stroke-width="1px">10k</text><text x="80.72727272727272" y="0" dx="0em" dy="0.95em" style="text-anchor: middle; visibility: inherit; font-family: &quot;Helvetica Neue&quot;, sans-serif; font-size: 12px; font-weight: 200;" fill="rgb(50, 49, 63)" stroke="none" stroke-width="1px">20k</text><text x="107.63636363636364" y="0" dx="0em" dy="0.95em" style="text-anchor: middle; visibility: inherit; font-family: &quot;Helvetica Neue&quot;, sans-serif; font-size: 12px; font-weight: 200;" fill="rgb(50, 49, 63)" stroke="none" stroke-width="1px">30k</text><text x="134.54545454545453" y="0" dx="0em" dy="0.95em" style="text-anchor: middle; visibility: inherit; font-family: &quot;Helvetica Neue&quot;, sans-serif; font-size: 12px; font-weight: 200;" fill="rgb(50, 49, 63)" stroke="none" stroke-width="1px">40k</text><text x="161.45454545454544" y="0" dx="0em" dy="0.95em" style="text-anchor: middle; visibility: inherit; font-family: &quot;Helvetica Neue&quot;, sans-serif; font-size: 12px; font-weight: 200;" fill="rgb(50, 49, 63)" stroke="none" stroke-width="1px">50k</text><text x="188.36363636363637" y="0" dx="0em" dy="0.95em" style="text-anchor: middle; visibility: inherit; font-family: &quot;Helvetica Neue&quot;, sans-serif; font-size: 12px; font-weight: 200;" fill="rgb(50, 49, 63)" stroke="none" stroke-width="1px">60k</text><text x="215.27272727272728" y="0" dx="0em" dy="0.95em" style="text-anchor: middle; visibility: inherit; font-family: &quot;Helvetica Neue&quot;, sans-serif; font-size: 12px; font-weight: 200;" fill="rgb(50, 49, 63)" stroke="none" stroke-width="1px">70k</text><text x="242.1818181818182" y="0" dx="0em" dy="0.95em" style="text-anchor: middle; visibility: inherit; font-family: &quot;Helvetica Neue&quot;, sans-serif; font-size: 12px; font-weight: 200;" fill="rgb(50, 49, 63)" stroke="none" stroke-width="1px">80k</text><text x="269.09090909090907" y="0" dx="0em" dy="0.95em" style="text-anchor: middle; visibility: inherit; font-family: &quot;Helvetica Neue&quot;, sans-serif; font-size: 12px; font-weight: 200;" fill="rgb(50, 49, 63)" stroke="none" stroke-width="1px">90k</text><text x="296" y="0" dx="0em" dy="0.95em" style="text-anchor: middle; visibility: hidden; font-family: &quot;Helvetica Neue&quot;, sans-serif; font-size: 12px; font-weight: 200;" fill="rgb(50, 49, 63)" stroke="none" stroke-width="1px">100k</text></g><line x1="0" y1="0" x2="296" y2="0" fill="rgb(0, 0, 0)" stroke="rgb(204, 204, 204)" stroke-width="1px"></line></g></g></g></g></svg>