<svg viewBox="0 0 1288.5555419921875 400" xmlns="http://www.w3.org/2000/svg"><g><g><g><g><g><line x1="50" y1="377" x2="45" y2="377" style="visibility: inherit;" fill="rgb(0, 0, 0)" stroke="rgb(204, 204, 204)" stroke-width="1px"></line><line x1="50" y1="335.1111111111111" x2="45" y2="335.1111111111111" style="visibility: inherit;" fill="rgb(0, 0, 0)" stroke="rgb(204, 204, 204)" stroke-width="1px"></line><line x1="50" y1="293.2222222222222" x2="45" y2="293.2222222222222" style="visibility: inherit;" fill="rgb(0, 0, 0)" stroke="rgb(204, 204, 204)" stroke-width="1px"></line><line x1="50" y1="251.33333333333354" x2="45" y2="251.33333333333354" style="visibility: inherit;" fill="rgb(0, 0, 0)" stroke="rgb(204, 204, 204)" stroke-width="1px"></line><line x1="50" y1="209.4444444444446" x2="45" y2="209.4444444444446" style="visibility: inherit;" fill="rgb(0, 0, 0)" stroke="rgb(204, 204, 204)" stroke-width="1px"></line><line x1="50" y1="167.55555555555569" x2="45" y2="167.55555555555569" style="visibility: inherit;" fill="rgb(0, 0, 0)" stroke="rgb(204, 204, 204)" stroke-width="1px"></line><line x1="50" y1="125.66666666666677" x2="45" y2="125.66666666666677" style="visibility: inherit;" fill="rgb(0, 0, 0)" stroke="rgb(204, 204, 204)" stroke-width="1px"></line><line x1="50" y1="83.77777777777789" x2="45" y2="83.77777777777789" style="visibility: inherit;" fill="rgb(0, 0, 0)" stroke="rgb(204, 204, 204)" stroke-width="1px"></line><line x1="50" y1="41.888888888888914" x2="45" y2="41.888888888888914" style="visibility: inherit;" fill="rgb(0, 0, 0)" stroke="rgb(204, 204, 204)" stroke-width="1px"></line><line x1="50" y1="0" x2="45" y2="0" style="visibility: inherit;" fill="rgb(0, 0, 0)" stroke="rgb(204, 204, 204)" stroke-width="1px"></line></g><g transform="translate(40, 0)"><text x="0" y="377" dx="0em" dy="0.3em" style="text-anchor: end; visibility: hidden; font-family: &quot;Helvetica Neue&quot;, sans-serif; font-size: 12px; font-weight: 200;" fill="rgb(50, 49, 63)" stroke="none" stroke-width="1px">0.04</text><text x="0" y="335.1111111111111" dx="0em" dy="0.3em" style="text-anchor: end; visibility: inherit; font-family: &quot;Helvetica Neue&quot;, sans-serif; font-size: 12px; font-weight: 200;" fill="rgb(50, 49, 63)" stroke="none" stroke-width="1px">0.041</text><text x="0" y="293.2222222222222" dx="0em" dy="0.3em" style="text-anchor: end; visibility: inherit; font-family: &quot;Helvetica Neue&quot;, sans-serif; font-size: 12px; font-weight: 200;" fill="rgb(50, 49, 63)" stroke="none" stroke-width="1px">0.042</text><text x="0" y="251.33333333333354" dx="0em" dy="0.3em" style="text-anchor: end; visibility: inherit; font-family: &quot;Helvetica Neue&quot;, sans-serif; font-size: 12px; font-weight: 200;" fill="rgb(50, 49, 63)" stroke="none" stroke-width="1px">0.043</text><text x="0" y="209.4444444444446" dx="0em" dy="0.3em" style="text-anchor: end; visibility: inherit; font-family: &quot;Helvetica Neue&quot;, sans-serif; font-size: 12px; font-weight: 200;" fill="rgb(50, 49, 63)" stroke="none" stroke-width="1px">0.044</text><text x="0" y="167.55555555555569" dx="0em" dy="0.3em" style="text-anchor: end; visibility: inherit; font-family: &quot;Helvetica Neue&quot;, sans-serif; font-size: 12px; font-weight: 200;" fill="rgb(50, 49, 63)" stroke="none" stroke-width="1px">0.045</text><text x="0" y="125.66666666666677" dx="0em" dy="0.3em" style="text-anchor: end; visibility: inherit; font-family: &quot;Helvetica Neue&quot;, sans-serif; font-size: 12px; font-weight: 200;" fill="rgb(50, 49, 63)" stroke="none" stroke-width="1px">0.046</text><text x="0" y="83.77777777777789" dx="0em" dy="0.3em" style="text-anchor: end; visibility: inherit; font-family: &quot;Helvetica Neue&quot;, sans-serif; font-size: 12px; font-weight: 200;" fill="rgb(50, 49, 63)" stroke="none" stroke-width="1px">0.047</text><text x="0" y="41.888888888888914" dx="0em" dy="0.3em" style="text-anchor: end; visibility: inherit; font-family: &quot;Helvetica Neue&quot;, sans-serif; font-size: 12px; font-weight: 200;" fill="rgb(50, 49, 63)" stroke="none" stroke-width="1px">0.048</text><text x="0" y="0" dx="0em" dy="0.3em" style="text-anchor: end; visibility: hidden; font-family: &quot;Helvetica Neue&quot;, sans-serif; font-size: 12px; font-weight: 200;" fill="rgb(50, 49, 63)" stroke="none" stroke-width="1px">0.049</text></g><line x1="50" y1="0" x2="50" y2="377" fill="rgb(0, 0, 0)" stroke="rgb(204, 204, 204)" stroke-width="1px"></line></g></g><g transform="translate(50, 0)" clip-path="url(#clip_0)"><clipPath id="clip_0"><rect width="1238" height="377"></rect></clipPath><g><g><g><line x1="0" y1="0" x2="0" y2="377" fill="rgb(0, 0, 0)" stroke="rgb(60, 60, 60)" stroke-width="1px" opacity="0.25"></line><line x1="112.59636363636363" y1="0" x2="112.59636363636363" y2="377" fill="rgb(0, 0, 0)" stroke="rgb(60, 60, 60)" stroke-width="1px" opacity="0.25"></line><line x1="225.19272727272727" y1="0" x2="225.19272727272727" y2="377" fill="rgb(0, 0, 0)" stroke="rgb(60, 60, 60)" stroke-width="1px" opacity="0.25"></line><line x1="337.7890909090909" y1="0" x2="337.7890909090909" y2="377" fill="rgb(0, 0, 0)" stroke="rgb(60, 60, 60)" stroke-width="1px" opacity="0.25"></line><line x1="450.38545454545454" y1="0" x2="450.38545454545454" y2="377" fill="rgb(0, 0, 0)" stroke="rgb(60, 60, 60)" stroke-width="1px" opacity="0.25"></line><line x1="562.9818181818181" y1="0" x2="562.9818181818181" y2="377" fill="rgb(0, 0, 0)" stroke="rgb(60, 60, 60)" stroke-width="1px" opacity="0.25"></line><line x1="675.5781818181817" y1="0" x2="675.5781818181817" y2="377" fill="rgb(0, 0, 0)" stroke="rgb(60, 60, 60)" stroke-width="1px" opacity="0.25"></line><line x1="788.1745454545454" y1="0" x2="788.1745454545454" y2="377" fill="rgb(0, 0, 0)" stroke="rgb(60, 60, 60)" stroke-width="1px" opacity="0.25"></line><line x1="900.7709090909091" y1="0" x2="900.7709090909091" y2="377" fill="rgb(0, 0, 0)" stroke="rgb(60, 60, 60)" stroke-width="1px" opacity="0.25"></line><line x1="1013.3672727272727" y1="0" x2="1013.3672727272727" y2="377" fill="rgb(0, 0, 0)" stroke="rgb(60, 60, 60)" stroke-width="1px" opacity="0.25"></line><line x1="1125.9636363636362" y1="0" x2="1125.9636363636362" y2="377" fill="rgb(0, 0, 0)" stroke="rgb(60, 60, 60)" stroke-width="1px" opacity="0.25"></line><line x1="1238.56" y1="0" x2="1238.56" y2="377" fill="rgb(0, 0, 0)" stroke="rgb(60, 60, 60)" stroke-width="1px" opacity="0.25"></line></g><g><line x1="0" y1="377" x2="1238.56" y2="377" fill="rgb(0, 0, 0)" stroke="rgb(60, 60, 60)" stroke-width="1px" opacity="0.25"></line><line x1="0" y1="335.1111111111111" x2="1238.56" y2="335.1111111111111" fill="rgb(0, 0, 0)" stroke="rgb(60, 60, 60)" stroke-width="1px" opacity="0.25"></line><line x1="0" y1="293.2222222222222" x2="1238.56" y2="293.2222222222222" fill="rgb(0, 0, 0)" stroke="rgb(60, 60, 60)" stroke-width="1px" opacity="0.25"></line><line x1="0" y1="251.33333333333354" x2="1238.56" y2="251.33333333333354" fill="rgb(0, 0, 0)" stroke="rgb(60, 60, 60)" stroke-width="1px" opacity="0.25"></line><line x1="0" y1="209.4444444444446" x2="1238.56" y2="209.4444444444446" fill="rgb(0, 0, 0)" stroke="rgb(60, 60, 60)" stroke-width="1px" opacity="0.25"></line><line x1="0" y1="167.55555555555569" x2="1238.56" y2="167.55555555555569" fill="rgb(0, 0, 0)" stroke="rgb(60, 60, 60)" stroke-width="1px" opacity="0.25"></line><line x1="0" y1="125.66666666666677" x2="1238.56" y2="125.66666666666677" fill="rgb(0, 0, 0)" stroke="rgb(60, 60, 60)" stroke-width="1px" opacity="0.25"></line><line x1="0" y1="83.77777777777789" x2="1238.56" y2="83.77777777777789" fill="rgb(0, 0, 0)" stroke="rgb(60, 60, 60)" stroke-width="1px" opacity="0.25"></line><line x1="0" y1="41.888888888888914" x2="1238.56" y2="41.888888888888914" fill="rgb(0, 0, 0)" stroke="rgb(60, 60, 60)" stroke-width="1px" opacity="0.25"></line><line x1="0" y1="0" x2="1238.56" y2="0" fill="rgb(0, 0, 0)" stroke="rgb(60, 60, 60)" stroke-width="1px" opacity="0.25"></line></g></g></g><g><g><line x1="0" y1="2052.555555555555" x2="1238.56" y2="2052.555555555555" fill="rgb(0, 0, 0)" stroke="rgb(153, 153, 153)" stroke-width="1.5px"></line></g></g><g><g><line x1="112.59636363636363" y1="0" x2="112.59636363636363" y2="377" fill="rgb(0, 0, 0)" stroke="rgb(153, 153, 153)" stroke-width="1.5px"></line></g></g><g><g><g><g><g><path stroke="rgb(0, 119, 187)" stroke-width="2px" d="M123.84474036363636,65.02349579003129L135.10437672727272,-240.7000745600809L157.62364945454544,-3.6801342061540367L168.8832858181818,43.14402609474331L180.14292218181816,105.21449865015359L191.40255854545455,85.6089834485619L202.6621949090909,79.80045661196158L213.92183127272727,91.6889189582813L225.18146763636364,100.00504018438869L236.44110399999997,109.45149039901685L247.70074036363633,129.7535207332648L258.9603767272727,138.60383671457882L270.22001309090905,150.56499717226734L281.47964945454544,148.9088082896316L292.7392858181818,159.3238283238924L303.99892218181816,183.38923878704003L315.2585585454545,171.91935833114124L326.5181949090909,151.10747050388557L337.7778312727272,172.08559650569632L349.0374676363636,160.32342970574663L360.297104,165.41648405082526L371.5567403636363,170.15803111390815L382.8163767272727,177.16459088165556L394.0760130909091,166.93421433429475L405.33564945454543,207.21934855672168L416.5952858181818,189.48661333652834L427.85492218181815,196.63479916591763L439.11455854545454,214.89648117969756L450.37419490909093,221.82820733599414L461.63383127272726,231.44702603587072L472.89346763636365,243.85439524592113L484.153104,253.4480087224313L495.4127403636363,271.3060184312435L506.67237672727265,295.22557803333075L517.9320130909091,295.0846388801092L529.1916494545454,279.8270404306612L540.4512858181818,280.0124027038189L551.7109221818181,289.50907617117394L562.9705585454545,287.0218370967841L574.2301949090909,222.07607336714935L585.4898312727272,208.24434345231265L596.7494676363636,215.49286852965497L608.009104,232.20188378220564L619.2687403636363,253.7127097963712L630.5283767272728,250.59810241010717L641.788013090909,249.2733408231625L653.0476494545454,280.6463048317463L664.3072858181818,296.90775515158936L675.5669221818182,289.22352679743295L686.8265585454545,274.890937074851L698.0861949090909,285.4535367795371L709.3458312727272,274.35130175489735L720.6054676363636,226.7614746668175L731.865104,222.14347852354965L743.1247403636364,235.6331757099836L754.3843767272726,237.13418186761152L765.6440130909091,253.5719342896443L776.9036494545454,255.10357550999078L788.1632858181819,257.47235089279997L799.4229221818182,267.6301266799486L810.6825585454544,282.5651669878021L821.9421949090909,282.14115762347114L833.2018312727272,265.6054132916225L844.4614676363636,278.23279668357395L855.7211039999999,281.9969571755488L874.4121003636363,293.4630915833568L885.6717367272727,300.349325578739L896.9313730909091,303.14903029601544L908.1910094545453,304.7073989528079L919.4506458181818,317.1140301958696L930.7102821818181,315.31423809728363L941.9699185454546,308.8811565888817L953.2295549090909,315.6295685895761L964.4891912727273,307.36575368224806L975.7488276363636,326.6806107239939L987.008464,320.2149378561671L998.2681003636363,308.0208979109879L1009.5277367272727,323.9336284766203L1020.787373090909,308.8100159372046L1032.0470094545453,297.5096670847837L1043.3066458181818,299.0777825364545L1054.566282181818,289.2812237669077L1065.8259185454544,301.7040627192311L1077.085554909091,298.2527252663121L1088.3451912727273,293.41112284888266L1099.6048276363636,312.8543032120128L1110.864464,324.2852228912283L1122.1241003636362,314.63228321994325L1133.3837367272727,309.6700208206416L1144.643373090909,303.1064727918108L1155.9030094545456,303.27137443306987L1167.1626458181818,284.2906519471442L1178.4222821818182,274.22046122404L1189.6819185454544,269.71516158709983L1200.9415549090909,263.0771131074099" style="fill: none;" fill="none"></path></g></g></g></g><g opacity="0.2"><g><g><g><path stroke="rgb(0, 119, 187)" stroke-width="2px" d="M123.84474036363636,65.02349579003129L135.10437672727272,-522.5772064228851L146.36401309090908,243.96201996670834L157.62364945454544,155.25154259800914L168.8832858181818,196.65723488065936L180.14292218181816,350.0689146783617L191.40255854545455,-3.7742858595317443L202.6621949090909,50.02897344032931L213.92183127272727,158.8312899437216L225.18146763636364,150.9759760101637L236.44110399999997,171.54391842087117L247.70074036363633,271.5103136532837L258.9603767272727,203.74010987083122L270.22001309090905,242.7581075529258L281.47964945454544,135.6120874020789L292.7392858181818,246.02138900425703L303.99892218181816,390.27927720215587L315.2585585454545,70.42900791101994L326.5181949090909,-37.86958477232184L337.7778312727272,367.056017405457L349.0374676363636,48.68805064426539L360.297104,214.68034208152034L371.5567403636363,216.8161747720507L382.8163767272727,247.1933115224044L394.0760130909091,63.22738018631941L405.33564945454543,620.8852279881637L416.5952858181818,5.252170350816584L427.85492218181815,271.6988199651242L439.11455854545454,408.54410317540174L450.37419490909093,295.9902301794953L461.63383127272726,335.19954304231544L472.89346763636365,378.6861390239663L484.153104,358.4159367150731L495.4127403636363,467.9228111637963L506.67237672727265,560.0922545161512L517.9320130909091,293.51577274004626L529.1916494545454,109.16689894596743L540.4512858181818,282.09491185347247L551.7109221818181,396.6362156338162L562.9705585454545,258.8597923881478L574.2301949090909,-515.8019025756251L585.4898312727272,50.60057825843501L596.7494676363636,298.3454667396016L608.009104,423.6990431480938L619.2687403636363,500.8457194136249L630.5283767272728,214.73449083169305L641.788013090909,233.9875705076589L653.0476494545454,643.3335520691342L664.3072858181818,485.22809631625813L675.5669221818182,200.09045289953553L686.8265585454545,108.39321161641021L698.0861949090909,408.3242311610116L709.3458312727272,145.04052395953076L720.6054676363636,-328.17336226171903L731.865104,168.23647530873623L743.1247403636364,393.25667822029857L754.3843767272726,254.6889341904058L765.6440130909091,445.977274613248L776.9036494545454,273.0453604989582L788.1632858181819,285.2400647633606L799.4229221818182,386.7812991506524L810.6825585454544,457.85925814178256L821.9421949090909,277.1617578499847L833.2018312727272,71.31692257523542L844.4614676363636,426.6694219940239L855.7211039999999,326.2643750707309L874.4121003636363,428.3614534007179L885.6717367272727,381.39529306358764L896.9313730909091,336.1107088989682L908.1910094545453,323.06023591425685L919.4506458181818,463.2685154212846L930.7102821818181,294.1064154472616L941.9699185454546,233.05845909979612L953.2295549090909,395.18683928913543L964.4891912727273,209.92305447989045L975.7488276363636,554.4752969874276L987.008464,243.9468832843834L998.2681003636363,164.15846583247188L1009.5277367272727,511.6965359648069L1020.787373090909,130.33359857400265L1032.0470094545453,164.1352146400346L1043.3066458181818,317.58793513311286L1054.566282181818,173.6293475197422L1065.8259185454544,448.3748002549013L1077.085554909091,257.5006119443311L1088.3451912727273,236.2384107742045L1099.6048276363636,542.4697232279512L1110.864464,459.28912845253944L1122.1241003636362,200.61945653955146L1133.3837367272727,251.05613043242033L1144.643373090909,225.5739158590635L1155.9030094545456,305.21939309438073L1167.1626458181818,60.05647931165174L1178.4222821818182,155.24810953603858L1189.6819185454544,216.48597662978707L1200.9415549090909,184.64697967304127" style="fill: none;" fill="none"></path></g></g></g></g></g></g><g transform="translate(50, 377)" clip-path="url(#clip_1)"><clipPath id="clip_1"><rect width="1238" height="23"></rect></clipPath><g><g><line x1="0" y1="0" x2="0" y2="5" style="visibility: inherit;" fill="rgb(0, 0, 0)" stroke="rgb(204, 204, 204)" stroke-width="1px"></line><line x1="112.59636363636363" y1="0" x2="112.59636363636363" y2="5" style="visibility: inherit;" fill="rgb(0, 0, 0)" stroke="rgb(204, 204, 204)" stroke-width="1px"></line><line x1="225.19272727272727" y1="0" x2="225.19272727272727" y2="5" style="visibility: inherit;" fill="rgb(0, 0, 0)" stroke="rgb(204, 204, 204)" stroke-width="1px"></line><line x1="337.7890909090909" y1="0" x2="337.7890909090909" y2="5" style="visibility: inherit;" fill="rgb(0, 0, 0)" stroke="rgb(204, 204, 204)" stroke-width="1px"></line><line x1="450.38545454545454" y1="0" x2="450.38545454545454" y2="5" style="visibility: inherit;" fill="rgb(0, 0, 0)" stroke="rgb(204, 204, 204)" stroke-width="1px"></line><line x1="562.9818181818181" y1="0" x2="562.9818181818181" y2="5" style="visibility: inherit;" fill="rgb(0, 0, 0)" stroke="rgb(204, 204, 204)" stroke-width="1px"></line><line x1="675.5781818181817" y1="0" x2="675.5781818181817" y2="5" style="visibility: inherit;" fill="rgb(0, 0, 0)" stroke="rgb(204, 204, 204)" stroke-width="1px"></line><line x1="788.1745454545454" y1="0" x2="788.1745454545454" y2="5" style="visibility: inherit;" fill="rgb(0, 0, 0)" stroke="rgb(204, 204, 204)" stroke-width="1px"></line><line x1="900.7709090909091" y1="0" x2="900.7709090909091" y2="5" style="visibility: inherit;" fill="rgb(0, 0, 0)" stroke="rgb(204, 204, 204)" stroke-width="1px"></line><line x1="1013.3672727272727" y1="0" x2="1013.3672727272727" y2="5" style="visibility: inherit;" fill="rgb(0, 0, 0)" stroke="rgb(204, 204, 204)" stroke-width="1px"></line><line x1="1125.9636363636362" y1="0" x2="1125.9636363636362" y2="5" style="visibility: inherit;" fill="rgb(0, 0, 0)" stroke="rgb(204, 204, 204)" stroke-width="1px"></line><line x1="1238.56" y1="0" x2="1238.56" y2="5" style="visibility: inherit;" fill="rgb(0, 0, 0)" stroke="rgb(204, 204, 204)" stroke-width="1px"></line></g><g transform="translate(0, 8)"><text x="0" y="0" dx="0em" dy="0.95em" style="text-anchor: middle; visibility: hidden; font-family: &quot;Helvetica Neue&quot;, sans-serif; font-size: 12px; font-weight: 200;" fill="rgb(50, 49, 63)" stroke="none" stroke-width="1px">-10k</text><text x="112.59636363636363" y="0" dx="0em" dy="0.95em" style="text-anchor: middle; visibility: inherit; font-family: &quot;Helvetica Neue&quot;, sans-serif; font-size: 12px; font-weight: 200;" fill="rgb(50, 49, 63)" stroke="none" stroke-width="1px">0</text><text x="225.19272727272727" y="0" dx="0em" dy="0.95em" style="text-anchor: middle; visibility: inherit; font-family: &quot;Helvetica Neue&quot;, sans-serif; font-size: 12px; font-weight: 200;" fill="rgb(50, 49, 63)" stroke="none" stroke-width="1px">10k</text><text x="337.7890909090909" y="0" dx="0em" dy="0.95em" style="text-anchor: middle; visibility: inherit; font-family: &quot;Helvetica Neue&quot;, sans-serif; font-size: 12px; font-weight: 200;" fill="rgb(50, 49, 63)" stroke="none" stroke-width="1px">20k</text><text x="450.38545454545454" y="0" dx="0em" dy="0.95em" style="text-anchor: middle; visibility: inherit; font-family: &quot;Helvetica Neue&quot;, sans-serif; font-size: 12px; font-weight: 200;" fill="rgb(50, 49, 63)" stroke="none" stroke-width="1px">30k</text><text x="562.9818181818181" y="0" dx="0em" dy="0.95em" style="text-anchor: middle; visibility: inherit; font-family: &quot;Helvetica Neue&quot;, sans-serif; font-size: 12px; font-weight: 200;" fill="rgb(50, 49, 63)" stroke="none" stroke-width="1px">40k</text><text x="675.5781818181817" y="0" dx="0em" dy="0.95em" style="text-anchor: middle; visibility: inherit; font-family: &quot;Helvetica Neue&quot;, sans-serif; font-size: 12px; font-weight: 200;" fill="rgb(50, 49, 63)" stroke="none" stroke-width="1px">50k</text><text x="788.1745454545454" y="0" dx="0em" dy="0.95em" style="text-anchor: middle; visibility: inherit; font-family: &quot;Helvetica Neue&quot;, sans-serif; font-size: 12px; font-weight: 200;" fill="rgb(50, 49, 63)" stroke="none" stroke-width="1px">60k</text><text x="900.7709090909091" y="0" dx="0em" dy="0.95em" style="text-anchor: middle; visibility: inherit; font-family: &quot;Helvetica Neue&quot;, sans-serif; font-size: 12px; font-weight: 200;" fill="rgb(50, 49, 63)" stroke="none" stroke-width="1px">70k</text><text x="1013.3672727272727" y="0" dx="0em" dy="0.95em" style="text-anchor: middle; visibility: inherit; font-family: &quot;Helvetica Neue&quot;, sans-serif; font-size: 12px; font-weight: 200;" fill="rgb(50, 49, 63)" stroke="none" stroke-width="1px">80k</text><text x="1125.9636363636362" y="0" dx="0em" dy="0.95em" style="text-anchor: middle; visibility: inherit; font-family: &quot;Helvetica Neue&quot;, sans-serif; font-size: 12px; font-weight: 200;" fill="rgb(50, 49, 63)" stroke="none" stroke-width="1px">90k</text><text x="1238.56" y="0" dx="0em" dy="0.95em" style="text-anchor: middle; visibility: hidden; font-family: &quot;Helvetica Neue&quot;, sans-serif; font-size: 12px; font-weight: 200;" fill="rgb(50, 49, 63)" stroke="none" stroke-width="1px">100k</text></g><line x1="0" y1="0" x2="1238.56" y2="0" fill="rgb(0, 0, 0)" stroke="rgb(204, 204, 204)" stroke-width="1px"></line></g></g></g></g></svg>